<svg data-name="Layer 1" xmlns="http://www.w3.org/2000/svg" viewBox="0 0 960 840"><defs><clipPath id="a"><path fill="none" d="M0 0h960v840H0z"/></clipPath><pattern id="b" data-name="h" width="36.88" height="21.29" patternTransform="matrix(2.01 0 0 2.01 259.7 -560.14)" patternUnits="userSpaceOnUse"><path fill="none" d="M0 0h36.88v21.29H0z"/><path fill="none" d="M0 0h36.88v21.29H0z"/><path fill="none" d="M0 0h36.88v21.29H0z"/><path d="M0 21.29h36.88V0H0z" fill="none"/><path d="M0 21.29h36.88V0H0z" fill="none"/><path d="M36.13 0L0 20.86v-1.5L33.53 0zM32 0L0 18.49V17L29.43 0zm-8.2 0L0 13.76v-1.47L21.24 0zm13.08 1.93L3.35 21.29H.75L36.88.43zm0 2.37l-29.43 17h-2.6l32-18.49zm-9-4.3L0 16.13v-1.5L25.33 0zm9 9L15.64 21.29H13L36.88 7.53zm0-2.37L11.54 21.29h-2.6L36.88 5.16zm0 14.2l-.75.46h-2.6l3.35-2zm0-7.1l-13.05 7.56h-2.59l15.64-9zm0 2.37l-9 5.19h-2.6l11.55-6.69zm0-4.74l-17.14 9.93h-2.6l19.74-11.4zM19.74 0L0 11.39v-1.5L17.14 0zm17.14 18.49L32 21.29h-2.6L36.88 17zM11.54 0L0 6.66v-1.5L9 0zm4.1 0L0 9V7.53L13 0zM7.45 0L0 4.29v-1.5L4.85 0zM.75 0h2.6L0 1.93V.43z" fill="#e1f6ff"/><path d="M0 0h.75L0 .43zm4.85 0L0 2.8v-.87L3.35 0zM9 0L0 5.16v-.87L7.45 0zm4 0L0 7.53v-.87L11.54 0zm4.1 0L0 9.89V9l15.64-9zm4.1 0L0 12.29v-.9L19.74 0zm4.09 0L0 14.63v-.87L23.83 0zm4.1 0L0 17v-.86L27.93 0zm4.1 0L0 19.36v-.87L32 0zm3.35 0v.43L.75 21.29H0v-.43L36.13 0zm0 2.8l-32 18.49H3.35L36.88 1.93zm0 2.36L8.94 21.29H7.45l29.43-17zm0 2.37L13 21.29h-1.5L36.88 6.66zm0 2.36l-19.7 11.4h-1.5L36.88 9zm0 2.37l-15.64 9h-1.5l17.14-9.9zm0 2.37l-11.51 6.66h-1.5l13.05-7.53zm0 2.36l-7.45 4.3h-1.5l9-5.16zm0 2.37l-3.35 1.93H32l4.85-2.8zm0 1.93h-.75l.75-.43z" fill="#bce5f7"/></pattern><clipPath id="c"><path d="M99 667.21l-.14 50.37C43.32 685.49 8.81 641.14 8.54 592.19l.15-50.38C9 590.77 43.46 635.12 99 667.21z" fill="none"/></clipPath><clipPath id="d"><path d="M99.33 566.49l-.14 50.37C43.61 584.75 9.1 540.44 8.82 491.46L9 441.08c.24 49.04 34.76 93.36 90.33 125.41z" fill="none"/></clipPath><clipPath id="e"><path d="M99.19 616.86L99 667.23C43.46 635.12 9 590.77 8.68 541.84l.13-50.38c.29 49 34.79 93.29 90.38 125.35z" fill="none"/></clipPath><pattern id="f" data-name="p" width="22.24" height="24.72" patternTransform="matrix(4.29 0 0 4.29 17.35 -1705.89)" patternUnits="userSpaceOnUse"><path fill="none" d="M0 0h22.24v24.72H0z"/><path fill="none" d="M0 0h22.24v24.72H0z"/><path fill="none" d="M0 0h22.24v24.72H0z"/><path d="M0 24.72h22.24V0H0z" fill="none"/><path d="M0 24.72h22.24V0H0z" fill="none"/><path d="M16.68 24.72H27.8V0H16.68z" fill="#0066f5"/><path d="M27.8 22.2v.52a5.5 5.5 0 0 1-1.1 1 2.5 2.5 0 0 0 1.1.29v.31a2.7 2.7 0 0 1-1.38-.43 2.78 2.78 0 0 1-1.42.43 2.65 2.65 0 0 1-1.39-.43 2.76 2.76 0 0 1-1.36.43 2.65 2.65 0 0 1-1.39-.43 2.87 2.87 0 0 1-1.39.43h-.07A3.26 3.26 0 0 1 18 24a2.6 2.6 0 0 1-1.3.39v-.31a2.32 2.32 0 0 0 1-.26 3.89 3.89 0 0 1-1-1.1v-.55a15.19 15.19 0 0 0 1.21-1.86c-.21-.38-.33-.65-.35-.7L16.68 18v-.7l1.21-2.3-1.21-2.28V12l1.21-2.25-1.21-2.3v-.7l.86-1.65.35-.7a15.88 15.88 0 0 0-1.21-1.85V2a4.07 4.07 0 0 1 .75-.8l.34-.2a2.33 2.33 0 0 0-1.09-.3V.39a2.78 2.78 0 0 1 1.4.44 2.49 2.49 0 0 1 2.79 0 2.44 2.44 0 0 1 2.76 0 2.44 2.44 0 0 1 2.76 0 2.68 2.68 0 0 1 1.4-.43v.29a2.23 2.23 0 0 0-1.1.32 7 7 0 0 1 1.1 1v.49a15.19 15.19 0 0 0-1.21 1.86c.21.39.33.66.35.7l.86 1.7v.67l-1.21 2.29L27.79 12v.66L26.58 15l1.21 2.32V18l-.86 1.65s-.14.31-.35.69a14.1 14.1 0 0 0 1.21 1.86zm-1.39-6.86l-1.22 2.32 1 1.85a4.66 4.66 0 0 0 .25.5c.15-.29.24-.48.24-.49l1-1.86zM20.85 10l-1.22 2.32 1.22 2.32 1.21-2.32zm1.39 2l1.21-2.28-1.21-2.29L21 9.72zM21 15l1.22 2.32L23.45 15l-1.21-2.28zm2.61-.33l1.21-2.32L23.63 10l-1.22 2.32zm.17.33L25 17.33 26.23 15 25 12.72zM25 12l1.21-2.28L25 7.39l-1.2 2.33zm.86-7s.14-.31.35-.7A16.52 16.52 0 0 0 25 2.51a14.36 14.36 0 0 0-1.21 1.85 5.93 5.93 0 0 1 .34.72L25 6.72zm-2.25-.38l-.25.51-1 1.87 1.22 2.3L24.79 7l-1-1.84a1.42 1.42 0 0 0-.16-.45zm-.17-.33a12.74 12.74 0 0 0-1.2-1.88 14.18 14.18 0 0 0-1.24 2c.21.38.33.65.35.69l.87 1.62.86-1.65.38-.71zm-2.61.35c-.16.29-.24.48-.25.49l-1 1.87 1.22 2.3L22 7l-1-1.86a1.31 1.31 0 0 0-.16-.43zm-.18-.33a14.21 14.21 0 0 0-1.21-1.87 15.27 15.27 0 0 0-1.22 1.86c.21.39.33.66.35.7l.87 1.65L20.3 5a5.63 5.63 0 0 0 .37-.62zm-1.21 3l-1.2 2.41L19.46 12l1.21-2.28zm0 5.3L18.24 15l1.22 2.32L20.67 15zm0 5.31l-.87 1.65s-.14.31-.35.69a12.68 12.68 0 0 0 1.22 1.86 14.1 14.1 0 0 0 1.21-1.86c-.21-.38-.33-.65-.35-.7zm1.39 2c.15-.29.24-.48.24-.49l1-1.86-1.21-2.32-1.22 2.32 1 1.85a2 2 0 0 0 .21.58zm.17.33a12.68 12.68 0 0 0 1.22 1.86 14.1 14.1 0 0 0 1.21-1.86c-.21-.38-.33-.65-.35-.7L22.24 18l-.87 1.65a4.58 4.58 0 0 1-.37.69zm2.63-.25c.15-.29.24-.48.24-.49l1-1.86-1.21-2.32-1.22 2.32 1 1.85a4.29 4.29 0 0 0 .19.5zm.17.33A13.52 13.52 0 0 0 25 22.2a15.19 15.19 0 0 0 1.21-1.86c-.21-.38-.33-.65-.35-.7L25 18l-.87 1.65a4.37 4.37 0 0 1-.33.69zM26.41 10l-1.22 2.32 1.22 2.32 1.21-2.32zm0-5.33a4.52 4.52 0 0 0-.25.49l-1 1.84 1.22 2.32L27.59 7l-1-1.84a1.83 1.83 0 0 0-.18-.46zm-1.19-2.4a14.15 14.15 0 0 1 1.19 1.78 13.07 13.07 0 0 1 1.18-1.78 6.59 6.59 0 0 0-1.18-1.12 6.64 6.64 0 0 0-1.19 1.12zM23.91 1A6.88 6.88 0 0 1 25 2a7 7 0 0 1 1.1-1 2.05 2.05 0 0 0-2.21 0zm-1.44 1.24A12.22 12.22 0 0 1 23.64 4a12.22 12.22 0 0 1 1.17-1.76 6.59 6.59 0 0 0-1.18-1.12 5.87 5.87 0 0 0-1.16 1.12zM21.16 1a7 7 0 0 1 1.1 1 6.41 6.41 0 0 1 1.08-1 2.23 2.23 0 0 0-1.1-.32 2.42 2.42 0 0 0-1.08.32zm-.29.18a6.17 6.17 0 0 0-1.21 1.13 14.15 14.15 0 0 1 1.19 1.78 13 13 0 0 1 1.21-1.81 5.59 5.59 0 0 0-1.19-1.14zM18.36 1a7 7 0 0 1 1.1 1 6.26 6.26 0 0 1 1.12-1 2.44 2.44 0 0 0-1.12-.34 2.26 2.26 0 0 0-1.1.34zm-.29 3.07a13.07 13.07 0 0 1 1.18-1.78 5.5 5.5 0 0 0-1.19-1.12l-.44.31a3.51 3.51 0 0 0-.74.8 14 14 0 0 1 1.19 1.77zm0 5.32l1.21-2.32-1-1.84-.28-.51c-.16.29-.24.48-.25.49l-1 1.85zm0 5.31l1.21-2.32L18.07 10l-1.22 2.32zm0 5.33c.15-.29.24-.48.24-.49l1-1.86-1.21-2.32-1.22 2.36 1 1.85a3.85 3.85 0 0 0 .19.47zm1.18 2.44a13.75 13.75 0 0 1-1.18-1.75 15.64 15.64 0 0 1-1.2 1.8A3.25 3.25 0 0 0 18 23.63a6.08 6.08 0 0 0 1.25-1.18zm1.31 1.25a5.5 5.5 0 0 1-1.1-1 6.7 6.7 0 0 1-1.18 1.14 3 3 0 0 0 1.17.27 2.34 2.34 0 0 0 1.11-.41zM22 22.45a13.07 13.07 0 0 1-1.18-1.78 14.15 14.15 0 0 1-1.19 1.78 6.22 6.22 0 0 0 1.18 1.11A5.71 5.71 0 0 0 22 22.45zm1.31 1.27a5.5 5.5 0 0 1-1.1-1 6.2 6.2 0 0 1-1.11 1 2.05 2.05 0 0 0 2.21 0zm1.47-1.29a13.18 13.18 0 0 1-1.18-1.76 14.15 14.15 0 0 1-1.19 1.78 5.71 5.71 0 0 0 1.19 1.11 6.07 6.07 0 0 0 1.21-1.11zm1.31 1.29a6.08 6.08 0 0 1-1.09-1 6.2 6.2 0 0 1-1.11 1 2 2 0 0 0 2.2 0zm1.47-1.29a13.07 13.07 0 0 1-1.18-1.78 14.15 14.15 0 0 1-1.19 1.78 5.71 5.71 0 0 0 1.19 1.11 6.07 6.07 0 0 0 1.21-1.11z" fill="#0029eb"/><path d="M5.56 24.72h11.12V0H5.56z" fill="#0066f5"/><path d="M5.56.35v23.71l11.12-1.86v.52a6.2 6.2 0 0 1-1.11 1 2.27 2.27 0 0 0 1.11.29v.31a2.65 2.65 0 0 1-1.39-.43 2.87 2.87 0 0 1-1.39.43 2.65 2.65 0 0 1-1.39-.43 2.87 2.87 0 0 1-1.39.43 2.65 2.65 0 0 1-1.39-.43 2.87 2.87 0 0 1-1.39.43h-.05A3.39 3.39 0 0 1 6.86 24a2.6 2.6 0 0 1-1.3.39v-.31a2.32 2.32 0 0 0 1-.26 3.89 3.89 0 0 1-1-1.1v-.55a14.85 14.85 0 0 0 1.21-1.83c-.2-.38-.33-.65-.35-.7L5.56 18v-.67L6.77 15l-1.21-2.28V12l1.21-2.28-1.21-2.33v-.67l.87-1.65s.14-.31.34-.7a14.36 14.36 0 0 0-1.21-1.85V2a5.16 5.16 0 0 1 .75-.8l.34-.2A2.33 2.33 0 0 0 5.56.66V.35A2.74 2.74 0 0 1 7 .79 2.81 2.81 0 0 1 8.35.35a2.65 2.65 0 0 1 1.4.37 2.48 2.48 0 0 1 2.76 0 2.47 2.47 0 0 1 2.78 0 2.65 2.65 0 0 1 1.39-.43V.6a2.32 2.32 0 0 0-1.11.4 6.61 6.61 0 0 1 1.11 1v.49a14.7 14.7 0 0 0-1.22 1.81c.21.39.33.66.35.7l.87 1.73v.67l-1.22 2.32L16.68 12v.66L15.46 15l1.22 2.32V18l-.87 1.65s-.14.31-.35.69a12.68 12.68 0 0 0 1.22 1.86zm9.73 15l-1.22 2.32 1 1.85a4.66 4.66 0 0 0 .25.5c.15-.29.24-.48.24-.49l1-1.86zM9.73 10l-1.22 2.36 1.22 2.36 1.21-2.32zm1.39 2l1.21-2.28-1.21-2.29L9.9 9.72zM9.9 15l1.22 2.32L12.33 15l-1.21-2.28zm2.61-.33l1.21-2.32L12.51 10l-1.22 2.32zm.17.33l1.22 2.32L15.11 15l-1.21-2.28zm1.22-3l1.21-2.28-1.21-2.33-1.22 2.33zm.86-7l.35-.7a14.41 14.41 0 0 0-1.21-1.79 14.36 14.36 0 0 0-1.21 1.85c.21.39.33.67.35.72l.86 1.64zm-2.25-.38c-.15.3-.24.5-.25.51l-1 1.87 1.22 2.3L13.69 7l-1-1.84a1.77 1.77 0 0 0-.18-.45zm-.17-.33a12.74 12.74 0 0 0-1.2-1.88 14 14 0 0 0-1.23 1.9c.2.38.33.65.35.69l.86 1.65.88-1.58a3.57 3.57 0 0 1 .34-.71zm-2.61.35l-.25.49-1 1.87 1.25 2.37 1.21-2.32L10 5.21s-.12-.21-.27-.5zm-.18-.33a14.52 14.52 0 0 0-1.21-1.8 14.1 14.1 0 0 0-1.21 1.86l.35.7.86 1.65.87-1.65s.14-.31.34-.69zm-1.21 3L7.12 9.72 8.34 12l1.21-2.28zm0 5.3L7.12 15l1.22 2.32L9.55 15zm0 5.31l-.87 1.65s-.14.31-.34.69a12.57 12.57 0 0 0 1.21 1.94 14.1 14.1 0 0 0 1.21-1.86c-.2-.38-.33-.65-.35-.7zm1.39 2c.15-.29.24-.48.24-.49l1-1.86-1.24-2.23-1.22 2.32 1 1.85a3.06 3.06 0 0 0 .22.49zm.18.33a12.11 12.11 0 0 0 1.21 1.86 14.1 14.1 0 0 0 1.21-1.86c-.2-.38-.33-.65-.35-.7L11.12 18l-.87 1.65a5.52 5.52 0 0 1-.34.69zm2.6-.33c.15-.29.24-.48.24-.49l1-1.86-1.21-2.32-1.22 2.32 1 1.85a3.93 3.93 0 0 0 .19.58zm.18.33a12.21 12.21 0 0 0 1.21 1.95 14.1 14.1 0 0 0 1.21-1.86c-.21-.38-.33-.65-.35-.7L13.9 18l-.9 1.65a3.55 3.55 0 0 1-.31.69zM15.29 10l-1.22 2.32 1.22 2.32 1.21-2.32zm0-5.33c-.16.29-.24.48-.25.49L14 7l1.22 2.32 1.28-2.27-1-1.84a4.4 4.4 0 0 0-.21-.5zm-1.19-2.4a14.15 14.15 0 0 1 1.19 1.78 13.07 13.07 0 0 1 1.18-1.78 6.59 6.59 0 0 0-1.18-1.12 6.64 6.64 0 0 0-1.19 1.12zM12.8 1a7 7 0 0 1 1.1 1A7 7 0 0 1 15 1a2.26 2.26 0 0 0-1.1-.34 2.16 2.16 0 0 0-1.1.34zm-1.45 1.24A12.22 12.22 0 0 1 12.52 4a12.22 12.22 0 0 1 1.17-1.76 6.59 6.59 0 0 0-1.18-1.12 5.87 5.87 0 0 0-1.16 1.12zM10.05 1a7 7 0 0 1 1.1 1 5.64 5.64 0 0 1 1.07-1 2.23 2.23 0 0 0-1.1-.32 2.38 2.38 0 0 0-1.07.32zm-.3.18a6 6 0 0 0-1.21 1.09 14.15 14.15 0 0 1 1.19 1.78 13.59 13.59 0 0 1 1.21-1.81 5.66 5.66 0 0 0-1.19-1.1zM7.24 1a7 7 0 0 1 1.1 1 6.26 6.26 0 0 1 1.12-1A2.44 2.44 0 0 0 8.34.66a2.26 2.26 0 0 0-1.1.34zM7 4a13.72 13.72 0 0 1 1.13-1.78A6.37 6.37 0 0 0 7 1.15a5.09 5.09 0 0 0-.45.31 3.51 3.51 0 0 0-.74.8A14.26 14.26 0 0 1 7 4.05zm0 5.32L8.16 7l-1-1.84L7 4.72l-.3.49-1 1.85zm0 5.4l1.21-2.32L7 10l-1.27 2.36zM7 20c.15-.29.24-.48.24-.49l1-1.86L7 15.34l-1.27 2.32 1 1.85A4.67 4.67 0 0 0 7 20zm1.18 2.44A14 14 0 0 1 7 20.67a13.41 13.41 0 0 1-1.2 1.8 3.33 3.33 0 0 0 1.11 1.16 5.93 5.93 0 0 0 1.22-1.18zm1.31 1.28a5.5 5.5 0 0 1-1.1-1 6.47 6.47 0 0 1-1.17 1.11 2.9 2.9 0 0 0 1.16.27 2.38 2.38 0 0 0 1.06-.38zM11 22.44a14.37 14.37 0 0 1-1.22-1.78 14.15 14.15 0 0 1-1.19 1.78 5.71 5.71 0 0 0 1.19 1.11 6.54 6.54 0 0 0 1.13-1.1zm1.27 1.28a5.5 5.5 0 0 1-1.1-1 7 7 0 0 1-1.1 1 2.23 2.23 0 0 0 1.1.32 2.3 2.3 0 0 0 1.05-.32zm1.47-1.29a13.07 13.07 0 0 1-1.18-1.78 14.15 14.15 0 0 1-1.19 1.78 5.71 5.71 0 0 0 1.19 1.11 6.54 6.54 0 0 0 1.13-1.1zM15 23.72a5.5 5.5 0 0 1-1.1-1 7 7 0 0 1-1.1 1 2 2 0 0 0 2.2 0zm1.47-1.29a13.07 13.07 0 0 1-1.18-1.78 14.37 14.37 0 0 1-1.19 1.8 5.71 5.71 0 0 0 1.19 1.11 6.22 6.22 0 0 0 1.18-1.11z" fill="#0029eb"/><path d="M-5.56 24.72H5.56V0H-5.56z" fill="#0066f5"/><path d="M5.56 22.2v.52a7 7 0 0 1-1.1 1 2.23 2.23 0 0 0 1.1.29v.31a2.65 2.65 0 0 1-1.39-.43 2.87 2.87 0 0 1-1.39.43 2.87 2.87 0 0 1-1.39-.43 2.76 2.76 0 0 1-1.39.48 2.87 2.87 0 0 1-1.39-.43 2.87 2.87 0 0 1-1.39.43h-.05A3.19 3.19 0 0 1-4.25 24a2.67 2.67 0 0 1-1.31.39v-.31a2.32 2.32 0 0 0 1-.26 3.51 3.51 0 0 1-1-1.1v-.55a14.85 14.85 0 0 0 1.21-1.83c-.2-.38-.33-.65-.35-.7L-5.56 18v-.67L-4.34 15l-1.22-2.28V12l1.22-2.28-1.22-2.3v-.7l.87-1.65s.14-.31.34-.7a12.52 12.52 0 0 0-1.21-1.85V2a4.12 4.12 0 0 1 .76-.8l.33-.2A2.33 2.33 0 0 0-5.56.66V.35a2.69 2.69 0 0 1 1.4.44A2.78 2.78 0 0 1-2.77.35a2.8 2.8 0 0 1 1.41.37A2.7 2.7 0 0 1 0 .35a2.65 2.65 0 0 1 1.39.43A2.65 2.65 0 0 1 2.78.35a2.65 2.65 0 0 1 1.39.43A2.65 2.65 0 0 1 5.56.35v.31a2.16 2.16 0 0 0-1.1.34 7 7 0 0 1 1.1 1v.49a13.68 13.68 0 0 0-1.21 1.88l.35.7.86 1.65v.67L4.34 9.72 5.56 12v.66L4.34 15l1.22 2.32V18l-.87 1.65s-.14.31-.34.69a12.11 12.11 0 0 0 1.21 1.86zm-1.39-6.86L3 17.66l1 1.85a4.66 4.66 0 0 0 .25.5c.15-.29.24-.48.24-.49l1-1.86zM-1.39 10l-1.22 2.32 1.22 2.32 1.22-2.32zM0 12l1.22-2.28L0 7.39l-1.22 2.33zm-1.22 3L0 17.33 1.22 15 0 12.72zm2.61-.33l1.22-2.32L1.39 10 .17 12.36zm.17.33l1.22 2.32L4 15l-1.22-2.28zm1.22-3L4 9.72 2.78 7.39 1.56 9.72zm.87-7s.14-.31.34-.7a14.41 14.41 0 0 0-1.21-1.79 13.31 13.31 0 0 0-1.2 1.85c.2.39.32.67.34.72l.86 1.64zM1.4 4.72c-.16.3-.25.5-.26.51l-1 1.85L1.39 9.4l1.22-2.32-1-1.84a4.71 4.71 0 0 0-.21-.52zm-.18-.33A13.16 13.16 0 0 0 0 2.48a14 14 0 0 0-1.23 1.9c.2.38.33.65.35.69L0 6.72l.87-1.65a4.68 4.68 0 0 1 .35-.71zm-2.61.33c-.15.29-.24.48-.24.49l-1 1.85 1.22 2.32 1.24-2.32-1-1.84a4.46 4.46 0 0 0-.22-.5zm-.18-.33a12.71 12.71 0 0 0-1.21-1.87A12.58 12.58 0 0 0-4 4.37c.2.39.33.66.35.7l.86 1.65.87-1.65a5.58 5.58 0 0 1 .35-.69zm-1.21 3L-4 9.72-2.78 12l1.22-2.28zm0 5.3L-4 15l1.22 2.32L-1.56 15zm0 5.31l-.87 1.65s-.14.31-.34.69a12.61 12.61 0 0 0 1.21 1.86 12.61 12.61 0 0 0 1.21-1.86c-.2-.38-.33-.65-.35-.7zm1.39 2l.25-.49 1-1.86-1.22-2.33-1.22 2.32 1 1.85a1.84 1.84 0 0 0 .19.51zm.18.33A12.71 12.71 0 0 0 0 22.2a12.61 12.61 0 0 0 1.21-1.86c-.2-.38-.33-.65-.35-.7L0 18l-.87 1.65a4.42 4.42 0 0 1-.34.69zm2.6-.33c.15-.29.24-.48.24-.49l1-1.86-1.24-2.31-1.22 2.32 1 1.85a3.06 3.06 0 0 0 .22.49zm.18.33a12.71 12.71 0 0 0 1.21 1.87A15.27 15.27 0 0 0 4 20.34c-.2-.38-.33-.65-.35-.7L2.78 18l-.87 1.65a5.52 5.52 0 0 1-.34.69zM4.17 10L3 12.36l1.22 2.36 1.21-2.32zm0-5.33l-.25.49L3 7.05l1.17 2.32 1.21-2.32-1-1.84a4.4 4.4 0 0 0-.21-.5zM3 2.27a14 14 0 0 1 1.17 1.78 14.08 14.08 0 0 1 1.18-1.78 6.59 6.59 0 0 0-1.18-1.12A6.21 6.21 0 0 0 3 2.27zM1.68 1a7 7 0 0 1 1.1 1 7 7 0 0 1 1.1-1 2.16 2.16 0 0 0-1.1-.34 2.16 2.16 0 0 0-1.1.34zM.23 2.24A12.22 12.22 0 0 1 1.4 4a12 12 0 0 1 1.18-1.73 6.64 6.64 0 0 0-1.19-1.12A6.3 6.3 0 0 0 .23 2.24zM-1.07 1A6.75 6.75 0 0 1 0 2a7 7 0 0 1 1.1-1A2.16 2.16 0 0 0 0 .66 2.25 2.25 0 0 0-1.07 1zm-.3.18a6 6 0 0 0-1.21 1.09 14.15 14.15 0 0 1 1.19 1.78A13.59 13.59 0 0 1-.18 2.24a5.66 5.66 0 0 0-1.19-1.1zM-3.88 1a7 7 0 0 1 1.1 1 7.09 7.09 0 0 1 1.12-1A2.44 2.44 0 0 0-2.78.66a2.26 2.26 0 0 0-1.1.34zm-.29 3.07A13.2 13.2 0 0 1-3 2.27a6.53 6.53 0 0 0-1.17-1.12l-.45.31a4 4 0 0 0-.74.8 13.57 13.57 0 0 1 1.19 1.79zm0 5.32l1.22-2.32-1-1.84a4.66 4.66 0 0 0-.25-.5c-.15.29-.24.48-.24.49l-1 1.85zm0 5.31l1.22-2.32L-4.17 10l-1.21 2.32zm0 5.33l.25-.49 1-1.86-1.22-2.32-1.21 2.36 1 1.85a2.07 2.07 0 0 0 .18.47zM-3 22.45a14.15 14.15 0 0 1-1.19-1.78 13.41 13.41 0 0 1-1.2 1.8 3.33 3.33 0 0 0 1.11 1.16A6.24 6.24 0 0 0-3 22.45zm1.3 1.27a7 7 0 0 1-1.1-1A6.7 6.7 0 0 1-4 23.84a2.87 2.87 0 0 0 1.19.27 2.43 2.43 0 0 0 1.13-.39zm1.5-1.27a14.15 14.15 0 0 1-1.19-1.78 14.15 14.15 0 0 1-1.19 1.78 6.59 6.59 0 0 0 1.19 1.11A6.59 6.59 0 0 0-.2 22.45zm1.3 1.27a7 7 0 0 1-1.1-1 7 7 0 0 1-1.1 1 2.26 2.26 0 0 0 1.1.34 2.26 2.26 0 0 0 1.1-.34zm1.48-1.27a14.15 14.15 0 0 1-1.19-1.78A14.15 14.15 0 0 1 .2 22.45a6.59 6.59 0 0 0 1.19 1.11 6.59 6.59 0 0 0 1.19-1.11zm1.3 1.27a7 7 0 0 1-1.1-1 7 7 0 0 1-1.1 1 2.26 2.26 0 0 0 1.1.34 2.26 2.26 0 0 0 1.1-.34zm1.47-1.27a14.08 14.08 0 0 1-1.18-1.78A13 13 0 0 1 3 22.45a5.71 5.71 0 0 0 1.19 1.11 6.41 6.41 0 0 0 1.16-1.11z" fill="#0029eb"/></pattern><clipPath id="g"><path d="M371.69 280.7l-.15 50.37C316 299 281.46 254.62 281.18 205.67l.14-50.37c.3 48.95 34.79 93.31 90.37 125.4z" fill="none"/></clipPath><clipPath id="h"><path d="M372 180l-.14 50.37c-55.58-32.11-90.09-76.42-90.37-125.35l.15-50.41c.27 49 34.78 93.31 90.36 125.35z" fill="none"/></clipPath><clipPath id="i"><path d="M371.84 230.34l-.14 50.37c-55.59-32.1-90.08-76.46-90.38-125.34l.15-50.37c.27 49 34.79 93.28 90.37 125.39z" fill="none"/></clipPath><pattern id="j" data-name="p-3" width="22.24" height="24.72" patternTransform="matrix(4.29 0 0 4.29 99.38 -1743.12)" patternUnits="userSpaceOnUse"><path fill="none" d="M0 0h22.24v24.72H0z"/><path fill="none" d="M0 0h22.24v24.72H0z"/><path fill="none" d="M0 0h22.24v24.72H0z"/><path d="M0 24.72h22.24V0H0z" fill="none"/><path d="M0 24.72h22.24V0H0z" fill="none"/><path d="M16.68 24.72H27.8V0H16.68z" fill="#0066f5"/><path d="M27.8 22.2v.52a5.5 5.5 0 0 1-1.1 1 2.5 2.5 0 0 0 1.1.29v.31a2.7 2.7 0 0 1-1.38-.43 2.78 2.78 0 0 1-1.42.43 2.65 2.65 0 0 1-1.39-.43 2.76 2.76 0 0 1-1.36.43 2.65 2.65 0 0 1-1.39-.43 2.87 2.87 0 0 1-1.39.43h-.07A3.26 3.26 0 0 1 18 24a2.6 2.6 0 0 1-1.3.39v-.31a2.32 2.32 0 0 0 1-.26 3.89 3.89 0 0 1-1-1.1v-.55a15.19 15.19 0 0 0 1.21-1.86c-.21-.38-.33-.65-.35-.7L16.68 18v-.7l1.21-2.3-1.21-2.28V12l1.21-2.25-1.21-2.3v-.7l.86-1.65.35-.7a15.88 15.88 0 0 0-1.21-1.85V2a4.07 4.07 0 0 1 .75-.8l.34-.2a2.33 2.33 0 0 0-1.09-.3V.39a2.78 2.78 0 0 1 1.4.44 2.49 2.49 0 0 1 2.79 0 2.44 2.44 0 0 1 2.76 0 2.44 2.44 0 0 1 2.76 0 2.68 2.68 0 0 1 1.4-.43v.29a2.23 2.23 0 0 0-1.1.32 7 7 0 0 1 1.1 1v.49a15.19 15.19 0 0 0-1.21 1.86c.21.39.33.66.35.7l.86 1.7v.67l-1.21 2.29L27.79 12v.66L26.58 15l1.21 2.32V18l-.86 1.65s-.14.31-.35.69a14.1 14.1 0 0 0 1.21 1.86zm-1.39-6.86l-1.22 2.32 1 1.85a4.66 4.66 0 0 0 .25.5c.15-.29.24-.48.24-.49l1-1.86zM20.85 10l-1.22 2.32 1.22 2.32 1.21-2.32zm1.39 2l1.21-2.28-1.21-2.29L21 9.72zM21 15l1.22 2.32L23.45 15l-1.21-2.28zm2.61-.33l1.21-2.32L23.63 10l-1.22 2.32zm.17.33L25 17.33 26.23 15 25 12.72zM25 12l1.21-2.28L25 7.39l-1.2 2.33zm.86-7s.14-.31.35-.7A16.52 16.52 0 0 0 25 2.51a14.36 14.36 0 0 0-1.21 1.85 5.93 5.93 0 0 1 .34.72L25 6.72zm-2.25-.38l-.25.51-1 1.87 1.22 2.3L24.79 7l-1-1.84a1.42 1.42 0 0 0-.16-.45zm-.17-.33a12.74 12.74 0 0 0-1.2-1.88 14.18 14.18 0 0 0-1.24 2c.21.38.33.65.35.69l.87 1.62.86-1.65.38-.71zm-2.61.35c-.16.29-.24.48-.25.49l-1 1.87 1.22 2.3L22 7l-1-1.86a1.31 1.31 0 0 0-.16-.43zm-.18-.33a14.21 14.21 0 0 0-1.21-1.87 15.27 15.27 0 0 0-1.22 1.86c.21.39.33.66.35.7l.87 1.65L20.3 5a5.63 5.63 0 0 0 .37-.62zm-1.21 3l-1.2 2.41L19.46 12l1.21-2.28zm0 5.3L18.24 15l1.22 2.32L20.67 15zm0 5.31l-.87 1.65s-.14.31-.35.69a12.68 12.68 0 0 0 1.22 1.86 14.1 14.1 0 0 0 1.21-1.86c-.21-.38-.33-.65-.35-.7zm1.39 2c.15-.29.24-.48.24-.49l1-1.86-1.21-2.32-1.22 2.32 1 1.85a2 2 0 0 0 .21.58zm.17.33a12.68 12.68 0 0 0 1.22 1.86 14.1 14.1 0 0 0 1.21-1.86c-.21-.38-.33-.65-.35-.7L22.24 18l-.87 1.65a4.58 4.58 0 0 1-.37.69zm2.63-.25c.15-.29.24-.48.24-.49l1-1.86-1.21-2.32-1.22 2.32 1 1.85a4.29 4.29 0 0 0 .19.5zm.17.33A13.52 13.52 0 0 0 25 22.2a15.19 15.19 0 0 0 1.21-1.86c-.21-.38-.33-.65-.35-.7L25 18l-.87 1.65a4.37 4.37 0 0 1-.33.69zM26.41 10l-1.22 2.32 1.22 2.32 1.21-2.32zm0-5.33a4.52 4.52 0 0 0-.25.49l-1 1.84 1.22 2.32L27.59 7l-1-1.84a1.83 1.83 0 0 0-.18-.46zm-1.19-2.4a14.15 14.15 0 0 1 1.19 1.78 13.07 13.07 0 0 1 1.18-1.78 6.59 6.59 0 0 0-1.18-1.12 6.64 6.64 0 0 0-1.19 1.12zM23.91 1A6.88 6.88 0 0 1 25 2a7 7 0 0 1 1.1-1 2.05 2.05 0 0 0-2.21 0zm-1.44 1.24A12.22 12.22 0 0 1 23.64 4a12.22 12.22 0 0 1 1.17-1.76 6.59 6.59 0 0 0-1.18-1.12 5.87 5.87 0 0 0-1.16 1.12zM21.16 1a7 7 0 0 1 1.1 1 6.41 6.41 0 0 1 1.08-1 2.23 2.23 0 0 0-1.1-.32 2.42 2.42 0 0 0-1.08.32zm-.29.18a6.17 6.17 0 0 0-1.21 1.13 14.15 14.15 0 0 1 1.19 1.78 13 13 0 0 1 1.21-1.81 5.59 5.59 0 0 0-1.19-1.14zM18.36 1a7 7 0 0 1 1.1 1 6.26 6.26 0 0 1 1.12-1 2.44 2.44 0 0 0-1.12-.34 2.26 2.26 0 0 0-1.1.34zm-.29 3.07a13.07 13.07 0 0 1 1.18-1.78 5.5 5.5 0 0 0-1.19-1.12l-.44.31a3.51 3.51 0 0 0-.74.8 14 14 0 0 1 1.19 1.77zm0 5.32l1.21-2.32-1-1.84-.28-.51c-.16.29-.24.48-.25.49l-1 1.85zm0 5.31l1.21-2.32L18.07 10l-1.22 2.32zm0 5.33c.15-.29.24-.48.24-.49l1-1.86-1.21-2.32-1.22 2.36 1 1.85a3.85 3.85 0 0 0 .19.47zm1.18 2.44a13.75 13.75 0 0 1-1.18-1.75 15.64 15.64 0 0 1-1.2 1.8A3.25 3.25 0 0 0 18 23.63a6.08 6.08 0 0 0 1.25-1.18zm1.31 1.25a5.5 5.5 0 0 1-1.1-1 6.7 6.7 0 0 1-1.18 1.14 3 3 0 0 0 1.17.27 2.34 2.34 0 0 0 1.11-.41zM22 22.45a13.07 13.07 0 0 1-1.18-1.78 14.15 14.15 0 0 1-1.19 1.78 6.22 6.22 0 0 0 1.18 1.11A5.71 5.71 0 0 0 22 22.45zm1.31 1.27a5.5 5.5 0 0 1-1.1-1 6.2 6.2 0 0 1-1.11 1 2.05 2.05 0 0 0 2.21 0zm1.47-1.29a13.18 13.18 0 0 1-1.18-1.76 14.15 14.15 0 0 1-1.19 1.78 5.71 5.71 0 0 0 1.19 1.11 6.07 6.07 0 0 0 1.21-1.11zm1.31 1.29a6.08 6.08 0 0 1-1.09-1 6.2 6.2 0 0 1-1.11 1 2 2 0 0 0 2.2 0zm1.47-1.29a13.07 13.07 0 0 1-1.18-1.78 14.15 14.15 0 0 1-1.19 1.78 5.71 5.71 0 0 0 1.19 1.11 6.07 6.07 0 0 0 1.21-1.11z" fill="#0029eb"/><path d="M5.56 24.72h11.12V0H5.56z" fill="#0066f5"/><path d="M5.56.35v23.71l11.12-1.86v.52a6.2 6.2 0 0 1-1.11 1 2.27 2.27 0 0 0 1.11.29v.31a2.65 2.65 0 0 1-1.39-.43 2.87 2.87 0 0 1-1.39.43 2.65 2.65 0 0 1-1.39-.43 2.87 2.87 0 0 1-1.39.43 2.65 2.65 0 0 1-1.39-.43 2.87 2.87 0 0 1-1.39.43h-.05A3.39 3.39 0 0 1 6.86 24a2.6 2.6 0 0 1-1.3.39v-.31a2.32 2.32 0 0 0 1-.26 3.89 3.89 0 0 1-1-1.1v-.55a14.85 14.85 0 0 0 1.21-1.83c-.2-.38-.33-.65-.35-.7L5.56 18v-.67L6.77 15l-1.21-2.28V12l1.21-2.28-1.21-2.33v-.67l.87-1.65s.14-.31.34-.7a14.36 14.36 0 0 0-1.21-1.85V2a5.16 5.16 0 0 1 .75-.8l.34-.2A2.33 2.33 0 0 0 5.56.66V.35A2.74 2.74 0 0 1 7 .79 2.81 2.81 0 0 1 8.35.35a2.65 2.65 0 0 1 1.4.37 2.48 2.48 0 0 1 2.76 0 2.47 2.47 0 0 1 2.78 0 2.65 2.65 0 0 1 1.39-.43V.6a2.32 2.32 0 0 0-1.11.4 6.61 6.61 0 0 1 1.11 1v.49a14.7 14.7 0 0 0-1.22 1.81c.21.39.33.66.35.7l.87 1.73v.67l-1.22 2.32L16.68 12v.66L15.46 15l1.22 2.32V18l-.87 1.65s-.14.31-.35.69a12.68 12.68 0 0 0 1.22 1.86zm9.73 15l-1.22 2.32 1 1.85a4.66 4.66 0 0 0 .25.5c.15-.29.24-.48.24-.49l1-1.86zM9.73 10l-1.22 2.36 1.22 2.36 1.21-2.32zm1.39 2l1.21-2.28-1.21-2.29L9.9 9.72zM9.9 15l1.22 2.32L12.33 15l-1.21-2.28zm2.61-.33l1.21-2.32L12.51 10l-1.22 2.32zm.17.33l1.22 2.32L15.11 15l-1.21-2.28zm1.22-3l1.21-2.28-1.21-2.33-1.22 2.33zm.86-7l.35-.7a14.41 14.41 0 0 0-1.21-1.79 14.36 14.36 0 0 0-1.21 1.85c.21.39.33.67.35.72l.86 1.64zm-2.25-.38c-.15.3-.24.5-.25.51l-1 1.87 1.22 2.3L13.69 7l-1-1.84a1.77 1.77 0 0 0-.18-.45zm-.17-.33a12.74 12.74 0 0 0-1.2-1.88 14 14 0 0 0-1.23 1.9c.2.38.33.65.35.69l.86 1.65.88-1.58a3.57 3.57 0 0 1 .34-.71zm-2.61.35l-.25.49-1 1.87 1.25 2.37 1.21-2.32L10 5.21s-.12-.21-.27-.5zm-.18-.33a14.52 14.52 0 0 0-1.21-1.8 14.1 14.1 0 0 0-1.21 1.86l.35.7.86 1.65.87-1.65s.14-.31.34-.69zm-1.21 3L7.12 9.72 8.34 12l1.21-2.28zm0 5.3L7.12 15l1.22 2.32L9.55 15zm0 5.31l-.87 1.65s-.14.31-.34.69a12.57 12.57 0 0 0 1.21 1.94 14.1 14.1 0 0 0 1.21-1.86c-.2-.38-.33-.65-.35-.7zm1.39 2c.15-.29.24-.48.24-.49l1-1.86-1.24-2.23-1.22 2.32 1 1.85a3.06 3.06 0 0 0 .22.49zm.18.33a12.11 12.11 0 0 0 1.21 1.86 14.1 14.1 0 0 0 1.21-1.86c-.2-.38-.33-.65-.35-.7L11.12 18l-.87 1.65a5.52 5.52 0 0 1-.34.69zm2.6-.33c.15-.29.24-.48.24-.49l1-1.86-1.21-2.32-1.22 2.32 1 1.85a3.93 3.93 0 0 0 .19.58zm.18.33a12.21 12.21 0 0 0 1.21 1.95 14.1 14.1 0 0 0 1.21-1.86c-.21-.38-.33-.65-.35-.7L13.9 18l-.9 1.65a3.55 3.55 0 0 1-.31.69zM15.29 10l-1.22 2.32 1.22 2.32 1.21-2.32zm0-5.33c-.16.29-.24.48-.25.49L14 7l1.22 2.32 1.28-2.27-1-1.84a4.4 4.4 0 0 0-.21-.5zm-1.19-2.4a14.15 14.15 0 0 1 1.19 1.78 13.07 13.07 0 0 1 1.18-1.78 6.59 6.59 0 0 0-1.18-1.12 6.64 6.64 0 0 0-1.19 1.12zM12.8 1a7 7 0 0 1 1.1 1A7 7 0 0 1 15 1a2.26 2.26 0 0 0-1.1-.34 2.16 2.16 0 0 0-1.1.34zm-1.45 1.24A12.22 12.22 0 0 1 12.52 4a12.22 12.22 0 0 1 1.17-1.76 6.59 6.59 0 0 0-1.18-1.12 5.87 5.87 0 0 0-1.16 1.12zM10.05 1a7 7 0 0 1 1.1 1 5.64 5.64 0 0 1 1.07-1 2.23 2.23 0 0 0-1.1-.32 2.38 2.38 0 0 0-1.07.32zm-.3.18a6 6 0 0 0-1.21 1.09 14.15 14.15 0 0 1 1.19 1.78 13.59 13.59 0 0 1 1.21-1.81 5.66 5.66 0 0 0-1.19-1.1zM7.24 1a7 7 0 0 1 1.1 1 6.26 6.26 0 0 1 1.12-1A2.44 2.44 0 0 0 8.34.66a2.26 2.26 0 0 0-1.1.34zM7 4a13.72 13.72 0 0 1 1.13-1.78A6.37 6.37 0 0 0 7 1.15a5.09 5.09 0 0 0-.45.31 3.51 3.51 0 0 0-.74.8A14.26 14.26 0 0 1 7 4.05zm0 5.32L8.16 7l-1-1.84L7 4.72l-.3.49-1 1.85zm0 5.4l1.21-2.32L7 10l-1.27 2.36zM7 20c.15-.29.24-.48.24-.49l1-1.86L7 15.34l-1.27 2.32 1 1.85A4.67 4.67 0 0 0 7 20zm1.18 2.44A14 14 0 0 1 7 20.67a13.41 13.41 0 0 1-1.2 1.8 3.33 3.33 0 0 0 1.11 1.16 5.93 5.93 0 0 0 1.22-1.18zm1.31 1.28a5.5 5.5 0 0 1-1.1-1 6.47 6.47 0 0 1-1.17 1.11 2.9 2.9 0 0 0 1.16.27 2.38 2.38 0 0 0 1.06-.38zM11 22.44a14.37 14.37 0 0 1-1.22-1.78 14.15 14.15 0 0 1-1.19 1.78 5.71 5.71 0 0 0 1.19 1.11 6.54 6.54 0 0 0 1.13-1.1zm1.27 1.28a5.5 5.5 0 0 1-1.1-1 7 7 0 0 1-1.1 1 2.23 2.23 0 0 0 1.1.32 2.3 2.3 0 0 0 1.05-.32zm1.47-1.29a13.07 13.07 0 0 1-1.18-1.78 14.15 14.15 0 0 1-1.19 1.78 5.71 5.71 0 0 0 1.19 1.11 6.54 6.54 0 0 0 1.13-1.1zM15 23.72a5.5 5.5 0 0 1-1.1-1 7 7 0 0 1-1.1 1 2 2 0 0 0 2.2 0zm1.47-1.29a13.07 13.07 0 0 1-1.18-1.78 14.37 14.37 0 0 1-1.19 1.8 5.71 5.71 0 0 0 1.19 1.11 6.22 6.22 0 0 0 1.18-1.11z" fill="#0029eb"/><path d="M-5.56 24.72H5.56V0H-5.56z" fill="#0066f5"/><path d="M5.56 22.2v.52a7 7 0 0 1-1.1 1 2.23 2.23 0 0 0 1.1.29v.31a2.65 2.65 0 0 1-1.39-.43 2.87 2.87 0 0 1-1.39.43 2.87 2.87 0 0 1-1.39-.43 2.76 2.76 0 0 1-1.39.48 2.87 2.87 0 0 1-1.39-.43 2.87 2.87 0 0 1-1.39.43h-.05A3.19 3.19 0 0 1-4.25 24a2.67 2.67 0 0 1-1.31.39v-.31a2.32 2.32 0 0 0 1-.26 3.51 3.51 0 0 1-1-1.1v-.55a14.85 14.85 0 0 0 1.21-1.83c-.2-.38-.33-.65-.35-.7L-5.56 18v-.67L-4.34 15l-1.22-2.28V12l1.22-2.28-1.22-2.3v-.7l.87-1.65s.14-.31.34-.7a12.52 12.52 0 0 0-1.21-1.85V2a4.12 4.12 0 0 1 .76-.8l.33-.2A2.33 2.33 0 0 0-5.56.66V.35a2.69 2.69 0 0 1 1.4.44A2.78 2.78 0 0 1-2.77.35a2.8 2.8 0 0 1 1.41.37A2.7 2.7 0 0 1 0 .35a2.65 2.65 0 0 1 1.39.43A2.65 2.65 0 0 1 2.78.35a2.65 2.65 0 0 1 1.39.43A2.65 2.65 0 0 1 5.56.35v.31a2.16 2.16 0 0 0-1.1.34 7 7 0 0 1 1.1 1v.49a13.68 13.68 0 0 0-1.21 1.88l.35.7.86 1.65v.67L4.34 9.72 5.56 12v.66L4.34 15l1.22 2.32V18l-.87 1.65s-.14.31-.34.69a12.11 12.11 0 0 0 1.21 1.86zm-1.39-6.86L3 17.66l1 1.85a4.66 4.66 0 0 0 .25.5c.15-.29.24-.48.24-.49l1-1.86zM-1.39 10l-1.22 2.32 1.22 2.32 1.22-2.32zM0 12l1.22-2.28L0 7.39l-1.22 2.33zm-1.22 3L0 17.33 1.22 15 0 12.72zm2.61-.33l1.22-2.32L1.39 10 .17 12.36zm.17.33l1.22 2.32L4 15l-1.22-2.28zm1.22-3L4 9.72 2.78 7.39 1.56 9.72zm.87-7s.14-.31.34-.7a14.41 14.41 0 0 0-1.21-1.79 13.31 13.31 0 0 0-1.2 1.85c.2.39.32.67.34.72l.86 1.64zM1.4 4.72c-.16.3-.25.5-.26.51l-1 1.85L1.39 9.4l1.22-2.32-1-1.84a4.71 4.71 0 0 0-.21-.52zm-.18-.33A13.16 13.16 0 0 0 0 2.48a14 14 0 0 0-1.23 1.9c.2.38.33.65.35.69L0 6.72l.87-1.65a4.68 4.68 0 0 1 .35-.71zm-2.61.33c-.15.29-.24.48-.24.49l-1 1.85 1.22 2.32 1.24-2.32-1-1.84a4.46 4.46 0 0 0-.22-.5zm-.18-.33a12.71 12.71 0 0 0-1.21-1.87A12.58 12.58 0 0 0-4 4.37c.2.39.33.66.35.7l.86 1.65.87-1.65a5.58 5.58 0 0 1 .35-.69zm-1.21 3L-4 9.72-2.78 12l1.22-2.28zm0 5.3L-4 15l1.22 2.32L-1.56 15zm0 5.31l-.87 1.65s-.14.31-.34.69a12.61 12.61 0 0 0 1.21 1.86 12.61 12.61 0 0 0 1.21-1.86c-.2-.38-.33-.65-.35-.7zm1.39 2l.25-.49 1-1.86-1.22-2.33-1.22 2.32 1 1.85a1.84 1.84 0 0 0 .19.51zm.18.33A12.71 12.71 0 0 0 0 22.2a12.61 12.61 0 0 0 1.21-1.86c-.2-.38-.33-.65-.35-.7L0 18l-.87 1.65a4.42 4.42 0 0 1-.34.69zm2.6-.33c.15-.29.24-.48.24-.49l1-1.86-1.24-2.31-1.22 2.32 1 1.85a3.06 3.06 0 0 0 .22.49zm.18.33a12.71 12.71 0 0 0 1.21 1.87A15.27 15.27 0 0 0 4 20.34c-.2-.38-.33-.65-.35-.7L2.78 18l-.87 1.65a5.52 5.52 0 0 1-.34.69zM4.17 10L3 12.36l1.22 2.36 1.21-2.32zm0-5.33l-.25.49L3 7.05l1.17 2.32 1.21-2.32-1-1.84a4.4 4.4 0 0 0-.21-.5zM3 2.27a14 14 0 0 1 1.17 1.78 14.08 14.08 0 0 1 1.18-1.78 6.59 6.59 0 0 0-1.18-1.12A6.21 6.21 0 0 0 3 2.27zM1.68 1a7 7 0 0 1 1.1 1 7 7 0 0 1 1.1-1 2.16 2.16 0 0 0-1.1-.34 2.16 2.16 0 0 0-1.1.34zM.23 2.24A12.22 12.22 0 0 1 1.4 4a12 12 0 0 1 1.18-1.73 6.64 6.64 0 0 0-1.19-1.12A6.3 6.3 0 0 0 .23 2.24zM-1.07 1A6.75 6.75 0 0 1 0 2a7 7 0 0 1 1.1-1A2.16 2.16 0 0 0 0 .66 2.25 2.25 0 0 0-1.07 1zm-.3.18a6 6 0 0 0-1.21 1.09 14.15 14.15 0 0 1 1.19 1.78A13.59 13.59 0 0 1-.18 2.24a5.66 5.66 0 0 0-1.19-1.1zM-3.88 1a7 7 0 0 1 1.1 1 7.09 7.09 0 0 1 1.12-1A2.44 2.44 0 0 0-2.78.66a2.26 2.26 0 0 0-1.1.34zm-.29 3.07A13.2 13.2 0 0 1-3 2.27a6.53 6.53 0 0 0-1.17-1.12l-.45.31a4 4 0 0 0-.74.8 13.57 13.57 0 0 1 1.19 1.79zm0 5.32l1.22-2.32-1-1.84a4.66 4.66 0 0 0-.25-.5c-.15.29-.24.48-.24.49l-1 1.85zm0 5.31l1.22-2.32L-4.17 10l-1.21 2.32zm0 5.33l.25-.49 1-1.86-1.22-2.32-1.21 2.36 1 1.85a2.07 2.07 0 0 0 .18.47zM-3 22.45a14.15 14.15 0 0 1-1.19-1.78 13.41 13.41 0 0 1-1.2 1.8 3.33 3.33 0 0 0 1.11 1.16A6.24 6.24 0 0 0-3 22.45zm1.3 1.27a7 7 0 0 1-1.1-1A6.7 6.7 0 0 1-4 23.84a2.87 2.87 0 0 0 1.19.27 2.43 2.43 0 0 0 1.13-.39zm1.5-1.27a14.15 14.15 0 0 1-1.19-1.78 14.15 14.15 0 0 1-1.19 1.78 6.59 6.59 0 0 0 1.19 1.11A6.59 6.59 0 0 0-.2 22.45zm1.3 1.27a7 7 0 0 1-1.1-1 7 7 0 0 1-1.1 1 2.26 2.26 0 0 0 1.1.34 2.26 2.26 0 0 0 1.1-.34zm1.48-1.27a14.15 14.15 0 0 1-1.19-1.78A14.15 14.15 0 0 1 .2 22.45a6.59 6.59 0 0 0 1.19 1.11 6.59 6.59 0 0 0 1.19-1.11zm1.3 1.27a7 7 0 0 1-1.1-1 7 7 0 0 1-1.1 1 2.26 2.26 0 0 0 1.1.34 2.26 2.26 0 0 0 1.1-.34zm1.47-1.27a14.08 14.08 0 0 1-1.18-1.78A13 13 0 0 1 3 22.45a5.71 5.71 0 0 0 1.19 1.11 6.41 6.41 0 0 0 1.16-1.11z" fill="#0029eb"/></pattern><clipPath id="k"><path d="M548 795l-.15 50.38c-55.57-32.09-90.08-76.45-90.36-125.4l.14-50.37c.28 48.95 34.77 93.3 90.37 125.39z" fill="none"/></clipPath><clipPath id="l"><path d="M548.27 694.28l-.14 50.38c-55.58-32.12-90.09-76.43-90.37-125.34l.15-50.37c.28 49 34.78 93.3 90.36 125.34z" fill="none"/></clipPath><clipPath id="m"><path d="M548.13 744.65L548 795c-55.59-32.1-90.08-76.46-90.38-125.34l.15-50.38c.27 49 34.79 93.29 90.37 125.35z" fill="none"/></clipPath><pattern id="n" data-name="p-5" width="22.24" height="24.72" patternTransform="matrix(4.29 0 0 4.29 85.05 -1772.51)" patternUnits="userSpaceOnUse"><path fill="none" d="M0 0h22.24v24.72H0z"/><path fill="none" d="M0 0h22.24v24.72H0z"/><path fill="none" d="M0 0h22.24v24.72H0z"/><path d="M0 24.72h22.24V0H0z" fill="none"/><path d="M0 24.72h22.24V0H0z" fill="none"/><path d="M16.68 24.72H27.8V0H16.68z" fill="#0066f5"/><path d="M27.8 22.2v.52a5.5 5.5 0 0 1-1.1 1 2.5 2.5 0 0 0 1.1.29v.31a2.7 2.7 0 0 1-1.38-.43 2.78 2.78 0 0 1-1.42.43 2.65 2.65 0 0 1-1.39-.43 2.76 2.76 0 0 1-1.36.43 2.65 2.65 0 0 1-1.39-.43 2.87 2.87 0 0 1-1.39.43h-.07A3.26 3.26 0 0 1 18 24a2.6 2.6 0 0 1-1.3.39v-.31a2.32 2.32 0 0 0 1-.26 3.89 3.89 0 0 1-1-1.1v-.55a15.19 15.19 0 0 0 1.21-1.86c-.21-.38-.33-.65-.35-.7L16.68 18v-.7l1.21-2.3-1.21-2.28V12l1.21-2.25-1.21-2.3v-.7l.86-1.65.35-.7a15.88 15.88 0 0 0-1.21-1.85V2a4.07 4.07 0 0 1 .75-.8l.34-.2a2.33 2.33 0 0 0-1.09-.3V.39a2.78 2.78 0 0 1 1.4.44 2.49 2.49 0 0 1 2.79 0 2.44 2.44 0 0 1 2.76 0 2.44 2.44 0 0 1 2.76 0 2.68 2.68 0 0 1 1.4-.43v.29a2.23 2.23 0 0 0-1.1.32 7 7 0 0 1 1.1 1v.49a15.19 15.19 0 0 0-1.21 1.86c.21.39.33.66.35.7l.86 1.7v.67l-1.21 2.29L27.79 12v.66L26.58 15l1.21 2.32V18l-.86 1.65s-.14.31-.35.69a14.1 14.1 0 0 0 1.21 1.86zm-1.39-6.86l-1.22 2.32 1 1.85a4.66 4.66 0 0 0 .25.5c.15-.29.24-.48.24-.49l1-1.86zM20.85 10l-1.22 2.32 1.22 2.32 1.21-2.32zm1.39 2l1.21-2.28-1.21-2.29L21 9.72zM21 15l1.22 2.32L23.45 15l-1.21-2.28zm2.61-.33l1.21-2.32L23.63 10l-1.22 2.32zm.17.33L25 17.33 26.23 15 25 12.72zM25 12l1.21-2.28L25 7.39l-1.2 2.33zm.86-7s.14-.31.35-.7A16.52 16.52 0 0 0 25 2.51a14.36 14.36 0 0 0-1.21 1.85 5.93 5.93 0 0 1 .34.72L25 6.72zm-2.25-.38l-.25.51-1 1.87 1.22 2.3L24.79 7l-1-1.84a1.42 1.42 0 0 0-.16-.45zm-.17-.33a12.74 12.74 0 0 0-1.2-1.88 14.18 14.18 0 0 0-1.24 2c.21.38.33.65.35.69l.87 1.62.86-1.65.38-.71zm-2.61.35c-.16.29-.24.48-.25.49l-1 1.87 1.22 2.3L22 7l-1-1.86a1.31 1.31 0 0 0-.16-.43zm-.18-.33a14.21 14.21 0 0 0-1.21-1.87 15.27 15.27 0 0 0-1.22 1.86c.21.39.33.66.35.7l.87 1.65L20.3 5a5.63 5.63 0 0 0 .37-.62zm-1.21 3l-1.2 2.41L19.46 12l1.21-2.28zm0 5.3L18.24 15l1.22 2.32L20.67 15zm0 5.31l-.87 1.65s-.14.31-.35.69a12.68 12.68 0 0 0 1.22 1.86 14.1 14.1 0 0 0 1.21-1.86c-.21-.38-.33-.65-.35-.7zm1.39 2c.15-.29.24-.48.24-.49l1-1.86-1.21-2.32-1.22 2.32 1 1.85a2 2 0 0 0 .21.58zm.17.33a12.68 12.68 0 0 0 1.22 1.86 14.1 14.1 0 0 0 1.21-1.86c-.21-.38-.33-.65-.35-.7L22.24 18l-.87 1.65a4.58 4.58 0 0 1-.37.69zm2.63-.25c.15-.29.24-.48.24-.49l1-1.86-1.21-2.32-1.22 2.32 1 1.85a4.29 4.29 0 0 0 .19.5zm.17.33A13.52 13.52 0 0 0 25 22.2a15.19 15.19 0 0 0 1.21-1.86c-.21-.38-.33-.65-.35-.7L25 18l-.87 1.65a4.37 4.37 0 0 1-.33.69zM26.41 10l-1.22 2.32 1.22 2.32 1.21-2.32zm0-5.33a4.52 4.52 0 0 0-.25.49l-1 1.84 1.22 2.32L27.59 7l-1-1.84a1.83 1.83 0 0 0-.18-.46zm-1.19-2.4a14.15 14.15 0 0 1 1.19 1.78 13.07 13.07 0 0 1 1.18-1.78 6.59 6.59 0 0 0-1.18-1.12 6.64 6.64 0 0 0-1.19 1.12zM23.91 1A6.88 6.88 0 0 1 25 2a7 7 0 0 1 1.1-1 2.05 2.05 0 0 0-2.21 0zm-1.44 1.24A12.22 12.22 0 0 1 23.64 4a12.22 12.22 0 0 1 1.17-1.76 6.59 6.59 0 0 0-1.18-1.12 5.87 5.87 0 0 0-1.16 1.12zM21.16 1a7 7 0 0 1 1.1 1 6.41 6.41 0 0 1 1.08-1 2.23 2.23 0 0 0-1.1-.32 2.42 2.42 0 0 0-1.08.32zm-.29.18a6.17 6.17 0 0 0-1.21 1.13 14.15 14.15 0 0 1 1.19 1.78 13 13 0 0 1 1.21-1.81 5.59 5.59 0 0 0-1.19-1.14zM18.36 1a7 7 0 0 1 1.1 1 6.26 6.26 0 0 1 1.12-1 2.44 2.44 0 0 0-1.12-.34 2.26 2.26 0 0 0-1.1.34zm-.29 3.07a13.07 13.07 0 0 1 1.18-1.78 5.5 5.5 0 0 0-1.19-1.12l-.44.31a3.51 3.51 0 0 0-.74.8 14 14 0 0 1 1.19 1.77zm0 5.32l1.21-2.32-1-1.84-.28-.51c-.16.29-.24.48-.25.49l-1 1.85zm0 5.31l1.21-2.32L18.07 10l-1.22 2.32zm0 5.33c.15-.29.24-.48.24-.49l1-1.86-1.21-2.32-1.22 2.36 1 1.85a3.85 3.85 0 0 0 .19.47zm1.18 2.44a13.75 13.75 0 0 1-1.18-1.75 15.64 15.64 0 0 1-1.2 1.8A3.25 3.25 0 0 0 18 23.63a6.08 6.08 0 0 0 1.25-1.18zm1.31 1.25a5.5 5.5 0 0 1-1.1-1 6.7 6.7 0 0 1-1.18 1.14 3 3 0 0 0 1.17.27 2.34 2.34 0 0 0 1.11-.41zM22 22.45a13.07 13.07 0 0 1-1.18-1.78 14.15 14.15 0 0 1-1.19 1.78 6.22 6.22 0 0 0 1.18 1.11A5.71 5.71 0 0 0 22 22.45zm1.31 1.27a5.5 5.5 0 0 1-1.1-1 6.2 6.2 0 0 1-1.11 1 2.05 2.05 0 0 0 2.21 0zm1.47-1.29a13.18 13.18 0 0 1-1.18-1.76 14.15 14.15 0 0 1-1.19 1.78 5.71 5.71 0 0 0 1.19 1.11 6.07 6.07 0 0 0 1.21-1.11zm1.31 1.29a6.08 6.08 0 0 1-1.09-1 6.2 6.2 0 0 1-1.11 1 2 2 0 0 0 2.2 0zm1.47-1.29a13.07 13.07 0 0 1-1.18-1.78 14.15 14.15 0 0 1-1.19 1.78 5.71 5.71 0 0 0 1.19 1.11 6.07 6.07 0 0 0 1.21-1.11z" fill="#0029eb"/><path d="M5.56 24.72h11.12V0H5.56z" fill="#0066f5"/><path d="M5.56.35v23.71l11.12-1.86v.52a6.2 6.2 0 0 1-1.11 1 2.27 2.27 0 0 0 1.11.29v.31a2.65 2.65 0 0 1-1.39-.43 2.87 2.87 0 0 1-1.39.43 2.65 2.65 0 0 1-1.39-.43 2.87 2.87 0 0 1-1.39.43 2.65 2.65 0 0 1-1.39-.43 2.87 2.87 0 0 1-1.39.43h-.05A3.39 3.39 0 0 1 6.86 24a2.6 2.6 0 0 1-1.3.39v-.31a2.32 2.32 0 0 0 1-.26 3.89 3.89 0 0 1-1-1.1v-.55a14.85 14.85 0 0 0 1.21-1.83c-.2-.38-.33-.65-.35-.7L5.56 18v-.67L6.77 15l-1.21-2.28V12l1.21-2.28-1.21-2.33v-.67l.87-1.65s.14-.31.34-.7a14.36 14.36 0 0 0-1.21-1.85V2a5.16 5.16 0 0 1 .75-.8l.34-.2A2.33 2.33 0 0 0 5.56.66V.35A2.74 2.74 0 0 1 7 .79 2.81 2.81 0 0 1 8.35.35a2.65 2.65 0 0 1 1.4.37 2.48 2.48 0 0 1 2.76 0 2.47 2.47 0 0 1 2.78 0 2.65 2.65 0 0 1 1.39-.43V.6a2.32 2.32 0 0 0-1.11.4 6.61 6.61 0 0 1 1.11 1v.49a14.7 14.7 0 0 0-1.22 1.81c.21.39.33.66.35.7l.87 1.73v.67l-1.22 2.32L16.68 12v.66L15.46 15l1.22 2.32V18l-.87 1.65s-.14.31-.35.69a12.68 12.68 0 0 0 1.22 1.86zm9.73 15l-1.22 2.32 1 1.85a4.66 4.66 0 0 0 .25.5c.15-.29.24-.48.24-.49l1-1.86zM9.73 10l-1.22 2.36 1.22 2.36 1.21-2.32zm1.39 2l1.21-2.28-1.21-2.29L9.9 9.72zM9.9 15l1.22 2.32L12.33 15l-1.21-2.28zm2.61-.33l1.21-2.32L12.51 10l-1.22 2.32zm.17.33l1.22 2.32L15.11 15l-1.21-2.28zm1.22-3l1.21-2.28-1.21-2.33-1.22 2.33zm.86-7l.35-.7a14.41 14.41 0 0 0-1.21-1.79 14.36 14.36 0 0 0-1.21 1.85c.21.39.33.67.35.72l.86 1.64zm-2.25-.38c-.15.3-.24.5-.25.51l-1 1.87 1.22 2.3L13.69 7l-1-1.84a1.77 1.77 0 0 0-.18-.45zm-.17-.33a12.74 12.74 0 0 0-1.2-1.88 14 14 0 0 0-1.23 1.9c.2.38.33.65.35.69l.86 1.65.88-1.58a3.57 3.57 0 0 1 .34-.71zm-2.61.35l-.25.49-1 1.87 1.25 2.37 1.21-2.32L10 5.21s-.12-.21-.27-.5zm-.18-.33a14.52 14.52 0 0 0-1.21-1.8 14.1 14.1 0 0 0-1.21 1.86l.35.7.86 1.65.87-1.65s.14-.31.34-.69zm-1.21 3L7.12 9.72 8.34 12l1.21-2.28zm0 5.3L7.12 15l1.22 2.32L9.55 15zm0 5.31l-.87 1.65s-.14.31-.34.69a12.57 12.57 0 0 0 1.21 1.94 14.1 14.1 0 0 0 1.21-1.86c-.2-.38-.33-.65-.35-.7zm1.39 2c.15-.29.24-.48.24-.49l1-1.86-1.24-2.23-1.22 2.32 1 1.85a3.06 3.06 0 0 0 .22.49zm.18.33a12.11 12.11 0 0 0 1.21 1.86 14.1 14.1 0 0 0 1.21-1.86c-.2-.38-.33-.65-.35-.7L11.12 18l-.87 1.65a5.52 5.52 0 0 1-.34.69zm2.6-.33c.15-.29.24-.48.24-.49l1-1.86-1.21-2.32-1.22 2.32 1 1.85a3.93 3.93 0 0 0 .19.58zm.18.33a12.21 12.21 0 0 0 1.21 1.95 14.1 14.1 0 0 0 1.21-1.86c-.21-.38-.33-.65-.35-.7L13.9 18l-.9 1.65a3.55 3.55 0 0 1-.31.69zM15.29 10l-1.22 2.32 1.22 2.32 1.21-2.32zm0-5.33c-.16.29-.24.48-.25.49L14 7l1.22 2.32 1.28-2.27-1-1.84a4.4 4.4 0 0 0-.21-.5zm-1.19-2.4a14.15 14.15 0 0 1 1.19 1.78 13.07 13.07 0 0 1 1.18-1.78 6.59 6.59 0 0 0-1.18-1.12 6.64 6.64 0 0 0-1.19 1.12zM12.8 1a7 7 0 0 1 1.1 1A7 7 0 0 1 15 1a2.26 2.26 0 0 0-1.1-.34 2.16 2.16 0 0 0-1.1.34zm-1.45 1.24A12.22 12.22 0 0 1 12.52 4a12.22 12.22 0 0 1 1.17-1.76 6.59 6.59 0 0 0-1.18-1.12 5.87 5.87 0 0 0-1.16 1.12zM10.05 1a7 7 0 0 1 1.1 1 5.64 5.64 0 0 1 1.07-1 2.23 2.23 0 0 0-1.1-.32 2.38 2.38 0 0 0-1.07.32zm-.3.18a6 6 0 0 0-1.21 1.09 14.15 14.15 0 0 1 1.19 1.78 13.59 13.59 0 0 1 1.21-1.81 5.66 5.66 0 0 0-1.19-1.1zM7.24 1a7 7 0 0 1 1.1 1 6.26 6.26 0 0 1 1.12-1A2.44 2.44 0 0 0 8.34.66a2.26 2.26 0 0 0-1.1.34zM7 4a13.72 13.72 0 0 1 1.13-1.78A6.37 6.37 0 0 0 7 1.15a5.09 5.09 0 0 0-.45.31 3.51 3.51 0 0 0-.74.8A14.26 14.26 0 0 1 7 4.05zm0 5.32L8.16 7l-1-1.84L7 4.72l-.3.49-1 1.85zm0 5.4l1.21-2.32L7 10l-1.27 2.36zM7 20c.15-.29.24-.48.24-.49l1-1.86L7 15.34l-1.27 2.32 1 1.85A4.67 4.67 0 0 0 7 20zm1.18 2.44A14 14 0 0 1 7 20.67a13.41 13.41 0 0 1-1.2 1.8 3.33 3.33 0 0 0 1.11 1.16 5.93 5.93 0 0 0 1.22-1.18zm1.31 1.28a5.5 5.5 0 0 1-1.1-1 6.47 6.47 0 0 1-1.17 1.11 2.9 2.9 0 0 0 1.16.27 2.38 2.38 0 0 0 1.06-.38zM11 22.44a14.37 14.37 0 0 1-1.22-1.78 14.15 14.15 0 0 1-1.19 1.78 5.71 5.71 0 0 0 1.19 1.11 6.54 6.54 0 0 0 1.13-1.1zm1.27 1.28a5.5 5.5 0 0 1-1.1-1 7 7 0 0 1-1.1 1 2.23 2.23 0 0 0 1.1.32 2.3 2.3 0 0 0 1.05-.32zm1.47-1.29a13.07 13.07 0 0 1-1.18-1.78 14.15 14.15 0 0 1-1.19 1.78 5.71 5.71 0 0 0 1.19 1.11 6.54 6.54 0 0 0 1.13-1.1zM15 23.72a5.5 5.5 0 0 1-1.1-1 7 7 0 0 1-1.1 1 2 2 0 0 0 2.2 0zm1.47-1.29a13.07 13.07 0 0 1-1.18-1.78 14.37 14.37 0 0 1-1.19 1.8 5.71 5.71 0 0 0 1.19 1.11 6.22 6.22 0 0 0 1.18-1.11z" fill="#0029eb"/><path d="M-5.56 24.72H5.56V0H-5.56z" fill="#0066f5"/><path d="M5.56 22.2v.52a7 7 0 0 1-1.1 1 2.23 2.23 0 0 0 1.1.29v.31a2.65 2.65 0 0 1-1.39-.43 2.87 2.87 0 0 1-1.39.43 2.87 2.87 0 0 1-1.39-.43 2.76 2.76 0 0 1-1.39.48 2.87 2.87 0 0 1-1.39-.43 2.87 2.87 0 0 1-1.39.43h-.05A3.19 3.19 0 0 1-4.25 24a2.67 2.67 0 0 1-1.31.39v-.31a2.32 2.32 0 0 0 1-.26 3.51 3.51 0 0 1-1-1.1v-.55a14.85 14.85 0 0 0 1.21-1.83c-.2-.38-.33-.65-.35-.7L-5.56 18v-.67L-4.34 15l-1.22-2.28V12l1.22-2.28-1.22-2.3v-.7l.87-1.65s.14-.31.34-.7a12.52 12.52 0 0 0-1.21-1.85V2a4.12 4.12 0 0 1 .76-.8l.33-.2A2.33 2.33 0 0 0-5.56.66V.35a2.69 2.69 0 0 1 1.4.44A2.78 2.78 0 0 1-2.77.35a2.8 2.8 0 0 1 1.41.37A2.7 2.7 0 0 1 0 .35a2.65 2.65 0 0 1 1.39.43A2.65 2.65 0 0 1 2.78.35a2.65 2.65 0 0 1 1.39.43A2.65 2.65 0 0 1 5.56.35v.31a2.16 2.16 0 0 0-1.1.34 7 7 0 0 1 1.1 1v.49a13.68 13.68 0 0 0-1.21 1.88l.35.7.86 1.65v.67L4.34 9.72 5.56 12v.66L4.34 15l1.22 2.32V18l-.87 1.65s-.14.31-.34.69a12.11 12.11 0 0 0 1.21 1.86zm-1.39-6.86L3 17.66l1 1.85a4.66 4.66 0 0 0 .25.5c.15-.29.24-.48.24-.49l1-1.86zM-1.39 10l-1.22 2.32 1.22 2.32 1.22-2.32zM0 12l1.22-2.28L0 7.39l-1.22 2.33zm-1.22 3L0 17.33 1.22 15 0 12.72zm2.61-.33l1.22-2.32L1.39 10 .17 12.36zm.17.33l1.22 2.32L4 15l-1.22-2.28zm1.22-3L4 9.72 2.78 7.39 1.56 9.72zm.87-7s.14-.31.34-.7a14.41 14.41 0 0 0-1.21-1.79 13.31 13.31 0 0 0-1.2 1.85c.2.39.32.67.34.72l.86 1.64zM1.4 4.72c-.16.3-.25.5-.26.51l-1 1.85L1.39 9.4l1.22-2.32-1-1.84a4.71 4.71 0 0 0-.21-.52zm-.18-.33A13.16 13.16 0 0 0 0 2.48a14 14 0 0 0-1.23 1.9c.2.38.33.65.35.69L0 6.72l.87-1.65a4.68 4.68 0 0 1 .35-.71zm-2.61.33c-.15.29-.24.48-.24.49l-1 1.85 1.22 2.32 1.24-2.32-1-1.84a4.46 4.46 0 0 0-.22-.5zm-.18-.33a12.71 12.71 0 0 0-1.21-1.87A12.58 12.58 0 0 0-4 4.37c.2.39.33.66.35.7l.86 1.65.87-1.65a5.58 5.58 0 0 1 .35-.69zm-1.21 3L-4 9.72-2.78 12l1.22-2.28zm0 5.3L-4 15l1.22 2.32L-1.56 15zm0 5.31l-.87 1.65s-.14.31-.34.69a12.61 12.61 0 0 0 1.21 1.86 12.61 12.61 0 0 0 1.21-1.86c-.2-.38-.33-.65-.35-.7zm1.39 2l.25-.49 1-1.86-1.22-2.33-1.22 2.32 1 1.85a1.84 1.84 0 0 0 .19.51zm.18.33A12.71 12.71 0 0 0 0 22.2a12.61 12.61 0 0 0 1.21-1.86c-.2-.38-.33-.65-.35-.7L0 18l-.87 1.65a4.42 4.42 0 0 1-.34.69zm2.6-.33c.15-.29.24-.48.24-.49l1-1.86-1.24-2.31-1.22 2.32 1 1.85a3.06 3.06 0 0 0 .22.49zm.18.33a12.71 12.71 0 0 0 1.21 1.87A15.27 15.27 0 0 0 4 20.34c-.2-.38-.33-.65-.35-.7L2.78 18l-.87 1.65a5.52 5.52 0 0 1-.34.69zM4.17 10L3 12.36l1.22 2.36 1.21-2.32zm0-5.33l-.25.49L3 7.05l1.17 2.32 1.21-2.32-1-1.84a4.4 4.4 0 0 0-.21-.5zM3 2.27a14 14 0 0 1 1.17 1.78 14.08 14.08 0 0 1 1.18-1.78 6.59 6.59 0 0 0-1.18-1.12A6.21 6.21 0 0 0 3 2.27zM1.68 1a7 7 0 0 1 1.1 1 7 7 0 0 1 1.1-1 2.16 2.16 0 0 0-1.1-.34 2.16 2.16 0 0 0-1.1.34zM.23 2.24A12.22 12.22 0 0 1 1.4 4a12 12 0 0 1 1.18-1.73 6.64 6.64 0 0 0-1.19-1.12A6.3 6.3 0 0 0 .23 2.24zM-1.07 1A6.75 6.75 0 0 1 0 2a7 7 0 0 1 1.1-1A2.16 2.16 0 0 0 0 .66 2.25 2.25 0 0 0-1.07 1zm-.3.18a6 6 0 0 0-1.21 1.09 14.15 14.15 0 0 1 1.19 1.78A13.59 13.59 0 0 1-.18 2.24a5.66 5.66 0 0 0-1.19-1.1zM-3.88 1a7 7 0 0 1 1.1 1 7.09 7.09 0 0 1 1.12-1A2.44 2.44 0 0 0-2.78.66a2.26 2.26 0 0 0-1.1.34zm-.29 3.07A13.2 13.2 0 0 1-3 2.27a6.53 6.53 0 0 0-1.17-1.12l-.45.31a4 4 0 0 0-.74.8 13.57 13.57 0 0 1 1.19 1.79zm0 5.32l1.22-2.32-1-1.84a4.66 4.66 0 0 0-.25-.5c-.15.29-.24.48-.24.49l-1 1.85zm0 5.31l1.22-2.32L-4.17 10l-1.21 2.32zm0 5.33l.25-.49 1-1.86-1.22-2.32-1.21 2.36 1 1.85a2.07 2.07 0 0 0 .18.47zM-3 22.45a14.15 14.15 0 0 1-1.19-1.78 13.41 13.41 0 0 1-1.2 1.8 3.33 3.33 0 0 0 1.11 1.16A6.24 6.24 0 0 0-3 22.45zm1.3 1.27a7 7 0 0 1-1.1-1A6.7 6.7 0 0 1-4 23.84a2.87 2.87 0 0 0 1.19.27 2.43 2.43 0 0 0 1.13-.39zm1.5-1.27a14.15 14.15 0 0 1-1.19-1.78 14.15 14.15 0 0 1-1.19 1.78 6.59 6.59 0 0 0 1.19 1.11A6.59 6.59 0 0 0-.2 22.45zm1.3 1.27a7 7 0 0 1-1.1-1 7 7 0 0 1-1.1 1 2.26 2.26 0 0 0 1.1.34 2.26 2.26 0 0 0 1.1-.34zm1.48-1.27a14.15 14.15 0 0 1-1.19-1.78A14.15 14.15 0 0 1 .2 22.45a6.59 6.59 0 0 0 1.19 1.11 6.59 6.59 0 0 0 1.19-1.11zm1.3 1.27a7 7 0 0 1-1.1-1 7 7 0 0 1-1.1 1 2.26 2.26 0 0 0 1.1.34 2.26 2.26 0 0 0 1.1-.34zm1.47-1.27a14.08 14.08 0 0 1-1.18-1.78A13 13 0 0 1 3 22.45a5.71 5.71 0 0 0 1.19 1.11 6.41 6.41 0 0 0 1.16-1.11z" fill="#0029eb"/></pattern><clipPath id="o"><path d="M817.41 501.9l-.15 50.37c-55.58-32.08-90.09-76.45-90.37-125.35l.15-50.37c.3 48.9 34.8 93.26 90.37 125.35z" fill="none"/></clipPath><clipPath id="p"><path d="M817.71 401.18l-.15 50.38c-55.56-32.12-90.09-76.43-90.36-125.35l.14-50.38c.28 49 34.78 93.32 90.37 125.39z" fill="none"/></clipPath><clipPath id="q"><path d="M817.56 451.54l-.14 50.37c-55.58-32.1-90.08-76.46-90.38-125.34l.15-50.37c.28 49 34.79 93.28 90.37 125.39z" fill="none"/></clipPath><pattern id="r" data-name="p-9" width="22.24" height="24.72" patternTransform="matrix(4.29 0 0 4.29 163.87 -1752.46)" patternUnits="userSpaceOnUse"><path fill="none" d="M0 0h22.24v24.72H0z"/><path fill="none" d="M0 0h22.24v24.72H0z"/><path fill="none" d="M0 0h22.24v24.72H0z"/><path d="M0 24.72h22.24V0H0z" fill="none"/><path d="M0 24.72h22.24V0H0z" fill="none"/><path d="M16.68 24.72H27.8V0H16.68z" fill="#0066f5"/><path d="M27.8 22.2v.52a5.5 5.5 0 0 1-1.1 1 2.5 2.5 0 0 0 1.1.29v.31a2.7 2.7 0 0 1-1.38-.43 2.78 2.78 0 0 1-1.42.43 2.65 2.65 0 0 1-1.39-.43 2.76 2.76 0 0 1-1.36.43 2.65 2.65 0 0 1-1.39-.43 2.87 2.87 0 0 1-1.39.43h-.07A3.26 3.26 0 0 1 18 24a2.6 2.6 0 0 1-1.3.39v-.31a2.32 2.32 0 0 0 1-.26 3.89 3.89 0 0 1-1-1.1v-.55a15.19 15.19 0 0 0 1.21-1.86c-.21-.38-.33-.65-.35-.7L16.68 18v-.7l1.21-2.3-1.21-2.28V12l1.21-2.25-1.21-2.3v-.7l.86-1.65.35-.7a15.88 15.88 0 0 0-1.21-1.85V2a4.07 4.07 0 0 1 .75-.8l.34-.2a2.33 2.33 0 0 0-1.09-.3V.39a2.78 2.78 0 0 1 1.4.44 2.49 2.49 0 0 1 2.79 0 2.44 2.44 0 0 1 2.76 0 2.44 2.44 0 0 1 2.76 0 2.68 2.68 0 0 1 1.4-.43v.29a2.23 2.23 0 0 0-1.1.32 7 7 0 0 1 1.1 1v.49a15.19 15.19 0 0 0-1.21 1.86c.21.39.33.66.35.7l.86 1.7v.67l-1.21 2.29L27.79 12v.66L26.58 15l1.21 2.32V18l-.86 1.65s-.14.31-.35.69a14.1 14.1 0 0 0 1.21 1.86zm-1.39-6.86l-1.22 2.32 1 1.85a4.66 4.66 0 0 0 .25.5c.15-.29.24-.48.24-.49l1-1.86zM20.85 10l-1.22 2.32 1.22 2.32 1.21-2.32zm1.39 2l1.21-2.28-1.21-2.29L21 9.72zM21 15l1.22 2.32L23.45 15l-1.21-2.28zm2.61-.33l1.21-2.32L23.63 10l-1.22 2.32zm.17.33L25 17.33 26.23 15 25 12.72zM25 12l1.21-2.28L25 7.39l-1.2 2.33zm.86-7s.14-.31.35-.7A16.52 16.52 0 0 0 25 2.51a14.36 14.36 0 0 0-1.21 1.85 5.93 5.93 0 0 1 .34.72L25 6.72zm-2.25-.38l-.25.51-1 1.87 1.22 2.3L24.79 7l-1-1.84a1.42 1.42 0 0 0-.16-.45zm-.17-.33a12.74 12.74 0 0 0-1.2-1.88 14.18 14.18 0 0 0-1.24 2c.21.38.33.65.35.69l.87 1.62.86-1.65.38-.71zm-2.61.35c-.16.29-.24.48-.25.49l-1 1.87 1.22 2.3L22 7l-1-1.86a1.31 1.31 0 0 0-.16-.43zm-.18-.33a14.21 14.21 0 0 0-1.21-1.87 15.27 15.27 0 0 0-1.22 1.86c.21.39.33.66.35.7l.87 1.65L20.3 5a5.63 5.63 0 0 0 .37-.62zm-1.21 3l-1.2 2.41L19.46 12l1.21-2.28zm0 5.3L18.24 15l1.22 2.32L20.67 15zm0 5.31l-.87 1.65s-.14.31-.35.69a12.68 12.68 0 0 0 1.22 1.86 14.1 14.1 0 0 0 1.21-1.86c-.21-.38-.33-.65-.35-.7zm1.39 2c.15-.29.24-.48.24-.49l1-1.86-1.21-2.32-1.22 2.32 1 1.85a2 2 0 0 0 .21.58zm.17.33a12.68 12.68 0 0 0 1.22 1.86 14.1 14.1 0 0 0 1.21-1.86c-.21-.38-.33-.65-.35-.7L22.24 18l-.87 1.65a4.58 4.58 0 0 1-.37.69zm2.63-.25c.15-.29.24-.48.24-.49l1-1.86-1.21-2.32-1.22 2.32 1 1.85a4.29 4.29 0 0 0 .19.5zm.17.33A13.52 13.52 0 0 0 25 22.2a15.19 15.19 0 0 0 1.21-1.86c-.21-.38-.33-.65-.35-.7L25 18l-.87 1.65a4.37 4.37 0 0 1-.33.69zM26.41 10l-1.22 2.32 1.22 2.32 1.21-2.32zm0-5.33a4.52 4.52 0 0 0-.25.49l-1 1.84 1.22 2.32L27.59 7l-1-1.84a1.83 1.83 0 0 0-.18-.46zm-1.19-2.4a14.15 14.15 0 0 1 1.19 1.78 13.07 13.07 0 0 1 1.18-1.78 6.59 6.59 0 0 0-1.18-1.12 6.64 6.64 0 0 0-1.19 1.12zM23.91 1A6.88 6.88 0 0 1 25 2a7 7 0 0 1 1.1-1 2.05 2.05 0 0 0-2.21 0zm-1.44 1.24A12.22 12.22 0 0 1 23.64 4a12.22 12.22 0 0 1 1.17-1.76 6.59 6.59 0 0 0-1.18-1.12 5.87 5.87 0 0 0-1.16 1.12zM21.16 1a7 7 0 0 1 1.1 1 6.41 6.41 0 0 1 1.08-1 2.23 2.23 0 0 0-1.1-.32 2.42 2.42 0 0 0-1.08.32zm-.29.18a6.17 6.17 0 0 0-1.21 1.13 14.15 14.15 0 0 1 1.19 1.78 13 13 0 0 1 1.21-1.81 5.59 5.59 0 0 0-1.19-1.14zM18.36 1a7 7 0 0 1 1.1 1 6.26 6.26 0 0 1 1.12-1 2.44 2.44 0 0 0-1.12-.34 2.26 2.26 0 0 0-1.1.34zm-.29 3.07a13.07 13.07 0 0 1 1.18-1.78 5.5 5.5 0 0 0-1.19-1.12l-.44.31a3.51 3.51 0 0 0-.74.8 14 14 0 0 1 1.19 1.77zm0 5.32l1.21-2.32-1-1.84-.28-.51c-.16.29-.24.48-.25.49l-1 1.85zm0 5.31l1.21-2.32L18.07 10l-1.22 2.32zm0 5.33c.15-.29.24-.48.24-.49l1-1.86-1.21-2.32-1.22 2.36 1 1.85a3.85 3.85 0 0 0 .19.47zm1.18 2.44a13.75 13.75 0 0 1-1.18-1.75 15.64 15.64 0 0 1-1.2 1.8A3.25 3.25 0 0 0 18 23.63a6.08 6.08 0 0 0 1.25-1.18zm1.31 1.25a5.5 5.5 0 0 1-1.1-1 6.7 6.7 0 0 1-1.18 1.14 3 3 0 0 0 1.17.27 2.34 2.34 0 0 0 1.11-.41zM22 22.45a13.07 13.07 0 0 1-1.18-1.78 14.15 14.15 0 0 1-1.19 1.78 6.22 6.22 0 0 0 1.18 1.11A5.71 5.71 0 0 0 22 22.45zm1.31 1.27a5.5 5.5 0 0 1-1.1-1 6.2 6.2 0 0 1-1.11 1 2.05 2.05 0 0 0 2.21 0zm1.47-1.29a13.18 13.18 0 0 1-1.18-1.76 14.15 14.15 0 0 1-1.19 1.78 5.71 5.71 0 0 0 1.19 1.11 6.07 6.07 0 0 0 1.21-1.11zm1.31 1.29a6.08 6.08 0 0 1-1.09-1 6.2 6.2 0 0 1-1.11 1 2 2 0 0 0 2.2 0zm1.47-1.29a13.07 13.07 0 0 1-1.18-1.78 14.15 14.15 0 0 1-1.19 1.78 5.71 5.71 0 0 0 1.19 1.11 6.07 6.07 0 0 0 1.21-1.11z" fill="#0029eb"/><path d="M5.56 24.72h11.12V0H5.56z" fill="#0066f5"/><path d="M5.56.35v23.71l11.12-1.86v.52a6.2 6.2 0 0 1-1.11 1 2.27 2.27 0 0 0 1.11.29v.31a2.65 2.65 0 0 1-1.39-.43 2.87 2.87 0 0 1-1.39.43 2.65 2.65 0 0 1-1.39-.43 2.87 2.87 0 0 1-1.39.43 2.65 2.65 0 0 1-1.39-.43 2.87 2.87 0 0 1-1.39.43h-.05A3.39 3.39 0 0 1 6.86 24a2.6 2.6 0 0 1-1.3.39v-.31a2.32 2.32 0 0 0 1-.26 3.89 3.89 0 0 1-1-1.1v-.55a14.85 14.85 0 0 0 1.21-1.83c-.2-.38-.33-.65-.35-.7L5.56 18v-.67L6.77 15l-1.21-2.28V12l1.21-2.28-1.21-2.33v-.67l.87-1.65s.14-.31.34-.7a14.36 14.36 0 0 0-1.21-1.85V2a5.16 5.16 0 0 1 .75-.8l.34-.2A2.33 2.33 0 0 0 5.56.66V.35A2.74 2.74 0 0 1 7 .79 2.81 2.81 0 0 1 8.35.35a2.65 2.65 0 0 1 1.4.37 2.48 2.48 0 0 1 2.76 0 2.47 2.47 0 0 1 2.78 0 2.65 2.65 0 0 1 1.39-.43V.6a2.32 2.32 0 0 0-1.11.4 6.61 6.61 0 0 1 1.11 1v.49a14.7 14.7 0 0 0-1.22 1.81c.21.39.33.66.35.7l.87 1.73v.67l-1.22 2.32L16.68 12v.66L15.46 15l1.22 2.32V18l-.87 1.65s-.14.31-.35.69a12.68 12.68 0 0 0 1.22 1.86zm9.73 15l-1.22 2.32 1 1.85a4.66 4.66 0 0 0 .25.5c.15-.29.24-.48.24-.49l1-1.86zM9.73 10l-1.22 2.36 1.22 2.36 1.21-2.32zm1.39 2l1.21-2.28-1.21-2.29L9.9 9.72zM9.9 15l1.22 2.32L12.33 15l-1.21-2.28zm2.61-.33l1.21-2.32L12.51 10l-1.22 2.32zm.17.33l1.22 2.32L15.11 15l-1.21-2.28zm1.22-3l1.21-2.28-1.21-2.33-1.22 2.33zm.86-7l.35-.7a14.41 14.41 0 0 0-1.21-1.79 14.36 14.36 0 0 0-1.21 1.85c.21.39.33.67.35.72l.86 1.64zm-2.25-.38c-.15.3-.24.5-.25.51l-1 1.87 1.22 2.3L13.69 7l-1-1.84a1.77 1.77 0 0 0-.18-.45zm-.17-.33a12.74 12.74 0 0 0-1.2-1.88 14 14 0 0 0-1.23 1.9c.2.38.33.65.35.69l.86 1.65.88-1.58a3.57 3.57 0 0 1 .34-.71zm-2.61.35l-.25.49-1 1.87 1.25 2.37 1.21-2.32L10 5.21s-.12-.21-.27-.5zm-.18-.33a14.52 14.52 0 0 0-1.21-1.8 14.1 14.1 0 0 0-1.21 1.86l.35.7.86 1.65.87-1.65s.14-.31.34-.69zm-1.21 3L7.12 9.72 8.34 12l1.21-2.28zm0 5.3L7.12 15l1.22 2.32L9.55 15zm0 5.31l-.87 1.65s-.14.31-.34.69a12.57 12.57 0 0 0 1.21 1.94 14.1 14.1 0 0 0 1.21-1.86c-.2-.38-.33-.65-.35-.7zm1.39 2c.15-.29.24-.48.24-.49l1-1.86-1.24-2.23-1.22 2.32 1 1.85a3.06 3.06 0 0 0 .22.49zm.18.33a12.11 12.11 0 0 0 1.21 1.86 14.1 14.1 0 0 0 1.21-1.86c-.2-.38-.33-.65-.35-.7L11.12 18l-.87 1.65a5.52 5.52 0 0 1-.34.69zm2.6-.33c.15-.29.24-.48.24-.49l1-1.86-1.21-2.32-1.22 2.32 1 1.85a3.93 3.93 0 0 0 .19.58zm.18.33a12.21 12.21 0 0 0 1.21 1.95 14.1 14.1 0 0 0 1.21-1.86c-.21-.38-.33-.65-.35-.7L13.9 18l-.9 1.65a3.55 3.55 0 0 1-.31.69zM15.29 10l-1.22 2.32 1.22 2.32 1.21-2.32zm0-5.33c-.16.29-.24.48-.25.49L14 7l1.22 2.32 1.28-2.27-1-1.84a4.4 4.4 0 0 0-.21-.5zm-1.19-2.4a14.15 14.15 0 0 1 1.19 1.78 13.07 13.07 0 0 1 1.18-1.78 6.59 6.59 0 0 0-1.18-1.12 6.64 6.64 0 0 0-1.19 1.12zM12.8 1a7 7 0 0 1 1.1 1A7 7 0 0 1 15 1a2.26 2.26 0 0 0-1.1-.34 2.16 2.16 0 0 0-1.1.34zm-1.45 1.24A12.22 12.22 0 0 1 12.52 4a12.22 12.22 0 0 1 1.17-1.76 6.59 6.59 0 0 0-1.18-1.12 5.87 5.87 0 0 0-1.16 1.12zM10.05 1a7 7 0 0 1 1.1 1 5.64 5.64 0 0 1 1.07-1 2.23 2.23 0 0 0-1.1-.32 2.38 2.38 0 0 0-1.07.32zm-.3.18a6 6 0 0 0-1.21 1.09 14.15 14.15 0 0 1 1.19 1.78 13.59 13.59 0 0 1 1.21-1.81 5.66 5.66 0 0 0-1.19-1.1zM7.24 1a7 7 0 0 1 1.1 1 6.26 6.26 0 0 1 1.12-1A2.44 2.44 0 0 0 8.34.66a2.26 2.26 0 0 0-1.1.34zM7 4a13.72 13.72 0 0 1 1.13-1.78A6.37 6.37 0 0 0 7 1.15a5.09 5.09 0 0 0-.45.31 3.51 3.51 0 0 0-.74.8A14.26 14.26 0 0 1 7 4.05zm0 5.32L8.16 7l-1-1.84L7 4.72l-.3.49-1 1.85zm0 5.4l1.21-2.32L7 10l-1.27 2.36zM7 20c.15-.29.24-.48.24-.49l1-1.86L7 15.34l-1.27 2.32 1 1.85A4.67 4.67 0 0 0 7 20zm1.18 2.44A14 14 0 0 1 7 20.67a13.41 13.41 0 0 1-1.2 1.8 3.33 3.33 0 0 0 1.11 1.16 5.93 5.93 0 0 0 1.22-1.18zm1.31 1.28a5.5 5.5 0 0 1-1.1-1 6.47 6.47 0 0 1-1.17 1.11 2.9 2.9 0 0 0 1.16.27 2.38 2.38 0 0 0 1.06-.38zM11 22.44a14.37 14.37 0 0 1-1.22-1.78 14.15 14.15 0 0 1-1.19 1.78 5.71 5.71 0 0 0 1.19 1.11 6.54 6.54 0 0 0 1.13-1.1zm1.27 1.28a5.5 5.5 0 0 1-1.1-1 7 7 0 0 1-1.1 1 2.23 2.23 0 0 0 1.1.32 2.3 2.3 0 0 0 1.05-.32zm1.47-1.29a13.07 13.07 0 0 1-1.18-1.78 14.15 14.15 0 0 1-1.19 1.78 5.71 5.71 0 0 0 1.19 1.11 6.54 6.54 0 0 0 1.13-1.1zM15 23.72a5.5 5.5 0 0 1-1.1-1 7 7 0 0 1-1.1 1 2 2 0 0 0 2.2 0zm1.47-1.29a13.07 13.07 0 0 1-1.18-1.78 14.37 14.37 0 0 1-1.19 1.8 5.71 5.71 0 0 0 1.19 1.11 6.22 6.22 0 0 0 1.18-1.11z" fill="#0029eb"/><path d="M-5.56 24.72H5.56V0H-5.56z" fill="#0066f5"/><path d="M5.56 22.2v.52a7 7 0 0 1-1.1 1 2.23 2.23 0 0 0 1.1.29v.31a2.65 2.65 0 0 1-1.39-.43 2.87 2.87 0 0 1-1.39.43 2.87 2.87 0 0 1-1.39-.43 2.76 2.76 0 0 1-1.39.48 2.87 2.87 0 0 1-1.39-.43 2.87 2.87 0 0 1-1.39.43h-.05A3.19 3.19 0 0 1-4.25 24a2.67 2.67 0 0 1-1.31.39v-.31a2.32 2.32 0 0 0 1-.26 3.51 3.51 0 0 1-1-1.1v-.55a14.85 14.85 0 0 0 1.21-1.83c-.2-.38-.33-.65-.35-.7L-5.56 18v-.67L-4.34 15l-1.22-2.28V12l1.22-2.28-1.22-2.3v-.7l.87-1.65s.14-.31.34-.7a12.52 12.52 0 0 0-1.21-1.85V2a4.12 4.12 0 0 1 .76-.8l.33-.2A2.33 2.33 0 0 0-5.56.66V.35a2.69 2.69 0 0 1 1.4.44A2.78 2.78 0 0 1-2.77.35a2.8 2.8 0 0 1 1.41.37A2.7 2.7 0 0 1 0 .35a2.65 2.65 0 0 1 1.39.43A2.65 2.65 0 0 1 2.78.35a2.65 2.65 0 0 1 1.39.43A2.65 2.65 0 0 1 5.56.35v.31a2.16 2.16 0 0 0-1.1.34 7 7 0 0 1 1.1 1v.49a13.68 13.68 0 0 0-1.21 1.88l.35.7.86 1.65v.67L4.34 9.72 5.56 12v.66L4.34 15l1.22 2.32V18l-.87 1.65s-.14.31-.34.69a12.11 12.11 0 0 0 1.21 1.86zm-1.39-6.86L3 17.66l1 1.85a4.66 4.66 0 0 0 .25.5c.15-.29.24-.48.24-.49l1-1.86zM-1.39 10l-1.22 2.32 1.22 2.32 1.22-2.32zM0 12l1.22-2.28L0 7.39l-1.22 2.33zm-1.22 3L0 17.33 1.22 15 0 12.72zm2.61-.33l1.22-2.32L1.39 10 .17 12.36zm.17.33l1.22 2.32L4 15l-1.22-2.28zm1.22-3L4 9.72 2.78 7.39 1.56 9.72zm.87-7s.14-.31.34-.7a14.41 14.41 0 0 0-1.21-1.79 13.31 13.31 0 0 0-1.2 1.85c.2.39.32.67.34.72l.86 1.64zM1.4 4.72c-.16.3-.25.5-.26.51l-1 1.85L1.39 9.4l1.22-2.32-1-1.84a4.71 4.71 0 0 0-.21-.52zm-.18-.33A13.16 13.16 0 0 0 0 2.48a14 14 0 0 0-1.23 1.9c.2.38.33.65.35.69L0 6.72l.87-1.65a4.68 4.68 0 0 1 .35-.71zm-2.61.33c-.15.29-.24.48-.24.49l-1 1.85 1.22 2.32 1.24-2.32-1-1.84a4.46 4.46 0 0 0-.22-.5zm-.18-.33a12.71 12.71 0 0 0-1.21-1.87A12.58 12.58 0 0 0-4 4.37c.2.39.33.66.35.7l.86 1.65.87-1.65a5.58 5.58 0 0 1 .35-.69zm-1.21 3L-4 9.72-2.78 12l1.22-2.28zm0 5.3L-4 15l1.22 2.32L-1.56 15zm0 5.31l-.87 1.65s-.14.31-.34.69a12.61 12.61 0 0 0 1.21 1.86 12.61 12.61 0 0 0 1.21-1.86c-.2-.38-.33-.65-.35-.7zm1.39 2l.25-.49 1-1.86-1.22-2.33-1.22 2.32 1 1.85a1.84 1.84 0 0 0 .19.51zm.18.33A12.71 12.71 0 0 0 0 22.2a12.61 12.61 0 0 0 1.21-1.86c-.2-.38-.33-.65-.35-.7L0 18l-.87 1.65a4.42 4.42 0 0 1-.34.69zm2.6-.33c.15-.29.24-.48.24-.49l1-1.86-1.24-2.31-1.22 2.32 1 1.85a3.06 3.06 0 0 0 .22.49zm.18.33a12.71 12.71 0 0 0 1.21 1.87A15.27 15.27 0 0 0 4 20.34c-.2-.38-.33-.65-.35-.7L2.78 18l-.87 1.65a5.52 5.52 0 0 1-.34.69zM4.17 10L3 12.36l1.22 2.36 1.21-2.32zm0-5.33l-.25.49L3 7.05l1.17 2.32 1.21-2.32-1-1.84a4.4 4.4 0 0 0-.21-.5zM3 2.27a14 14 0 0 1 1.17 1.78 14.08 14.08 0 0 1 1.18-1.78 6.59 6.59 0 0 0-1.18-1.12A6.21 6.21 0 0 0 3 2.27zM1.68 1a7 7 0 0 1 1.1 1 7 7 0 0 1 1.1-1 2.16 2.16 0 0 0-1.1-.34 2.16 2.16 0 0 0-1.1.34zM.23 2.24A12.22 12.22 0 0 1 1.4 4a12 12 0 0 1 1.18-1.73 6.64 6.64 0 0 0-1.19-1.12A6.3 6.3 0 0 0 .23 2.24zM-1.07 1A6.75 6.75 0 0 1 0 2a7 7 0 0 1 1.1-1A2.16 2.16 0 0 0 0 .66 2.25 2.25 0 0 0-1.07 1zm-.3.18a6 6 0 0 0-1.21 1.09 14.15 14.15 0 0 1 1.19 1.78A13.59 13.59 0 0 1-.18 2.24a5.66 5.66 0 0 0-1.19-1.1zM-3.88 1a7 7 0 0 1 1.1 1 7.09 7.09 0 0 1 1.12-1A2.44 2.44 0 0 0-2.78.66a2.26 2.26 0 0 0-1.1.34zm-.29 3.07A13.2 13.2 0 0 1-3 2.27a6.53 6.53 0 0 0-1.17-1.12l-.45.31a4 4 0 0 0-.74.8 13.57 13.57 0 0 1 1.19 1.79zm0 5.32l1.22-2.32-1-1.84a4.66 4.66 0 0 0-.25-.5c-.15.29-.24.48-.24.49l-1 1.85zm0 5.31l1.22-2.32L-4.17 10l-1.21 2.32zm0 5.33l.25-.49 1-1.86-1.22-2.32-1.21 2.36 1 1.85a2.07 2.07 0 0 0 .18.47zM-3 22.45a14.15 14.15 0 0 1-1.19-1.78 13.41 13.41 0 0 1-1.2 1.8 3.33 3.33 0 0 0 1.11 1.16A6.24 6.24 0 0 0-3 22.45zm1.3 1.27a7 7 0 0 1-1.1-1A6.7 6.7 0 0 1-4 23.84a2.87 2.87 0 0 0 1.19.27 2.43 2.43 0 0 0 1.13-.39zm1.5-1.27a14.15 14.15 0 0 1-1.19-1.78 14.15 14.15 0 0 1-1.19 1.78 6.59 6.59 0 0 0 1.19 1.11A6.59 6.59 0 0 0-.2 22.45zm1.3 1.27a7 7 0 0 1-1.1-1 7 7 0 0 1-1.1 1 2.26 2.26 0 0 0 1.1.34 2.26 2.26 0 0 0 1.1-.34zm1.48-1.27a14.15 14.15 0 0 1-1.19-1.78A14.15 14.15 0 0 1 .2 22.45a6.59 6.59 0 0 0 1.19 1.11 6.59 6.59 0 0 0 1.19-1.11zm1.3 1.27a7 7 0 0 1-1.1-1 7 7 0 0 1-1.1 1 2.26 2.26 0 0 0 1.1.34 2.26 2.26 0 0 0 1.1-.34zm1.47-1.27a14.08 14.08 0 0 1-1.18-1.78A13 13 0 0 1 3 22.45a5.71 5.71 0 0 0 1.19 1.11 6.41 6.41 0 0 0 1.16-1.11z" fill="#0029eb"/></pattern></defs><g clip-path="url(#a)"><path d="M315.07 631.92L99.29 757.26C43.71 725.17 9.2 680.84 8.93 631.92z" fill="url(#b)"/><path d="M258.87 635.22l14-7.61 7.28 13.39-14 7.6zM212.68 631.28l14.8-5.83 5.59 14.17-14.84 5.84z" fill="none"/><path d="M230.28 640.7a3.06 3.06 0 0 1-2.19 0l-12.63-4.92a3 3 0 1 1 2.08-5.64h.11l12.62 4.94a3 3 0 0 1 0 5.61z" fill="#81bff2"/><path d="M199.75 701.66l7.56-14 13.42 7.24-7.56 14zM255.19 694.7l6.81-13.6 14.23 7.16-6.87 13.61zM304.44 655.44l7.4-14.11 13.5 7.07-7.41 14.12z" fill="none"/><path d="M328 572.94a3 3 0 0 1-1.66 1.43l-12.78 4.48a3 3 0 0 1-2.1-5.63h.1l12.77-4.48a3 3 0 0 1 3.84 1.79 2.94 2.94 0 0 1-.17 2.41z" fill="#fff"/><path d="M197.8 747.28l9.61-11.81 12.37 10.06-9.62 11.85zM256.63 743.87l11.22-11.34 10.83 10.75-11.22 11.33z" fill="none"/><path d="M278.5 691.24a3.06 3.06 0 0 1 2-.9l13.53-.58a3 3 0 0 1 .26 6l-13.53.58a3 3 0 0 1-2.26-5.12z" fill="#58cc58"/><path d="M333 611.82a3.08 3.08 0 0 1 2-.9l13.53-.58a3 3 0 1 1 .26 6l-13.53.59a3 3 0 0 1-2.26-5.12z" fill="#81bff2"/><path d="M318.79 729.75l15.93-.83.81 15.22-15.93.86z" fill="none"/><path d="M316.35 690.33a3.07 3.07 0 0 1-2.08-.7l-10.4-8.63a3 3 0 0 1 3.7-4.74l.15.12 10.41 8.62a3 3 0 0 1-1.79 5.32z" fill="#81bff2"/><path d="M376.32 702.83l15.42-4 3.76 14.76-15.4 4z" fill="none"/><path d="M335.26 669a3 3 0 0 1-2.18-.26l-11.91-6.46A3 3 0 0 1 324 657l12 6.44a3 3 0 0 1-.75 5.53zM202.49 716.42a3 3 0 0 1-2 .89l-13.53.46a3 3 0 0 1-.23-6l13.53-.47a3 3 0 0 1 3.14 2.85 3 3 0 0 1-.89 2.27z" fill="#81bff2"/><path d="M314.74 541.84l-.13 50.37L98.84 717.55l.16-50.37 215.75-125.34z" fill="#fff5cc"/><g clip-path="url(#c)"><path d="M99 667.21l-.14 50.37C43.32 685.49 8.81 641.14 8.54 592.19l.15-50.38c.27 49 34.77 93.31 90.34 125.4" fill="#f9d5b4"/></g><path d="M314.74 541.84L99 667.18C43.49 635.09 9 590.74 8.68 541.84z" fill="#81bff2"/><path d="M315.07 441.12l-29.73 47.12L99.19 616.86l.14-50.38L315.1 441.14z" fill="#207cf4"/><path d="M99.33 566.49l-.14 50.37C43.61 584.75 9.1 540.44 8.82 491.46L9 441.08c.24 49.04 34.76 93.36 90.33 125.41z" fill="#207cf4"/><g clip-path="url(#d)"><path d="M99.33 566.49l-.14 50.37C43.61 584.75 9.1 540.44 8.82 491.46L9 441.08c.28 49 34.8 93.31 90.37 125.35" fill="#207cf4"/></g><path d="M9 438.37c0 .9 0 1.84.06 2.75H9c.28 49 34.8 93.29 90.37 125.35L315.1 441.12v-2.74z" fill="#207cf4"/><path d="M314.92 491.46l-.18 50.39L99 667.2l.14-50.37 215.75-125.35z" fill="#bce5f7"/><g clip-path="url(#e)"><path d="M99.19 616.86L99 667.23C43.46 635.12 9 590.77 8.68 541.84l.13-50.38c.29 49 34.79 93.29 90.38 125.35" fill="#f9d5b4"/></g><path d="M315 491.46L99.19 616.81C43.6 584.75 9.1 540.45 8.81 491.46z" fill="#207cf4"/><path d="M99.4 616.15l-.4 52.29C36.91 632.28 8.17 587.69 8.76 538.77l.28-48c-.61 49 33.83 91.52 88.86 124.62" fill="#e1f6ff"/><path d="M102 539.74l-2.8-3.32-49.63-61.07-34.52-17.52L14 464l-5-22.85L8.85 489c0 6.17.75 18.34 2.32 24.31 1.08 4.12 7-2.17 7.36-6.56v15.3c0 8.68 2.47 19.7 7.17 27.06l.32.5c3.82 6 13 1.26 13.53-5.73v5.52c0 12.08 5 25.22 13.72 33.51 6.73 6.36 17.77 0 17.74-9.26L71 556.14l.09 17.91a44.55 44.55 0 0 0 20.21 37 16.13 16.13 0 0 0 8.06 2.63l1.44-46.4.9-2.2z" fill="#003783"/><path d="M315.07 438.38L99.29 563.73C43.71 531.67 9.2 487.34 8.93 438.37z" fill="url(#f)"/><path d="M121.93 469.08c-.16-.33-.34-.66-.53-1a6.16 6.16 0 0 0-.24-.41l-.07-.1-.28-.43-.23-.35c-.07-.09-.12-.18-.19-.26l-.11-.14-.24-.32-.11-.12s-.07-.08-.1-.12l-.36-.42c-.14-.16-.29-.33-.45-.48l-.52-.55a16.68 16.68 0 0 0-3-2.26h-.1a.09.09 0 0 0-.08 0 16.51 16.51 0 0 0-6-2.09l-.75-.08h-1a16.65 16.65 0 0 0-8.6 2.05 21 21 0 0 0-2.6 1.79l-.26.22-.1.1-.47.44a18 18 0 0 0-1.54 1.71 18.2 18.2 0 0 0-1.22 1.79c-.12.21-.24.42-.34.63l-.09.16c-.21.44-.41.9-.57 1.26s-.19.47-.26.7a18.15 18.15 0 0 0-.9 5.27v.2c0 .29.05.57.06.85a3.89 3.89 0 0 0 .12.49 1.23 1.23 0 0 0 .1.42 1.49 1.49 0 0 0 .2.49 2 2 0 0 0 .16.4l.28.48c.1.16.14.27.23.4l.37.48c.13.16.18.25.29.37l.48.49.33.33c.19.17.42.34.63.51l.32.26c.35.26.72.5 1.11.76 6.38 3.8 16.85 3.92 23.42.23a11.36 11.36 0 0 0 1.15-.75 3.24 3.24 0 0 0 .35-.27c.12-.09.47-.33.66-.5a3.76 3.76 0 0 0 .35-.34l.51-.48c.11-.12.21-.24.31-.37a5.6 5.6 0 0 0 .39-.49 4.25 4.25 0 0 0 .25-.39 4.94 4.94 0 0 0 .3-.49 1.92 1.92 0 0 0 .19-.41 4.25 4.25 0 0 0 .21-.49 3.31 3.31 0 0 0 .12-.42 3.28 3.28 0 0 0 .18-.92 2.09 2.09 0 0 0 0-.5v-.06a17.66 17.66 0 0 0-1.7-7.35zm193.14-27.94l-.15 50.32L99.15 616.81l.14-50.37 215.78-125.35z" fill="#e1f6ff"/><path d="M314.74 541.84l-.13 50.37L98.84 717.55l.16-50.37 215.75-125.34z" fill="#81bff2"/><path d="M99 667.21l-.14 50.37C43.32 685.49 8.81 641.14 8.54 592.19l.15-50.38c.27 49 34.77 93.31 90.34 125.4" fill="#bce5f7"/><path d="M236 509.71l-11.64 8.88a3.25 3.25 0 0 0 3.81 5.27l.12-.09 11.71-8.84a3.26 3.26 0 0 0-3.52-5.49l-.18.14-.23.16z" fill="#f7b66d"/><path d="M139.32 571.88a3.24 3.24 0 0 0 4.48-.75l8.54-11.94a3.25 3.25 0 0 0-5.26-3.76l-8.52 11.91a3.26 3.26 0 0 0 .75 4.48z" fill="#ffe65c"/><path d="M240.14 553.39l-12.34-7.91a3.25 3.25 0 1 0-3.5 5.48l12.34 7.9a3.25 3.25 0 0 0 3.5-5.47z" fill="#fff"/><path d="M191.05 567.35l-13.13 6.49a3.25 3.25 0 0 0 2.88 5.82l13.08-6.48a3.26 3.26 0 1 0-2.73-5.92l-.18.09z" fill="#0066f5"/><path d="M172 603.81a3.25 3.25 0 0 0-6.48.55V604.78a.54.54 0 0 0 0 .18v.09l2.85 14.32a3.25 3.25 0 1 0 6.37-1.27z" fill="#fff"/><path d="M257.9 568.73l-11.85 8.6a3.25 3.25 0 1 0 3.82 5.26l11.85-8.6a3.25 3.25 0 0 0-3.72-5.33z" fill="#0066f5"/><path d="M159.13 641.44l-14.62.75a3.26 3.26 0 0 0 0 6.51h.29l14.63-.75a3.26 3.26 0 0 0-.34-6.5z" fill="#81bff2"/><path d="M236.37 592.76l-9.63 11a3.25 3.25 0 1 0 4.67 4.53l.19-.21 9.65-11a3.25 3.25 0 1 0-4.9-4.28z" fill="#fff"/><path d="M315.07 438.38L99.29 563.73l-.13 50 2.44-1.5v-47.08L315 441.1z" fill="#0066f5"/><path d="M249.55 676.48a3 3 0 0 1-1.68 1.41l-12.81 4.36a3 3 0 0 1-2.06-5.65h.14l12.86-4.36a3 3 0 0 1 3.81 1.89 3 3 0 0 1-.26 2.35z" fill="#f7b66d"/><path d="M266.21 670.46a3.09 3.09 0 0 1-1.46-1.64l-4.67-12.61a3 3 0 1 1 5.65-2.1l4.7 12.71a3 3 0 0 1-4.19 3.76z" fill="#81bff2"/><path d="M531.52 248.71l14-7.61 7.27 13.42-14 7.61zM485.31 244.77l14.77-5.84 5.6 14.16-14.82 5.91z" fill="none"/><path d="M502.93 254.2a3 3 0 0 1-2.19 0l-12.62-4.9a3 3 0 0 1 2.17-5.62l12.63 4.95a3 3 0 0 1 1.71 3.9 3.15 3.15 0 0 1-1.71 1.71z" fill="#81bff2"/><path d="M472.4 279.33l7.59-14 13.43 7.24-7.56 14zM527.83 272.37l6.85-13.62 14.24 7.16L542 279.5zM577.08 268.93l7.4-14.12 13.52 7.07-7.44 14.12z" fill="none"/><path d="M600.66 186.38a3 3 0 0 1-1.67 1.43l-12.77 4.48a3 3 0 0 1-2.12-5.63h.14l12.76-4.48a3 3 0 0 1 3.67 4.2z" fill="#fff"/><path d="M551.16 268.91a3 3 0 0 1 2-.89l13.54-.58a3 3 0 1 1 .25 6l-13.53.58a3 3 0 0 1-3.12-2.87 3 3 0 0 1 .89-2.23z" fill="#58cc58"/><path d="M605.65 189.49a3.06 3.06 0 0 1 2-.9l13.55-.59a3 3 0 0 1 .25 6l-13.53.58a3 3 0 0 1-3.12-2.89 3 3 0 0 1 .89-2.23zM589 268a3 3 0 0 1-2.08-.69l-10.41-8.62a3 3 0 0 1 3.86-4.61l10.4 8.67a3 3 0 0 1-1.79 5.31zM607.91 246.63a3.06 3.06 0 0 1-2.18-.27l-11.91-6.48a3 3 0 0 1 2.86-5.27l12 6.46a3 3 0 0 1-.75 5.53zM475.13 294.09a3 3 0 0 1-2 .89l-13.53.47a3 3 0 1 1-.2-6l13.53-.46a3 3 0 0 1 2.26 5.14z" fill="#81bff2"/><path d="M587.43 155.32l-.14 50.37L371.52 331l.14-50.38 215.77-125.31z" fill="#fff5cc"/><g clip-path="url(#g)"><path d="M371.69 280.7l-.15 50.37C316 299 281.46 254.62 281.18 205.67l.14-50.37c.3 48.95 34.79 93.31 90.37 125.4" fill="#f9d5b4"/></g><path d="M587.43 155.32L371.65 280.67c-55.51-32.09-90-76.44-90.33-125.35z" fill="#81bff2"/><path d="M587.71 54.61L558 101.72 371.84 230.34 372 180 587.76 54.62z" fill="#207cf4"/><path d="M372 180l-.14 50.37c-55.58-32.11-90.09-76.42-90.37-125.35l.15-50.41c.27 49 34.78 93.31 90.36 125.35z" fill="#207cf4"/><g clip-path="url(#h)"><path d="M372 180l-.14 50.37c-55.58-32.11-90.09-76.42-90.37-125.35l.15-50.41c.27 49 34.78 93.29 90.36 125.35" fill="#207cf4"/></g><path d="M281.62 51.86c0 .89 0 1.83.05 2.76h-.05c.27 49 34.78 93.29 90.36 125.34L587.76 54.62v-2.76z" fill="#207cf4"/><path d="M587.58 105l-.14 50.37-215.78 125.31.14-50.37L587.58 105z" fill="#bce5f7"/><g clip-path="url(#i)"><path d="M371.84 230.34l-.14 50.37c-55.59-32.1-90.08-76.46-90.38-125.34l.15-50.37c.27 49 34.79 93.28 90.37 125.39" fill="#f9d5b4"/></g><path d="M587.61 105L371.84 230.31c-55.58-32.11-90.1-76.42-90.37-125.35z" fill="#207cf4"/><path d="M372.05 229.63l-.36 52.37c-62.12-36.16-90.86-80.75-90.29-129.68l.29-48c-.6 49 33.83 91.53 88.87 124.63" fill="#e1f6ff"/><path d="M374.64 153.22l-2.8-3.31-49.63-61.09-34.5-17.51-1 6.17-5.06-22.86-.13 47.88c0 6.16.75 18.33 2.34 24.31 1.07 4.11 7-2.17 7.36-6.57v15.3c0 8.69 2.46 19.69 7.16 27.06l.31.5c3.84 6 13 1.27 13.54-5.73v5.51c0 12.09 4.95 25.23 13.73 33.52 6.72 6.35 17.76 0 17.73-9.27l-.06-17.51.11 17.91a44.52 44.52 0 0 0 20.2 37 16.07 16.07 0 0 0 8 2.63l1.44-46.41.89-2.2z" fill="#003783"/><path d="M587.71 51.86L371.94 177.2c-55.57-32-90.08-76.38-90.32-125.34z" fill="url(#j)"/><path d="M394.58 82.55c-.17-.34-.34-.67-.53-1-.07-.13-.16-.27-.25-.41l-.05-.1-.29-.44-.23-.34L393 80l-.11-.14-.24-.31-.11-.12c0-.05-.07-.09-.09-.13l-.37-.42-.45-.48-.52-.54a16.61 16.61 0 0 0-2.95-2.26h-.1l-.08-.06a16.52 16.52 0 0 0-6-2.07l-.76-.08h-1a16.63 16.63 0 0 0-8.62 2.08 20.31 20.31 0 0 0-2.6 1.79l-.27.23-.1.1a6.17 6.17 0 0 0-.46.43 15.06 15.06 0 0 0-1.59 1.79 16.61 16.61 0 0 0-1.22 1.79c-.13.21-.24.42-.35.63l-.08.16c-.22.43-.41.9-.58 1.27s-.18.46-.25.69a18.21 18.21 0 0 0-.9 5.27v.21c0 .28.05.56.07.89a2.68 2.68 0 0 0 .11.49 2.13 2.13 0 0 0 .1.42 2.26 2.26 0 0 0 .19.49c.05.13.11.27.17.4s.19.33.29.48.14.27.22.4l.38.48c.14.16.18.24.29.37s.31.32.47.48l.33.33c.19.18.42.35.64.52a2.6 2.6 0 0 0 .32.26c.35.25.72.49 1.1.75 6.39 3.81 16.86 3.92 23.42.24a11 11 0 0 0 1.16-.76l.35-.26.66-.51a2.24 2.24 0 0 0 .35-.34c.11-.1.35-.31.51-.47a2.79 2.79 0 0 0 .3-.38l.4-.48a4.07 4.07 0 0 0 .25-.39 3.5 3.5 0 0 0 .29-.49 2 2 0 0 0 .19-.42 3 3 0 0 0 .22-.48 3.25 3.25 0 0 0 .11-.42 4.6 4.6 0 0 0 .13-.5v-.42a1.47 1.47 0 0 0 0-.51v-.06a17.61 17.61 0 0 0-1.7-7.34zm193.13-27.94l-.13 50.39L371.8 230.32l.15-50.38L587.72 54.6z" fill="#e1f6ff"/><path d="M587.43 155.32l-.14 50.37L371.52 331l.14-50.38 215.77-125.31z" fill="#81bff2"/><path d="M371.69 280.7l-.15 50.37C316 299 281.46 254.62 281.18 205.67l.14-50.37c.3 48.95 34.79 93.31 90.37 125.4" fill="#bce5f7"/><path d="M508.67 123.2L497 132.07a3.25 3.25 0 1 0 3.94 5.18l11.64-8.84a3.26 3.26 0 0 0-3.51-5.48l-.19.12-.22.17z" fill="#f7b66d"/><path d="M412 185.37a3.24 3.24 0 0 0 4.47-.75l8.55-12a3.25 3.25 0 0 0-5.27-3.76l-8.52 11.92a3.26 3.26 0 0 0 .75 4.48z" fill="#ffe65c"/><path d="M512.79 166.87L500.45 159a3.26 3.26 0 0 0-3.51 5.48l12.34 7.89a3.25 3.25 0 0 0 3.58-5.42z" fill="#fff"/><path d="M463.69 180.84l-13.12 6.51a3.25 3.25 0 1 0 2.89 5.83l13.11-6.51a3.26 3.26 0 0 0-2.92-5.83z" fill="#0066f5"/><path d="M444.57 217.3a3.25 3.25 0 0 0-6.48.55V218.53L441 232.9a3.25 3.25 0 1 0 6.37-1.27zM159.72 338.08a3.26 3.26 0 0 0-6.39 1.26l2.85 14.37a3.37 3.37 0 0 0 1.29 2A3.25 3.25 0 0 0 162 355a3.29 3.29 0 0 0 .56-2.49z" fill="#fff"/><path d="M530.52 182.21l-11.82 8.6a3.25 3.25 0 0 0 3.81 5.27l11.87-8.61a3.25 3.25 0 1 0-3.83-5.26z" fill="#0066f5"/><path d="M431.78 254.92l-14.63.75a3.26 3.26 0 0 0 0 6.52h.3l14.63-.75a3.26 3.26 0 0 0-.33-6.5z" fill="#81bff2"/><path d="M509 206.25l-9.63 11a3.25 3.25 0 1 0 4.86 4.31l9.64-11a3.25 3.25 0 0 0-4.76-4.43l-.13.15z" fill="#fff"/><path d="M587.71 51.86L371.94 177.2l-.14 50 2.46-1.51v-47.05l213.42-124.1z" fill="#0066f5"/><path d="M522.2 254.15a3 3 0 0 1-1.67 1.41l-12.83 4.35a3 3 0 0 1-2.38-5.52 2.85 2.85 0 0 1 .31-.12h.13l12.83-4.36a3 3 0 0 1 3.79 1.93 3 3 0 0 1-.21 2.35z" fill="#f7b66d"/><path d="M538.86 248.13a3.05 3.05 0 0 1-1.46-1.64l-4.67-12.65a3 3 0 0 1 5.58-2.25l.06.17 4.68 12.7a3 3 0 0 1-4.18 3.76z" fill="#81bff2"/><path d="M661.6 759.07l14.79-5.83 5.61 14.17-14.83 5.87z" fill="none"/><path d="M679.22 768.49a3 3 0 0 1-2.19 0l-12.62-4.92a3 3 0 1 1 2-5.68l.21.08 12.63 4.94a3 3 0 0 1 0 5.61z" fill="#81bff2"/><path d="M777 700.69a3 3 0 0 1-1.67 1.43l-12.77 4.47a3 3 0 0 1-2.12-5.63h.1l12.79-4.47a3 3 0 0 1 3.67 4.23z" fill="#fff"/><path d="M782 703.79a3 3 0 0 1 2-.89l13.54-.58a3 3 0 1 1 .46 6h-.21l-13.53.58a3 3 0 0 1-2.26-5.12zM784.2 761a3 3 0 0 1-2.18-.27l-11.91-6.45A3 3 0 0 1 773 749l12 6.45a3 3 0 0 1-.75 5.53z" fill="#81bff2"/><path d="M763.72 669.64l-.14 50.36-215.77 125.35L548 795l215.75-125.36z" fill="#fff5cc"/><g clip-path="url(#k)"><path d="M548 795l-.15 50.38c-55.57-32.09-90.08-76.45-90.36-125.4l.14-50.37c.3 48.95 34.79 93.3 90.37 125.35" fill="#f9d5b4"/></g><path d="M763.72 669.64L547.94 795c-55.51-32.09-90-76.44-90.33-125.34z" fill="#81bff2"/><path d="M764 568.91L734.29 616 548.13 744.65l.14-50.38 215.78-125.34z" fill="#207cf4"/><path d="M548.27 694.28l-.14 50.38c-55.58-32.12-90.09-76.43-90.37-125.34l.15-50.37c.28 49 34.78 93.3 90.36 125.34z" fill="#207cf4"/><g clip-path="url(#l)"><path d="M548.27 694.28l-.14 50.38c-55.58-32.12-90.09-76.43-90.37-125.34l.15-50.37c.28 49 34.78 93.29 90.36 125.34" fill="#207cf4"/></g><path d="M457.91 566.16v2.75c.28 49 34.78 93.29 90.36 125.35l215.78-125.35v-2.75z" fill="#207cf4"/><path d="M763.87 619.27l-.14 50.37L548 795l.14-50.37 215.73-125.37z" fill="#bce5f7"/><g clip-path="url(#m)"><path d="M548.13 744.65L548 795c-55.59-32.1-90.08-76.46-90.38-125.34l.15-50.38c.27 49 34.79 93.29 90.37 125.35" fill="#f9d5b4"/></g><path d="M763.9 619.27L548.13 744.62c-55.58-32.11-90.1-76.41-90.37-125.35z" fill="#207cf4"/><path d="M548.34 744l-.34 52.24c-62.12-36.18-90.88-80.75-90.29-129.68l.31-48c-.6 49 33.83 91.53 88.87 124.62" fill="#e1f6ff"/><path d="M550.93 667.53l-2.8-3.31-49.63-61.1-34.5-17.5-1 6.17-5.06-22.85-.13 47.87c0 6.17.75 18.34 2.34 24.31 1.07 4.12 7-2.17 7.36-6.56v15.29c0 8.69 2.46 19.7 7.16 27.06l.31.5c3.84 6 13 1.26 13.54-5.73v5.52c0 12.08 4.95 25.22 13.73 33.51 6.72 6.36 17.76 0 17.73-9.25l-.09-17.5.1 17.91a44.53 44.53 0 0 0 20.2 37 16.33 16.33 0 0 0 8.06 2.63l1.43-46.42.9-2.2z" fill="#003783"/><path d="M764 566.17L548.23 691.52c-55.57-32.09-90.08-76.42-90.36-125.35z" fill="url(#n)"/><path d="M570.87 596.85c-.17-.33-.34-.66-.53-1a3.45 3.45 0 0 0-.25-.41l-.05-.1-.29-.44-.23-.35-.19-.26-.11-.13-.24-.33-.11-.12c0-.05-.07-.08-.09-.12l-.37-.42-.45-.48-.52-.55a16 16 0 0 0-3-2.24l-.1-.06-.08-.05a16.74 16.74 0 0 0-6-2.09l-.75-.08h-1.06a16.73 16.73 0 0 0-8.62 2.09 20 20 0 0 0-2.6 1.79l-.26.22-.1.1c-.16.13-.32.29-.47.44a15.06 15.06 0 0 0-1.59 1.79 16.61 16.61 0 0 0-1.22 1.79c-.12.21-.24.42-.35.63l-.08.16c-.21.44-.41.89-.57 1.26s-.19.47-.26.7a18.09 18.09 0 0 0-.9 5.26v.21c0 .29.06.56.07.85a3.88 3.88 0 0 0 .11.49 3.66 3.66 0 0 0 .3.9 3.29 3.29 0 0 0 .17.39c.06.13.19.33.28.49s.14.26.23.39l.37.48c.14.16.18.25.29.37l.48.49.33.33c.18.17.42.34.63.52l.32.25c.35.26.72.5 1.11.76 6.38 3.8 16.85 3.92 23.41.23a12.76 12.76 0 0 0 1.16-.75 3.24 3.24 0 0 0 .35-.27c.12-.09.46-.33.66-.5a3.76 3.76 0 0 0 .35-.34c.11-.11.35-.31.51-.48a2.69 2.69 0 0 0 .3-.37c.1-.12.28-.32.4-.49a3.45 3.45 0 0 0 .25-.38 5.09 5.09 0 0 0 .3-.5c.07-.13.13-.27.19-.41a4.25 4.25 0 0 0 .21-.49 3.31 3.31 0 0 0 .12-.42 4.37 4.37 0 0 0 .12-.49v-.43a1.66 1.66 0 0 0 .12-.42v-.07a17.66 17.66 0 0 0-1.7-7.35zM764 568.91l-.13 50.37-215.78 125.35.15-50.37L764 568.91z" fill="#e1f6ff"/><path d="M763.72 669.64l-.14 50.36-215.77 125.35L548 795l215.75-125.36z" fill="#81bff2"/><path d="M548 795l-.15 50.38c-55.57-32.09-90.08-76.45-90.36-125.4l.14-50.37c.3 48.95 34.79 93.3 90.37 125.35" fill="#bce5f7"/><path d="M685 637.5l-11.64 8.88a3.25 3.25 0 0 0 3.93 5.18l11.63-8.84a3.25 3.25 0 1 0-3.5-5.48l-.19.13-.23.16z" fill="#f7b66d"/><path d="M588.27 699.68a3.25 3.25 0 0 0 4.47-.75l8.55-11.93a3.25 3.25 0 0 0-5.27-3.76l-8.52 11.91a3.26 3.26 0 0 0 .75 4.48z" fill="#ffe65c"/><path d="M689.08 681.18l-12.34-7.91a3.26 3.26 0 0 0-3.51 5.49l12.34 7.89a3.25 3.25 0 1 0 3.58-5.43z" fill="#fff"/><path d="M640 695.14l-13.12 6.51a3.25 3.25 0 0 0 2.89 5.83l13.09-6.48a3.22 3.22 0 0 0 1.59-1.79 3.26 3.26 0 0 0-4.48-4.06zM706.85 696.5L695 705.09a3.25 3.25 0 0 0 3.82 5.27l11.86-8.6a3.25 3.25 0 0 0-3.82-5.26z" fill="#0066f5"/><path d="M608.07 769.23l-14.63.75a3.26 3.26 0 0 0 0 6.51h.3l14.63-.75a3.26 3.26 0 0 0-.33-6.5z" fill="#81bff2"/><path d="M685.31 720.55l-9.63 11a3.25 3.25 0 0 0 4.86 4.32l9.64-11a3.25 3.25 0 0 0-4.89-4.28z" fill="#fff"/><path d="M764 566.17L548.23 691.52l-.14 50 2.46-1.5v-47.11L764 568.89z" fill="#0066f5"/><path d="M715.15 762.44a3.09 3.09 0 0 1-1.46-1.64L709 748.16a3 3 0 0 1 5.64-2.1l4.71 12.71a3 3 0 0 1-4.18 3.76z" fill="#81bff2"/><path d="M918.13 500.53l7.58-14 13.43 7.25-7.56 14z" fill="none"/><path d="M920.86 515.29a3 3 0 0 1-2 .89l-13.53.46a3 3 0 1 1-.2-6l13.53-.46a3 3 0 0 1 3.15 2.87 3.05 3.05 0 0 1-.89 2.27z" fill="#81bff2"/><path d="M1033.15 376.52l-.14 50.37-215.77 125.35.14-50.37 215.78-125.35z" fill="#fff5cc"/><g clip-path="url(#o)"><path d="M817.41 501.9l-.15 50.37c-55.58-32.08-90.09-76.45-90.37-125.35l.15-50.37c.29 48.95 34.79 93.3 90.36 125.35" fill="#f9d5b4"/></g><path d="M1033.15 376.52L817.37 501.87c-55.51-32.09-90-76.44-90.33-125.35z" fill="#81bff2"/><path d="M1033.44 275.81l-29.72 47.12-186.16 128.61.15-50.37 215.77-125.35z" fill="#207cf4"/><path d="M817.71 401.18l-.15 50.38c-55.56-32.12-90.09-76.43-90.36-125.35l.14-50.38c.28 49 34.78 93.32 90.37 125.39z" fill="#207cf4"/><g clip-path="url(#p)"><path d="M817.71 401.18l-.15 50.38c-55.56-32.12-90.09-76.43-90.36-125.35l.14-50.38c.28 49 34.78 93.31 90.37 125.35" fill="#207cf4"/></g><path d="M727.34 273.06v2.75c.28 49 34.78 93.29 90.37 125.34l215.77-125.34v-2.72z" fill="#207cf4"/><path d="M1033.3 326.17l-.14 50.37-215.78 125.35.15-50.37z" fill="#bce5f7"/><g clip-path="url(#q)"><path d="M817.56 451.54l-.14 50.37c-55.58-32.1-90.08-76.46-90.38-125.34l.15-50.37c.28 49 34.79 93.28 90.37 125.39" fill="#f9d5b4"/></g><path d="M1033.34 326.17L817.56 451.52c-55.58-32.11-90.09-76.41-90.37-125.35z" fill="#207cf4"/><path d="M817.78 450.83l-.37 52.27c-62.12-36.16-90.86-80.75-90.29-129.68l.29-48c-.6 49 33.84 91.52 88.87 124.62" fill="#e1f6ff"/><path d="M820.36 374.43l-2.8-3.32L767.93 310l-34.5-17.51-1 6.17-5.06-22.85-.13 47.87c0 6.17.76 18.33 2.34 24.31 1.08 4.11 7-2.17 7.36-6.57v15.3c0 8.69 2.46 19.7 7.16 27.07l.32.49c3.83 6 13 1.27 13.53-5.73v5.53c0 12.08 5 25.22 13.73 33.51 6.72 6.36 17.76 0 17.74-9.26l-.07-17.52.11 17.91a44.52 44.52 0 0 0 20.16 37.06 16.24 16.24 0 0 0 8.06 2.64l1.4-46.42.9-2.2z" fill="#003783"/><path d="M1033.44 273.07L817.66 398.41c-55.57-32.09-90.08-76.41-90.36-125.34z" fill="url(#r)"/><path d="M840.3 303.75c-.17-.33-.34-.66-.52-1-.08-.14-.17-.28-.26-.42v-.1l-.29-.43-.23-.35-.19-.26-.1-.14-.25-.32-.11-.12c0-.05-.06-.09-.09-.12l-.37-.42c-.14-.16-.29-.33-.45-.49l-.52-.54a16.61 16.61 0 0 0-3-2.26h-.1a.24.24 0 0 0-.08-.06 16.73 16.73 0 0 0-6-2.08l-.75-.08h-1a16.63 16.63 0 0 0-8.62 2.08 21 21 0 0 0-2.6 1.79l-.26.23-.1.1a4.81 4.81 0 0 0-.47.44 15.06 15.06 0 0 0-1.64 1.8 15.68 15.68 0 0 0-1.22 1.79c-.13.2-.24.42-.35.62l-.08.16c-.21.44-.41.9-.57 1.27s-.19.46-.26.69a18.21 18.21 0 0 0-.9 5.27v.2c0 .28.06.56.07.89a3.88 3.88 0 0 0 .11.49 2.13 2.13 0 0 0 .1.42 1.87 1.87 0 0 0 .2.49 2 2 0 0 0 .17.4 5.33 5.33 0 0 0 .28.49c.1.16.14.26.23.39l.37.48c.14.16.18.25.29.37l.47.49.34.33c.18.17.42.34.63.52l.32.25c.35.26.72.5 1.1.75 6.39 3.81 16.86 3.93 23.42.24a11 11 0 0 0 1.16-.76c.13-.08.23-.17.35-.26s.46-.34.66-.51a2.73 2.73 0 0 0 .35-.33l.51-.48a3.47 3.47 0 0 0 .3-.37c.1-.12.28-.32.4-.49a3.45 3.45 0 0 0 .25-.38 5.09 5.09 0 0 0 .3-.5c.07-.13.13-.27.19-.41a4.25 4.25 0 0 0 .21-.49 3.31 3.31 0 0 0 .12-.42 4.37 4.37 0 0 0 .12-.49 1.24 1.24 0 0 1 0-.43 2.09 2.09 0 0 0 0-.5v-.06a18 18 0 0 0-1.7-7.35zm193.14-27.94l-.14 50.37-215.77 125.34.14-50.37 215.77-125.34z" fill="#e1f6ff"/><path d="M1033.15 376.52l-.14 50.37-215.77 125.35.14-50.37 215.78-125.35z" fill="#81bff2"/><path d="M817.41 501.9l-.15 50.37c-55.58-32.08-90.09-76.45-90.37-125.35l.15-50.37c.29 48.95 34.79 93.3 90.36 125.35" fill="#bce5f7"/><path d="M857.7 406.57a3.25 3.25 0 0 0 4.48-.75l8.54-11.95a3.25 3.25 0 0 0-5.27-3.76L856.93 402a3.27 3.27 0 0 0 .75 4.48z" fill="#ffe65c"/><path d="M909.41 402l-13.12 6.51a3.25 3.25 0 0 0 2.89 5.83l13.11-6.51a3.22 3.22 0 0 0 1.59-1.79 3.26 3.26 0 0 0-4.47-4.07z" fill="#0066f5"/><path d="M890.32 416.11a3.25 3.25 0 0 0-6.48.56V417.35l2.86 14.32a3.25 3.25 0 1 0 6.37-1.27zM605.44 536.89a3.26 3.26 0 0 0-6.38 1.27l2.84 14.37a3.31 3.31 0 0 0 1.29 2 3.24 3.24 0 0 0 5-3.25z" fill="#fff"/><path d="M877.5 476.13l-14.63.75a3.26 3.26 0 0 0 0 6.51h.3l14.63-.75a3.26 3.26 0 0 0-.33-6.5z" fill="#81bff2"/><path d="M1033.44 273.07L817.66 398.41l-.13 50.08L820 447v-47.16l213.42-124z" fill="#0066f5"/></g></svg>