<svg data-name="Layer 1" xmlns="http://www.w3.org/2000/svg" viewBox="0 0 1572.788 1348.715"><defs><clipPath id="a"><path fill="none" d="M324.941 0h325.942v297.191H324.941z"/></clipPath><clipPath id="b"><path fill="none" d="M-.5 0h325.942v297.191H-.5z"/></clipPath><clipPath id="c"><path fill="none" d="M324.41 0h325.441v297.191H324.41z"/></clipPath><clipPath id="d"><path fill="none" d="M-.516 0h325.441v297.191H-.516z"/></clipPath><clipPath id="e"><path fill="none" d="M140.923 0L94.782 87.846h72.001L166.769 0h-25.846z"/></clipPath><clipPath id="f"><path fill="none" d="M140.923 0H36.615l45.539 45.231v42.615h12.628L140.923 0z"/></clipPath><clipPath id="g"><path fill="none" d="M0 0v87.846h82.154V45.231L36.615 0H0z"/></clipPath><clipPath id="h"><path fill="none" d="M25.86 175.692l46.141-87.846H0l.013 87.846H25.86z"/></clipPath><clipPath id="i"><path fill="none" d="M25.86 175.692h104.307l-45.538-45.077V87.846H72.001L25.86 175.692z"/></clipPath><clipPath id="j"><path fill="none" d="M166.783 175.692V87.846H84.629v42.769l45.538 45.077h36.616z"/></clipPath><pattern id="k" data-name="New Pattern Swatch 2" width="325.441" height="297.191" patternTransform="scale(2.73393 -2.73393) rotate(59.838 15158.674 6194.695)" patternUnits="userSpaceOnUse"><path fill="none" d="M0 0h325.441v297.191H0z"/><g clip-path="url(#a)"><path fill="none" stroke="#ede2ef" stroke-miterlimit="10" stroke-width=".5" d="M325.191 0v297.191"/></g><g clip-path="url(#b)" fill="none" stroke="#ede2ef" stroke-miterlimit="10" stroke-width=".5"><path d="M-.25 0v297.191M1.823 0v297.191M3.896 0v297.191M5.969 0v297.191M8.041 0v297.191M10.114 0v297.191M12.187 0v297.191M14.26 0v297.191M16.333 0v297.191M18.406 0v297.191M20.479 0v297.191M22.552 0v297.191M24.624 0v297.191M26.697 0v297.191M28.77 0v297.191M30.843 0v297.191M32.916 0v297.191M34.989 0v297.191M37.062 0v297.191M39.134 0v297.191M41.207 0v297.191M43.28 0v297.191M45.353 0v297.191M47.426 0v297.191M49.499 0v297.191M51.572 0v297.191M53.645 0v297.191M55.717 0v297.191M57.79 0v297.191M59.863 0v297.191M61.936 0v297.191M64.009 0v297.191M66.082 0v297.191M68.155 0v297.191M70.228 0v297.191M72.3 0v297.191M74.373 0v297.191M76.446 0v297.191M78.519 0v297.191M80.592 0v297.191M82.665 0v297.191M84.738 0v297.191M86.811 0v297.191M88.883 0v297.191M90.956 0v297.191M93.029 0v297.191M95.102 0v297.191M97.175 0v297.191M99.248 0v297.191M101.321 0v297.191M103.394 0v297.191M105.466 0v297.191M107.539 0v297.191M109.612 0v297.191M111.685 0v297.191M113.758 0v297.191M115.831 0v297.191M117.904 0v297.191M119.977 0v297.191M122.049 0v297.191M124.122 0v297.191M126.195 0v297.191M128.268 0v297.191M130.341 0v297.191M132.414 0v297.191M134.487 0v297.191M136.559 0v297.191M138.632 0v297.191M140.705 0v297.191M142.778 0v297.191M144.851 0v297.191M146.924 0v297.191M148.997 0v297.191M151.07 0v297.191M153.142 0v297.191M155.215 0v297.191M157.288 0v297.191M159.361 0v297.191M161.434 0v297.191M163.507 0v297.191M165.58 0v297.191M167.653 0v297.191M169.725 0v297.191M171.798 0v297.191M173.871 0v297.191M175.944 0v297.191M178.017 0v297.191M180.09 0v297.191M182.163 0v297.191M184.236 0v297.191M186.308 0v297.191M188.381 0v297.191M190.454 0v297.191M192.527 0v297.191M194.6 0v297.191M196.673 0v297.191M198.746 0v297.191M200.819 0v297.191M202.891 0v297.191M204.964 0v297.191M207.037 0v297.191M209.11 0v297.191M211.183 0v297.191M213.256 0v297.191M215.329 0v297.191M217.401 0v297.191M219.474 0v297.191M221.547 0v297.191M223.62 0v297.191M225.693 0v297.191M227.766 0v297.191M229.839 0v297.191M231.912 0v297.191M233.984 0v297.191M236.057 0v297.191M238.13 0v297.191M240.203 0v297.191M242.276 0v297.191M244.349 0v297.191M246.422 0v297.191M248.495 0v297.191M250.567 0v297.191M252.64 0v297.191M254.713 0v297.191M256.786 0v297.191M258.859 0v297.191M260.932 0v297.191M263.005 0v297.191M265.078 0v297.191M267.15 0v297.191M269.223 0v297.191M271.296 0v297.191M273.369 0v297.191M275.442 0v297.191M277.515 0v297.191M279.588 0v297.191M281.661 0v297.191M283.733 0v297.191M285.806 0v297.191M287.879 0v297.191M289.952 0v297.191M292.025 0v297.191M294.098 0v297.191M296.171 0v297.191M298.244 0v297.191M300.316 0v297.191M302.389 0v297.191M304.462 0v297.191M306.535 0v297.191M308.608 0v297.191M310.681 0v297.191M312.754 0v297.191M314.827 0v297.191M316.899 0v297.191M318.972 0v297.191M321.045 0v297.191M323.118 0v297.191M325.191 0v297.191"/></g></pattern><pattern id="l" data-name="New Pattern Swatch 2" width="325.441" height="297.191" patternTransform="rotate(-120.162 -11622.628 25388.999) scale(2.73393)" patternUnits="userSpaceOnUse"><path fill="none" d="M0 0h325.441v297.191H0z"/><g clip-path="url(#a)"><path fill="none" stroke="#ede2ef" stroke-miterlimit="10" stroke-width=".5" d="M325.191 0v297.191"/></g><g clip-path="url(#b)" fill="none" stroke="#ede2ef" stroke-miterlimit="10" stroke-width=".5"><path d="M-.25 0v297.191M1.823 0v297.191M3.896 0v297.191M5.969 0v297.191M8.041 0v297.191M10.114 0v297.191M12.187 0v297.191M14.26 0v297.191M16.333 0v297.191M18.406 0v297.191M20.479 0v297.191M22.552 0v297.191M24.624 0v297.191M26.697 0v297.191M28.77 0v297.191M30.843 0v297.191M32.916 0v297.191M34.989 0v297.191M37.062 0v297.191M39.134 0v297.191M41.207 0v297.191M43.28 0v297.191M45.353 0v297.191M47.426 0v297.191M49.499 0v297.191M51.572 0v297.191M53.645 0v297.191M55.717 0v297.191M57.79 0v297.191M59.863 0v297.191M61.936 0v297.191M64.009 0v297.191M66.082 0v297.191M68.155 0v297.191M70.228 0v297.191M72.3 0v297.191M74.373 0v297.191M76.446 0v297.191M78.519 0v297.191M80.592 0v297.191M82.665 0v297.191M84.738 0v297.191M86.811 0v297.191M88.883 0v297.191M90.956 0v297.191M93.029 0v297.191M95.102 0v297.191M97.175 0v297.191M99.248 0v297.191M101.321 0v297.191M103.394 0v297.191M105.466 0v297.191M107.539 0v297.191M109.612 0v297.191M111.685 0v297.191M113.758 0v297.191M115.831 0v297.191M117.904 0v297.191M119.977 0v297.191M122.049 0v297.191M124.122 0v297.191M126.195 0v297.191M128.268 0v297.191M130.341 0v297.191M132.414 0v297.191M134.487 0v297.191M136.559 0v297.191M138.632 0v297.191M140.705 0v297.191M142.778 0v297.191M144.851 0v297.191M146.924 0v297.191M148.997 0v297.191M151.07 0v297.191M153.142 0v297.191M155.215 0v297.191M157.288 0v297.191M159.361 0v297.191M161.434 0v297.191M163.507 0v297.191M165.58 0v297.191M167.653 0v297.191M169.725 0v297.191M171.798 0v297.191M173.871 0v297.191M175.944 0v297.191M178.017 0v297.191M180.09 0v297.191M182.163 0v297.191M184.236 0v297.191M186.308 0v297.191M188.381 0v297.191M190.454 0v297.191M192.527 0v297.191M194.6 0v297.191M196.673 0v297.191M198.746 0v297.191M200.819 0v297.191M202.891 0v297.191M204.964 0v297.191M207.037 0v297.191M209.11 0v297.191M211.183 0v297.191M213.256 0v297.191M215.329 0v297.191M217.401 0v297.191M219.474 0v297.191M221.547 0v297.191M223.62 0v297.191M225.693 0v297.191M227.766 0v297.191M229.839 0v297.191M231.912 0v297.191M233.984 0v297.191M236.057 0v297.191M238.13 0v297.191M240.203 0v297.191M242.276 0v297.191M244.349 0v297.191M246.422 0v297.191M248.495 0v297.191M250.567 0v297.191M252.64 0v297.191M254.713 0v297.191M256.786 0v297.191M258.859 0v297.191M260.932 0v297.191M263.005 0v297.191M265.078 0v297.191M267.15 0v297.191M269.223 0v297.191M271.296 0v297.191M273.369 0v297.191M275.442 0v297.191M277.515 0v297.191M279.588 0v297.191M281.661 0v297.191M283.733 0v297.191M285.806 0v297.191M287.879 0v297.191M289.952 0v297.191M292.025 0v297.191M294.098 0v297.191M296.171 0v297.191M298.244 0v297.191M300.316 0v297.191M302.389 0v297.191M304.462 0v297.191M306.535 0v297.191M308.608 0v297.191M310.681 0v297.191M312.754 0v297.191M314.827 0v297.191M316.899 0v297.191M318.972 0v297.191M321.045 0v297.191M323.118 0v297.191M325.191 0v297.191"/></g></pattern><pattern id="m" data-name="New Pattern Swatch 2" width="325.441" height="297.191" patternTransform="matrix(2.73392 .00775 .00775 -2.73392 -8526.496 46451.888)" patternUnits="userSpaceOnUse"><path fill="none" d="M0 0h325.441v297.191H0z"/><g clip-path="url(#a)"><path fill="none" stroke="#ede2ef" stroke-miterlimit="10" stroke-width=".5" d="M325.191 0v297.191"/></g><g clip-path="url(#b)" fill="none" stroke="#ede2ef" stroke-miterlimit="10" stroke-width=".5"><path d="M-.25 0v297.191M1.823 0v297.191M3.896 0v297.191M5.969 0v297.191M8.041 0v297.191M10.114 0v297.191M12.187 0v297.191M14.26 0v297.191M16.333 0v297.191M18.406 0v297.191M20.479 0v297.191M22.552 0v297.191M24.624 0v297.191M26.697 0v297.191M28.77 0v297.191M30.843 0v297.191M32.916 0v297.191M34.989 0v297.191M37.062 0v297.191M39.134 0v297.191M41.207 0v297.191M43.28 0v297.191M45.353 0v297.191M47.426 0v297.191M49.499 0v297.191M51.572 0v297.191M53.645 0v297.191M55.717 0v297.191M57.79 0v297.191M59.863 0v297.191M61.936 0v297.191M64.009 0v297.191M66.082 0v297.191M68.155 0v297.191M70.228 0v297.191M72.3 0v297.191M74.373 0v297.191M76.446 0v297.191M78.519 0v297.191M80.592 0v297.191M82.665 0v297.191M84.738 0v297.191M86.811 0v297.191M88.883 0v297.191M90.956 0v297.191M93.029 0v297.191M95.102 0v297.191M97.175 0v297.191M99.248 0v297.191M101.321 0v297.191M103.394 0v297.191M105.466 0v297.191M107.539 0v297.191M109.612 0v297.191M111.685 0v297.191M113.758 0v297.191M115.831 0v297.191M117.904 0v297.191M119.977 0v297.191M122.049 0v297.191M124.122 0v297.191M126.195 0v297.191M128.268 0v297.191M130.341 0v297.191M132.414 0v297.191M134.487 0v297.191M136.559 0v297.191M138.632 0v297.191M140.705 0v297.191M142.778 0v297.191M144.851 0v297.191M146.924 0v297.191M148.997 0v297.191M151.07 0v297.191M153.142 0v297.191M155.215 0v297.191M157.288 0v297.191M159.361 0v297.191M161.434 0v297.191M163.507 0v297.191M165.58 0v297.191M167.653 0v297.191M169.725 0v297.191M171.798 0v297.191M173.871 0v297.191M175.944 0v297.191M178.017 0v297.191M180.09 0v297.191M182.163 0v297.191M184.236 0v297.191M186.308 0v297.191M188.381 0v297.191M190.454 0v297.191M192.527 0v297.191M194.6 0v297.191M196.673 0v297.191M198.746 0v297.191M200.819 0v297.191M202.891 0v297.191M204.964 0v297.191M207.037 0v297.191M209.11 0v297.191M211.183 0v297.191M213.256 0v297.191M215.329 0v297.191M217.401 0v297.191M219.474 0v297.191M221.547 0v297.191M223.62 0v297.191M225.693 0v297.191M227.766 0v297.191M229.839 0v297.191M231.912 0v297.191M233.984 0v297.191M236.057 0v297.191M238.13 0v297.191M240.203 0v297.191M242.276 0v297.191M244.349 0v297.191M246.422 0v297.191M248.495 0v297.191M250.567 0v297.191M252.64 0v297.191M254.713 0v297.191M256.786 0v297.191M258.859 0v297.191M260.932 0v297.191M263.005 0v297.191M265.078 0v297.191M267.15 0v297.191M269.223 0v297.191M271.296 0v297.191M273.369 0v297.191M275.442 0v297.191M277.515 0v297.191M279.588 0v297.191M281.661 0v297.191M283.733 0v297.191M285.806 0v297.191M287.879 0v297.191M289.952 0v297.191M292.025 0v297.191M294.098 0v297.191M296.171 0v297.191M298.244 0v297.191M300.316 0v297.191M302.389 0v297.191M304.462 0v297.191M306.535 0v297.191M308.608 0v297.191M310.681 0v297.191M312.754 0v297.191M314.827 0v297.191M316.899 0v297.191M318.972 0v297.191M321.045 0v297.191M323.118 0v297.191M325.191 0v297.191"/></g></pattern><pattern id="n" data-name="New Pattern Swatch 2" width="325.441" height="297.191" patternTransform="matrix(5.372 .01523 .01523 -5.372 -15078.242 90529.991)" patternUnits="userSpaceOnUse"><path fill="none" d="M0 0h325.441v297.191H0z"/><g clip-path="url(#a)"><path fill="none" stroke="#ede2ef" stroke-miterlimit="10" stroke-width=".5" d="M325.191 0v297.191"/></g><g clip-path="url(#b)" fill="none" stroke="#ede2ef" stroke-miterlimit="10" stroke-width=".5"><path d="M-.25 0v297.191M1.823 0v297.191M3.896 0v297.191M5.969 0v297.191M8.041 0v297.191M10.114 0v297.191M12.187 0v297.191M14.26 0v297.191M16.333 0v297.191M18.406 0v297.191M20.479 0v297.191M22.552 0v297.191M24.624 0v297.191M26.697 0v297.191M28.77 0v297.191M30.843 0v297.191M32.916 0v297.191M34.989 0v297.191M37.062 0v297.191M39.134 0v297.191M41.207 0v297.191M43.28 0v297.191M45.353 0v297.191M47.426 0v297.191M49.499 0v297.191M51.572 0v297.191M53.645 0v297.191M55.717 0v297.191M57.79 0v297.191M59.863 0v297.191M61.936 0v297.191M64.009 0v297.191M66.082 0v297.191M68.155 0v297.191M70.228 0v297.191M72.3 0v297.191M74.373 0v297.191M76.446 0v297.191M78.519 0v297.191M80.592 0v297.191M82.665 0v297.191M84.738 0v297.191M86.811 0v297.191M88.883 0v297.191M90.956 0v297.191M93.029 0v297.191M95.102 0v297.191M97.175 0v297.191M99.248 0v297.191M101.321 0v297.191M103.394 0v297.191M105.466 0v297.191M107.539 0v297.191M109.612 0v297.191M111.685 0v297.191M113.758 0v297.191M115.831 0v297.191M117.904 0v297.191M119.977 0v297.191M122.049 0v297.191M124.122 0v297.191M126.195 0v297.191M128.268 0v297.191M130.341 0v297.191M132.414 0v297.191M134.487 0v297.191M136.559 0v297.191M138.632 0v297.191M140.705 0v297.191M142.778 0v297.191M144.851 0v297.191M146.924 0v297.191M148.997 0v297.191M151.07 0v297.191M153.142 0v297.191M155.215 0v297.191M157.288 0v297.191M159.361 0v297.191M161.434 0v297.191M163.507 0v297.191M165.58 0v297.191M167.653 0v297.191M169.725 0v297.191M171.798 0v297.191M173.871 0v297.191M175.944 0v297.191M178.017 0v297.191M180.09 0v297.191M182.163 0v297.191M184.236 0v297.191M186.308 0v297.191M188.381 0v297.191M190.454 0v297.191M192.527 0v297.191M194.6 0v297.191M196.673 0v297.191M198.746 0v297.191M200.819 0v297.191M202.891 0v297.191M204.964 0v297.191M207.037 0v297.191M209.11 0v297.191M211.183 0v297.191M213.256 0v297.191M215.329 0v297.191M217.401 0v297.191M219.474 0v297.191M221.547 0v297.191M223.62 0v297.191M225.693 0v297.191M227.766 0v297.191M229.839 0v297.191M231.912 0v297.191M233.984 0v297.191M236.057 0v297.191M238.13 0v297.191M240.203 0v297.191M242.276 0v297.191M244.349 0v297.191M246.422 0v297.191M248.495 0v297.191M250.567 0v297.191M252.64 0v297.191M254.713 0v297.191M256.786 0v297.191M258.859 0v297.191M260.932 0v297.191M263.005 0v297.191M265.078 0v297.191M267.15 0v297.191M269.223 0v297.191M271.296 0v297.191M273.369 0v297.191M275.442 0v297.191M277.515 0v297.191M279.588 0v297.191M281.661 0v297.191M283.733 0v297.191M285.806 0v297.191M287.879 0v297.191M289.952 0v297.191M292.025 0v297.191M294.098 0v297.191M296.171 0v297.191M298.244 0v297.191M300.316 0v297.191M302.389 0v297.191M304.462 0v297.191M306.535 0v297.191M308.608 0v297.191M310.681 0v297.191M312.754 0v297.191M314.827 0v297.191M316.899 0v297.191M318.972 0v297.191M321.045 0v297.191M323.118 0v297.191M325.191 0v297.191"/></g></pattern><pattern id="o" data-name="New Pattern Swatch 3" width="324.925" height="297.191" patternTransform="scale(-1.56064) rotate(59.837 16249.377 8351.477)" patternUnits="userSpaceOnUse"><path fill="none" d="M0 0h324.925v297.191H0z"/><g clip-path="url(#c)"><path fill="none" stroke="#ede2ef" stroke-miterlimit="10" stroke-width=".5" d="M324.66 0v297.191"/></g><g clip-path="url(#d)" fill="none" stroke="#ede2ef" stroke-miterlimit="10" stroke-width=".5"><path d="M-.266 0v297.191M1.804 0v297.191M3.874 0v297.191M5.944 0v297.191M8.013 0v297.191M10.083 0v297.191M12.153 0v297.191M14.222 0v297.191M16.292 0v297.191M18.362 0v297.191M20.431 0v297.191M22.501 0v297.191M24.571 0v297.191M26.64 0v297.191M28.71 0v297.191M30.78 0v297.191M32.85 0v297.191M34.919 0v297.191M36.989 0v297.191M39.059 0v297.191M41.128 0v297.191M43.198 0v297.191M45.268 0v297.191M47.337 0v297.191M49.407 0v297.191M51.477 0v297.191M53.546 0v297.191M55.616 0v297.191M57.686 0v297.191M59.755 0v297.191M61.825 0v297.191M63.895 0v297.191M65.965 0v297.191M68.034 0v297.191M70.104 0v297.191M72.174 0v297.191M74.243 0v297.191M76.313 0v297.191M78.383 0v297.191M80.452 0v297.191M82.522 0v297.191M84.592 0v297.191M86.661 0v297.191M88.731 0v297.191M90.801 0v297.191M92.87 0v297.191M94.94 0v297.191M97.01 0v297.191M99.08 0v297.191M101.149 0v297.191M103.219 0v297.191M105.289 0v297.191M107.358 0v297.191M109.428 0v297.191M111.498 0v297.191M113.567 0v297.191M115.637 0v297.191M117.707 0v297.191M119.776 0v297.191M121.846 0v297.191M123.916 0v297.191M125.986 0v297.191M128.055 0v297.191M130.125 0v297.191M132.195 0v297.191M134.264 0v297.191M136.334 0v297.191M138.404 0v297.191M140.473 0v297.191M142.543 0v297.191M144.613 0v297.191M146.682 0v297.191M148.752 0v297.191M150.822 0v297.191M152.891 0v297.191M154.961 0v297.191M157.031 0v297.191M159.101 0v297.191M161.17 0v297.191M163.24 0v297.191M165.31 0v297.191M167.379 0v297.191M169.449 0v297.191M171.519 0v297.191M173.588 0v297.191M175.658 0v297.191M177.728 0v297.191M179.797 0v297.191M181.867 0v297.191M183.937 0v297.191M186.007 0v297.191M188.076 0v297.191M190.146 0v297.191M192.216 0v297.191M194.285 0v297.191M196.355 0v297.191M198.425 0v297.191M200.494 0v297.191M202.564 0v297.191M204.634 0v297.191M206.703 0v297.191M208.773 0v297.191M210.843 0v297.191M212.912 0v297.191M214.982 0v297.191M217.052 0v297.191M219.122 0v297.191M221.191 0v297.191M223.261 0v297.191M225.331 0v297.191M227.4 0v297.191M229.47 0v297.191M231.54 0v297.191M233.609 0v297.191M235.679 0v297.191M237.749 0v297.191M239.818 0v297.191M241.888 0v297.191M243.958 0v297.191M246.028 0v297.191M248.097 0v297.191M250.167 0v297.191M252.237 0v297.191M254.306 0v297.191M256.376 0v297.191M258.446 0v297.191M260.515 0v297.191M262.585 0v297.191M264.655 0v297.191M266.724 0v297.191M268.794 0v297.191M270.864 0v297.191M272.933 0v297.191M275.003 0v297.191M277.073 0v297.191M279.143 0v297.191M281.212 0v297.191M283.282 0v297.191M285.352 0v297.191M287.421 0v297.191M289.491 0v297.191M291.561 0v297.191M293.63 0v297.191M295.7 0v297.191M297.77 0v297.191M299.839 0v297.191M301.909 0v297.191M303.979 0v297.191M306.049 0v297.191M308.118 0v297.191M310.188 0v297.191M312.258 0v297.191M314.327 0v297.191M316.397 0v297.191M318.467 0v297.191M320.536 0v297.191M322.606 0v297.191M324.676 0v297.191"/></g></pattern><pattern id="p" data-name="Unnamed Pattern 25" width="166.783" height="175.692" patternTransform="matrix(2.72418 0 0 -2.72418 -6876.266 50671.137)" patternUnits="userSpaceOnUse"><path fill="none" d="M0 0h166.783v175.692H0z"/><path fill="#fff" d="M140.923 0L94.782 87.846h72.001L166.769 0h-25.846zM0 0v87.846h82.154V45.231L36.615 0H0z"/><g clip-path="url(#e)"><path fill="#f7f6fa" d="M89.002-4.274h123.21v104.595H89.002z"/><path fill="#ede2ef" d="M124.177-47.869l-.354.354 109.231 109.23.353-.353-109.23-109.231zM123.42-47.112l-.354.353L232.297 62.472l.354-.353L123.42-47.112zM122.663-46.355l-.354.354L231.54 63.229l.354-.354-109.231-109.23zM121.906-45.598l-.354.354 109.231 109.23.353-.354-109.23-109.23zM121.149-44.841l-.354.354 109.231 109.23.353-.354-109.23-109.23zM120.392-44.084l-.354.354L229.269 65.5l.354-.353L120.392-44.084zM119.635-43.327l-.354.354 109.231 109.23.353-.353-109.23-109.231zM118.878-42.571l-.354.354 109.231 109.23.353-.353-109.23-109.231zM118.121-41.814l-.354.354L226.998 67.77l.354-.353L118.121-41.814zM117.364-41.056l-.354.354 109.231 109.23.354-.354-109.231-109.23zM116.607-40.299l-.354.354 109.231 109.23.353-.354-109.23-109.23zM115.85-39.542l-.354.354 109.231 109.23.353-.354-109.23-109.23zM115.093-38.785l-.354.354L223.97 70.799l.354-.353L115.093-38.785zM114.336-38.029l-.354.354 109.231 109.23.353-.353-109.23-109.231zM113.579-37.272l-.354.354 109.231 109.23.353-.353-109.23-109.231zM112.822-36.515l-.354.354 109.231 109.23.354-.353L112.822-36.515zM112.065-35.757l-.354.354 109.231 109.23.354-.354-109.231-109.23zM111.308-35l-.354.354 109.231 109.23.353-.354L111.308-35zM110.551-34.243l-.354.354 109.231 109.23.353-.354-109.23-109.23zM109.794-33.487l-.354.354 109.231 109.23.354-.353L109.794-33.487zM109.037-32.73l-.354.354 109.231 109.23.353-.353L109.037-32.73zM108.28-31.973l-.354.354 109.231 109.23.353-.353L108.28-31.973zM107.523-31.216l-.354.354L216.4 78.368l.354-.353L107.523-31.216zM106.766-30.458l-.354.354 109.231 109.23.354-.354-109.231-109.23zM106.009-29.701l-.354.354 109.231 109.23.353-.354-109.23-109.23zM105.253-28.945l-.354.354L214.13 80.639l.353-.354-109.23-109.23zM104.495-28.188l-.354.354 109.231 109.23.354-.353L104.495-28.188zM103.738-27.431l-.354.354 109.231 109.23.353-.353-109.23-109.231zM102.982-26.674l-.354.354L211.859 82.91l.353-.353-109.23-109.231zM102.224-25.917l-.354.354L211.101 83.668l.354-.354L102.224-25.917zM101.467-25.159l-.354.354 109.231 109.23.354-.354-109.231-109.23zM100.711-24.403l-.354.354 109.231 109.23.353-.354-109.23-109.23zM99.953-23.646l-.354.354L208.83 85.938l.354-.354L99.953-23.646zM99.196-22.889l-.354.354 109.231 109.23.354-.353L99.196-22.889zM98.44-22.132l-.354.354 109.231 109.23.353-.353L98.44-22.132zM97.683-21.375l-.354.354L206.56 88.209l.353-.353L97.683-21.375zM96.925-20.617l-.354.354 109.231 109.23.354-.354L96.925-20.617zM96.169-19.861l-.354.354 109.231 109.23.353-.354-109.23-109.23zM95.412-19.104l-.354.354L204.289 90.48l.353-.354-109.23-109.23zM94.654-18.347l-.354.354 109.231 109.23.354-.354L94.654-18.347zM93.898-17.59l-.354.354 109.231 109.23.354-.353L93.898-17.59zM93.141-16.833l-.354.354 109.231 109.23.353-.353L93.141-16.833zM92.384-16.076l-.354.354 109.231 109.23.353-.353L92.384-16.076zM91.627-15.319l-.354.354 109.231 109.23.354-.354L91.627-15.319zM90.87-14.562l-.354.354 109.231 109.23.353-.354L90.87-14.562zM90.113-13.805l-.354.354L198.99 95.779l.353-.354-109.23-109.23zM89.356-13.048l-.354.354 109.231 109.23.354-.354L89.356-13.048zM88.599-12.291l-.354.354 109.231 109.23.354-.353L88.599-12.291zM87.842-11.534l-.354.354L196.719 98.05l.353-.353L87.842-11.534zM87.085-10.778l-.354.354 109.231 109.23.353-.353L87.085-10.778zM86.328-10.02l-.354.354 109.231 109.23.354-.354L86.328-10.02zM85.571-9.263l-.354.354 109.231 109.23.353-.354L85.571-9.263zM84.814-8.506l-.354.354 109.231 109.23.353-.354L84.814-8.506zM84.057-7.749l-.354.354 109.231 109.23.354-.354L84.057-7.749zM83.3-6.992l-.354.354 109.231 109.23.354-.353L83.3-6.992zM82.543-6.236l-.354.354 109.231 109.23.353-.353L82.543-6.236zM81.786-5.479l-.354.354 109.231 109.23.353-.353L81.786-5.479zM81.029-4.721l-.354.354 109.231 109.23.354-.354L81.029-4.721zM80.272-3.964l-.354.354 109.231 109.23.353-.354L80.272-3.964zM79.515-3.207l-.354.354 109.231 109.23.353-.354L79.515-3.207zM78.758-2.45l-.354.354 109.231 109.23.354-.353L78.758-2.45zM78.001-1.694l-.354.354 109.231 109.23.354-.353L78.001-1.694zM77.244-.937l-.354.354 109.231 109.23.353-.353L77.244-.937zM76.487-.179l-.354.354 109.231 109.23.353-.354L76.487-.179zM75.73.577l-.354.354 109.231 109.23.354-.353L75.73.577zM74.973 1.334l-.354.354 109.231 109.23.353-.353L74.973 1.334zM74.216 2.092l-.354.354 109.231 109.23.353-.354L74.216 2.092zM73.459 2.848l-.354.354 109.231 109.23.354-.353L73.459 2.848zM72.702 3.605l-.354.354 109.231 109.23.354-.353L72.702 3.605zM71.945 4.363l-.354.353 109.231 109.23.353-.354L71.945 4.363zM71.188 5.119l-.354.354 109.231 109.23.354-.354L71.188 5.119zM70.431 5.876l-.354.354 109.231 109.23.354-.353L70.431 5.876zM69.674 6.633l-.354.354 109.231 109.23.353-.353L69.674 6.633zM68.918 7.39l-.354.354 109.231 109.23.353-.354L68.918 7.39zM68.16 8.147l-.354.354 109.231 109.23.354-.353L68.16 8.147zM67.404 8.904l-.355.354 109.232 109.23.352-.353L67.404 8.904zM66.647 9.661l-.354.354 109.231 109.23.353-.354L66.647 9.661zM65.889 10.418l-.354.354 109.231 109.23.354-.354L65.889 10.418zM65.132 11.175l-.354.354 109.231 109.23.354-.353L65.132 11.175zM64.376 11.932l-.354.354 109.231 109.23.353-.353L64.376 11.932zM63.619 12.689l-.354.354 109.231 109.23.353-.354-109.23-109.23zM62.861 13.446l-.354.354 109.231 109.23.354-.353L62.861 13.446zM62.105 14.203l-.354.354 109.231 109.23.353-.353L62.105 14.203zM61.348 14.96l-.354.354 109.231 109.23.353-.354L61.348 14.96zM60.59 15.717l-.354.354 109.231 109.23.355-.354L60.59 15.717zM59.834 16.474l-.354.354 109.231 109.23.354-.353L59.834 16.474zM59.077 17.231l-.354.354 109.231 109.23.353-.354-109.23-109.23zM58.32 17.988l-.354.354 109.231 109.23.353-.354L58.32 17.988zM57.563 18.745l-.354.354 109.231 109.23.354-.353L57.563 18.745zM56.806 19.502l-.354.354 109.231 109.23.353-.353L56.806 19.502zM56.049 20.259l-.354.354 109.231 109.23.353-.354-109.23-109.23zM55.292 21.016l-.354.354L164.169 130.6l.354-.353L55.292 21.016zM54.535 21.773l-.354.354 109.231 109.23.354-.353L54.535 21.773zM53.778 22.53l-.354.354 109.231 109.23.353-.354L53.778 22.53zM53.021 23.287l-.354.354 109.231 109.23.353-.354-109.23-109.23zM52.264 24.044l-.354.354 109.231 109.23.354-.353L52.264 24.044zM51.507 24.801l-.354.353 109.231 109.23.353-.353-109.23-109.23zM50.75 25.558l-.354.354 109.231 109.23.353-.354L50.75 25.558zM49.993 26.315l-.354.354 109.231 109.23.354-.353L49.993 26.315zM49.236 27.072l-.354.353 109.231 109.23.354-.353L49.236 27.072zM48.479 27.829l-.354.354 109.231 109.23.353-.354-109.23-109.23zM47.722 28.586l-.354.354 109.231 109.23.354-.354L47.722 28.586zM46.965 29.343l-.354.353 109.231 109.23.354-.352L46.965 29.343zM46.208 30.099l-.354.354 109.231 109.23.353-.353L46.208 30.099zM45.451 30.857l-.354.354 109.231 109.23.353-.354-109.23-109.23zM44.694 31.614l-.354.353 109.231 109.23.354-.353L44.694 31.614zM43.937 32.37l-.354.354 109.231 109.23.354-.353L43.937 32.37zM43.18 33.128l-.354.354 109.231 109.23.353-.354L43.18 33.128zM42.423 33.884l-.354.354L151.3 143.468l.354-.353L42.423 33.884zM41.666 34.641l-.354.354 109.231 109.23.354-.353L41.666 34.641zM40.909 35.398l-.354.354 109.231 109.23.353-.353L40.909 35.398zM40.153 36.155l-.354.354 109.23 109.23.353-.354L40.153 36.155zM39.395 36.912l-.354.354 109.231 109.23.354-.353L39.395 36.912zM38.638 37.669l-.354.354 109.231 109.23.353-.353L38.638 37.669z"/></g><path fill="#fff" d="M140.923 0H36.615l45.539 45.077v42.769h12.628L140.923 0z"/><g clip-path="url(#f)"><path fill="#f7f6fa" d="M35.185-24.905h113.087V90.753H35.185z"/><path fill="#ede2ef" d="M23.839-.491h154.476v.5H23.839zM23.839.579h154.476v.5H23.839zM23.839 1.65h154.476v.5H23.839zM23.839 2.72h154.476v.5H23.839zM23.839 3.791h154.476v.5H23.839zM23.839 4.862h154.476v.5H23.839zM23.839 5.932h154.476v.5H23.839zM23.839 7.003h154.476v.5H23.839zM23.839 8.073h154.476v.5H23.839zM23.839 9.144h154.476v.5H23.839zM23.839 10.214h154.476v.5H23.839zM23.839 11.284h154.476v.5H23.839zM23.839 12.355h154.476v.5H23.839zM23.839 13.426h154.476v.5H23.839zM23.839 14.496h154.476v.5H23.839zM23.839 15.567h154.476v.5H23.839zM23.839 16.637h154.476v.5H23.839zM23.839 17.708h154.476v.5H23.839zM23.839 18.779h154.476v.5H23.839zM23.839 19.849h154.476v.5H23.839zM23.839 20.919h154.476v.5H23.839zM23.839 21.99h154.476v.5H23.839zM23.839 23.06h154.476v.5H23.839zM23.839 24.131h154.476v.5H23.839zM23.839 25.201h154.476v.5H23.839zM23.839 26.272h154.476v.5H23.839zM23.839 27.343h154.476v.5H23.839zM23.839 28.413h154.476v.5H23.839zM23.839 29.484h154.476v.5H23.839zM23.839 30.554h154.476v.5H23.839zM23.839 31.625h154.476v.5H23.839zM23.839 32.695h154.476v.5H23.839zM23.839 33.766h154.476v.5H23.839zM23.839 34.836h154.476v.5H23.839zM23.839 35.907h154.476v.5H23.839zM23.839 36.977h154.476v.5H23.839zM23.839 38.048h154.476v.5H23.839zM23.839 39.118h154.476v.5H23.839zM23.839 40.189h154.476v.5H23.839zM23.839 41.26h154.476v.5H23.839zM23.839 42.33h154.476v.5H23.839zM23.839 43.401h154.476v.5H23.839zM23.839 44.471h154.476v.5H23.839zM23.839 45.542h154.476v.5H23.839zM23.839 46.612h154.476v.5H23.839zM23.839 47.682h154.476v.5H23.839zM23.839 48.753h154.476v.5H23.839zM23.839 49.823h154.476v.5H23.839zM23.839 50.894h154.476v.5H23.839zM23.839 51.965h154.476v.5H23.839zM23.839 53.035h154.476v.5H23.839zM23.839 54.106h154.476v.5H23.839zM23.839 55.177h154.476v.5H23.839zM23.839 56.247h154.476v.5H23.839zM23.839 57.317h154.476v.5H23.839zM23.839 58.388h154.476v.5H23.839zM23.839 59.458h154.476v.5H23.839zM23.839 60.529h154.476v.5H23.839zM23.839 61.599h154.476v.5H23.839zM23.839 62.67h154.476v.5H23.839zM23.839 63.74h154.476v.5H23.839zM23.839 64.811h154.476v.5H23.839zM23.839 65.882h154.476v.5H23.839zM23.839 66.952h154.476v.5H23.839zM23.839 68.023h154.476v.5H23.839zM23.839 69.093h154.476v.5H23.839zM23.839 70.164h154.476v.5H23.839zM23.839 71.234h154.476v.5H23.839zM23.839 72.305h154.476v.5H23.839zM23.839 73.375h154.476v.5H23.839zM23.839 74.446h154.476v.5H23.839zM23.839 75.516h154.476v.5H23.839zM23.839 76.587h154.476v.5H23.839zM23.839 77.657h154.476v.5H23.839zM23.839 78.728h154.476v.5H23.839zM23.839 79.799h154.476v.5H23.839zM23.839 80.869h154.476v.5H23.839zM23.839 81.94h154.476v.5H23.839zM23.839 83.01h154.476v.5H23.839zM23.839 84.08h154.476v.5H23.839zM23.839 85.151h154.476v.5H23.839zM23.839 86.221h154.476v.5H23.839zM23.839 87.292h154.476v.5H23.839zM23.839 88.363h154.476v.5H23.839zM23.839 89.433h154.476v.5H23.839zM23.839 90.504h154.476v.5H23.839zM23.839 91.574h154.476v.5H23.839zM23.839 92.645h154.476v.5H23.839zM23.839 93.715h154.476v.5H23.839zM23.839 94.786h154.476v.5H23.839zM23.839 95.856h154.476v.5H23.839zM23.839 96.927h154.476v.5H23.839zM23.839 97.997h154.476v.5H23.839zM23.839 99.068h154.476v.5H23.839zM23.839 100.138h154.476v.5H23.839zM23.839 101.209h154.476v.5H23.839zM23.839 102.28h154.476v.5H23.839zM23.839 103.35h154.476v.5H23.839zM23.839 104.421h154.476v.5H23.839zM23.839 105.491h154.476v.5H23.839zM23.839 106.562h154.476v.5H23.839zM23.839 107.632h154.476v.5H23.839zM23.839 108.703h154.476v.5H23.839zM23.839 109.773h154.476v.5H23.839z"/></g><g clip-path="url(#g)"><path fill="#f7f6fa" d="M-.172-32.918h108.723V88.363H-.172z"/><path fill="#ede2ef" d="M97.815-24.905h.5v154.476h-.5zM96.745-24.905h.5v154.476h-.5zM95.674-24.905h.5v154.476h-.5zM94.604-24.905h.5v154.476h-.5zM93.533-24.905h.5v154.476h-.5zM92.463-24.905h.5v154.476h-.5zM91.392-24.904h.5v154.476h-.5zM90.321-24.905h.5v154.476h-.5zM89.251-24.905h.5v154.476h-.5zM88.18-24.905h.5v154.476h-.5zM87.11-24.905h.5v154.476h-.5zM86.039-24.905h.5v154.476h-.5zM84.969-24.905h.5v154.476h-.5zM83.898-24.905h.5v154.476h-.5zM82.828-24.905h.5v154.476h-.5zM81.757-24.905h.5v154.476h-.5zM80.687-24.905h.5v154.476h-.5zM79.616-24.905h.5v154.476h-.5zM78.546-24.905h.5v154.476h-.5zM77.475-24.905h.5v154.476h-.5zM76.404-24.905h.5v154.476h-.5zM75.334-24.905h.5v154.476h-.5zM74.263-24.905h.5v154.476h-.5zM73.193-24.905h.5v154.476h-.5zM72.123-24.905h.5v154.476h-.5zM71.052-24.905h.5v154.476h-.5zM69.982-24.905h.5v154.476h-.5zM68.911-24.905h.5v154.476h-.5zM67.84-24.905h.5v154.476h-.5zM66.77-24.905h.5v154.476h-.5zM65.699-24.905h.5v154.476h-.5zM64.629-24.904h.5v154.476h-.5zM63.558-24.905h.5v154.476h-.5zM62.488-24.905h.5v154.476h-.5zM61.417-24.905h.5v154.476h-.5zM60.347-24.905h.5v154.476h-.5zM59.276-24.905h.5v154.476h-.5zM58.206-24.905h.5v154.476h-.5zM57.135-24.905h.5v154.476h-.5zM56.065-24.905h.5v154.476h-.5zM54.994-24.905h.5v154.476h-.5zM53.923-24.905h.5v154.476h-.5zM52.853-24.905h.5v154.476h-.5zM51.782-24.905h.5v154.476h-.5zM50.712-24.905h.5v154.476h-.5zM49.641-24.905h.5v154.476h-.5zM48.571-24.905h.5v154.476h-.5zM47.5-24.905h.5v154.476h-.5zM46.43-24.905h.5v154.476h-.5zM45.359-24.905h.5v154.476h-.5zM44.289-24.905h.5v154.476h-.5zM43.218-24.905h.5v154.476h-.5zM42.148-24.905h.5v154.476h-.5zM41.077-24.905h.5v154.476h-.5zM40.006-24.905h.5v154.476h-.5zM38.936-24.905h.5v154.476h-.5zM37.865-24.905h.5v154.476h-.5zM36.795-24.905h.5v154.476h-.5zM35.725-24.905h.5v154.476h-.5zM34.654-24.905h.5v154.476h-.5zM33.584-24.905h.5v154.476h-.5zM32.513-24.905h.5v154.476h-.5zM31.443-24.905h.5v154.476h-.5zM30.372-24.905h.5v154.476h-.5zM29.301-24.905h.5v154.476h-.5zM28.231-24.904h.5v154.476h-.5zM27.16-24.905h.5v154.476h-.5zM26.09-24.905h.5v154.476h-.5zM25.019-24.905h.5v154.476h-.5zM23.949-24.905h.5v154.476h-.5zM22.878-24.905h.5v154.476h-.5zM21.808-24.905h.5v154.476h-.5zM20.737-24.905h.5v154.476h-.5zM19.667-24.905h.5v154.476h-.5zM18.596-24.905h.5v154.476h-.5zM17.526-24.905h.5v154.476h-.5zM16.455-24.905h.5v154.476h-.5zM15.384-24.905h.5v154.476h-.5zM14.314-24.905h.5v154.476h-.5zM13.243-24.905h.5v154.476h-.5zM12.173-24.905h.5v154.476h-.5zM11.102-24.905h.5v154.476h-.5zM10.032-24.905h.5v154.476h-.5zM8.962-24.905h.5v154.476h-.5zM7.891-24.905h.5v154.476h-.5zM6.82-24.905h.5v154.476h-.5zM5.75-24.905h.5v154.476h-.5zM4.679-24.905h.5v154.476h-.5zM3.609-24.905h.5v154.476h-.5zM2.538-24.905h.5v154.476h-.5zM1.467-24.905h.5v154.476h-.5zM.397-24.905h.5v154.476h-.5z"/></g><path fill="#fff" d="M25.86 175.692l46.141-87.846H0l.014 87.846H25.86zM166.783 175.692V87.846H84.629v42.615l45.539 45.231h36.615z"/><g clip-path="url(#h)"><path fill="#f7f6fa" d="M-26.635 78.527H78.354v107.814H-26.635z"/><path fill="#ede2ef" d="M-66.271 113.977l-.354.354 109.231 109.23.354-.354-109.231-109.23zM-65.514 113.22l-.354.354 109.231 109.23.353-.353-109.23-109.231zM-64.757 112.463l-.354.354L44.12 222.047l.353-.354-109.23-109.23zM-64 111.706l-.354.354L44.877 221.29l.354-.354L-64 111.706zM-63.243 110.949l-.354.354 109.23 109.23.355-.353-109.231-109.231zM-62.486 110.192l-.354.354 109.231 109.23.353-.353-109.23-109.231zM-61.729 109.435l-.354.354 109.231 109.23.353-.354-109.23-109.23zM-60.972 108.678l-.354.354 109.23 109.23.355-.353-109.231-109.231zM-60.215 107.921l-.354.354 109.231 109.23.353-.353-109.23-109.231zM-59.458 107.164l-.354.354 109.231 109.23.353-.354-109.23-109.23zM-58.701 106.408l-.355.353L50.175 215.992l.355-.355-109.231-109.229zM-57.945 105.65l-.354.354 109.231 109.23.354-.353L-57.945 105.65zM-57.187 104.893l-.354.354L51.69 214.477l.353-.353-109.23-109.231zM-56.431 104.136l-.354.354L52.446 213.72l.354-.353-109.231-109.231zM-55.674 103.379l-.354.354 109.231 109.23.354-.353-109.231-109.231zM-54.916 102.622l-.354.354 109.231 109.23.353-.353-109.23-109.231zM-54.16 101.866l-.354.353 109.231 109.23.354-.353-109.231-109.23zM-53.403 101.109l-.354.354 109.231 109.23.354-.354-109.231-109.23zM-52.646 100.351l-.354.354 109.231 109.23.354-.353-109.231-109.231zM-51.889 99.594l-.354.354 109.231 109.23.354-.352L-51.889 99.594zM-51.132 98.838l-.354.354 109.231 109.23.353-.354-109.23-109.23zM-50.375 98.08l-.354.354 109.231 109.23.354-.353L-50.375 98.08zM-49.618 97.324l-.354.353L59.259 206.908l.353-.353-109.23-109.231zM-48.861 96.567l-.354.354 109.231 109.23.353-.354-109.23-109.23zM-48.104 95.81l-.354.354 109.231 109.23.354-.354L-48.104 95.81zM-47.347 95.052l-.354.354L61.53 204.636l.354-.353L-47.347 95.052zM-46.59 94.296l-.354.354L62.287 203.88l.353-.354-109.23-109.23zM-45.833 93.539l-.354.354 109.231 109.23.354-.354-109.231-109.23zM-45.076 92.782l-.354.353 109.231 109.23.354-.353-109.231-109.23zM-44.319 92.025l-.354.354 109.231 109.23.353-.353-109.23-109.231zM-43.562 91.268l-.354.354 109.231 109.23.353-.354-109.23-109.23zM-42.805 90.511l-.354.354 109.231 109.23.354-.354-109.231-109.23zM-42.048 89.754l-.354.354 109.231 109.23.354-.353L-42.048 89.754zM-41.291 88.997l-.354.354 109.231 109.23.353-.354-109.23-109.23zM-40.534 88.24l-.354.354 109.231 109.23.354-.354L-40.534 88.24zM-39.777 87.483l-.354.354L69.1 197.067l.354-.353L-39.777 87.483zM-39.02 86.726l-.354.354L69.857 196.31l.353-.353L-39.02 86.726zM-38.263 85.969l-.354.354 109.231 109.23.353-.354-109.23-109.23zM-37.506 85.212l-.354.354 109.231 109.23.354-.353L-37.506 85.212zM-36.749 84.455l-.354.354 109.231 109.23.353-.353-109.23-109.231zM-35.992 83.698l-.354.354 109.231 109.23.353-.354-109.23-109.23zM-35.235 82.941l-.354.354 109.231 109.23.354-.354-109.231-109.23zM-34.478 82.184l-.354.354 109.231 109.23.354-.353L-34.478 82.184zM-33.721 81.427l-.354.354 109.231 109.23.353-.353-109.23-109.231zM-32.964 80.67l-.354.354 109.231 109.23.353-.354-109.23-109.23zM-32.207 79.913l-.354.354L76.67 189.497l.354-.353L-32.207 79.913zM-31.45 79.156l-.354.354L77.427 188.74l.353-.353L-31.45 79.156zM-30.693 78.399l-.354.354 109.231 109.23.353-.354-109.23-109.23zM-29.936 77.642l-.354.354 109.231 109.23.354-.354-109.231-109.23zM-29.18 76.885l-.354.354 109.231 109.23.354-.353L-29.18 76.885zM-28.422 76.128l-.354.354 109.231 109.23.353-.353-109.23-109.231zM-27.665 75.371l-.354.354 109.231 109.23.353-.354-109.23-109.23zM-26.909 74.614l-.354.354 109.231 109.23.354-.353L-26.909 74.614zM-26.151 73.857l-.354.354 109.231 109.23.353-.353-109.23-109.231zM-25.394 73.1l-.354.354 109.231 109.23.353-.354L-25.394 73.1zM-24.638 72.343l-.354.354 109.231 109.23.354-.353L-24.638 72.343zM-23.881 71.586l-.354.354L84.996 181.17l.354-.353L-23.881 71.586zM-23.123 70.829l-.354.354 109.231 109.23.353-.354-109.23-109.23zM-22.367 70.073l-.354.353L86.51 179.656l.353-.353-109.23-109.23zM-21.61 69.315l-.354.354 109.231 109.23.354-.353L-21.61 69.315zM-20.852 68.558l-.354.354 109.231 109.23.353-.353-109.23-109.231zM-20.096 67.801l-.354.354 109.231 109.23.353-.354-109.23-109.23zM-19.339 67.045l-.354.354 109.231 109.23.354-.354-109.231-109.23zM-18.582 66.287l-.354.354 109.231 109.23.354-.353L-18.582 66.287zM-17.825 65.531l-.354.353L91.052 175.115l.353-.355-109.23-109.229zM-17.068 64.774l-.354.354 109.231 109.23.354-.354-109.231-109.23zM-16.311 64.016l-.354.354L92.566 173.6l.354-.353L-16.311 64.016zM-15.554 63.259l-.354.354 109.231 109.23.353-.353-109.23-109.231zM-14.797 62.503l-.354.354L94.08 172.087l.353-.354-109.23-109.23zM-14.04 61.745l-.354.354 109.231 109.23.354-.353L-14.04 61.745zM-13.283 60.988l-.354.354 109.231 109.23.353-.353-109.23-109.231zM-12.526 60.232l-.354.354 109.231 109.23.353-.354-109.23-109.23zM-11.769 59.475l-.354.354 109.231 109.23.354-.354-109.231-109.23zM-11.012 58.717l-.354.354 109.231 109.23.354-.352L-11.012 58.717zM-10.255 57.961l-.354.354 109.231 109.23.353-.353-109.23-109.231zM-9.498 57.204l-.354.354 109.231 109.23.353-.354-109.23-109.23zM-8.741 56.446l-.354.354 109.231 109.23.354-.353L-8.741 56.446zM-7.984 55.69l-.354.354 109.231 109.23.353-.353L-7.984 55.69zM-7.227 54.933l-.354.354 109.231 109.23.353-.354-109.23-109.23zM-6.47 54.176l-.354.354 109.231 109.23.354-.354L-6.47 54.176zM-5.713 53.419l-.354.354 109.231 109.23.354-.353L-5.713 53.419zM-4.956 52.662l-.354.354 109.231 109.23.353-.353L-4.956 52.662zM-4.199 51.905l-.354.354 109.231 109.23.353-.354-109.23-109.23zM-3.442 51.148l-.354.354 109.231 109.23.354-.353L-3.442 51.148zM-2.685 50.391l-.354.354 109.231 109.23.353-.353L-2.685 50.391zM-1.928 49.634l-.354.354 109.231 109.23.353-.354-109.23-109.23zM-1.171 48.877l-.354.354 109.231 109.23.354-.354L-1.171 48.877zM-.414 48.12l-.354.354 109.231 109.23.354-.353L-.414 48.12zM.343 47.363l-.354.354 109.231 109.23.353-.354L.343 47.363zM1.1 46.606l-.354.354 109.231 109.23.353-.354L1.1 46.606zM1.857 45.849l-.354.354 109.231 109.23.354-.353L1.857 45.849zM2.614 45.092l-.354.354 109.231 109.23.353-.353L2.614 45.092zM3.371 44.335l-.354.354 109.231 109.23.353-.354L3.371 44.335zM4.128 43.578l-.354.354 109.231 109.23.354-.354L4.128 43.578zM4.884 42.821l-.354.354 109.231 109.23.354-.353L4.884 42.821zM5.642 42.064l-.354.354 109.231 109.23.353-.354L5.642 42.064zM6.399 41.307l-.354.354 109.231 109.23.354-.354L6.399 41.307zM7.155 40.55l-.354.354 109.231 109.23.354-.353L7.155 40.55zM7.913 39.793l-.354.354 109.231 109.23.353-.353L7.913 39.793zM8.67 39.036l-.354.354 109.231 109.23.353-.354L8.67 39.036zM9.426 38.279l-.354.354 109.231 109.23.354-.353L9.426 38.279zM10.183 37.522l-.354.354 109.231 109.23.354-.353L10.183 37.522zM10.941 36.765l-.354.354 109.231 109.23.353-.354-109.23-109.23zM11.697 36.008l-.354.354 109.231 109.23.354-.354L11.697 36.008zM12.454 35.251l-.354.354 109.231 109.23.354-.353L12.454 35.251zM13.212 34.494l-.354.354 109.23 109.23.353-.353L13.212 34.494zM13.968 33.737l-.354.354 109.231 109.23.353-.354-109.23-109.23zM14.725 32.98l-.354.354 109.231 109.23.354-.353L14.725 32.98zM15.483 32.223l-.355.354 109.231 109.23.354-.353L15.483 32.223zM16.239 31.467l-.354.354 109.231 109.23.353-.354-109.23-109.23zM16.996 30.71l-.354.354 109.231 109.23.354-.354L16.996 30.71zM17.753 29.952l-.354.354 109.231 109.23.354-.353L17.753 29.952zM18.51 29.196l-.354.354 109.231 109.23.353-.353L18.51 29.196zM19.267 28.439l-.354.354 109.231 109.23.353-.354-109.23-109.23z"/></g><path fill="#fff" d="M25.86 175.692h104.308l-45.539-45.077V87.846H72.001L25.86 175.692z"/><g clip-path="url(#i)"><path fill="#f7f6fa" d="M-5.166 65.419h148.109V193.19H-5.166z"/><path fill="#ede2ef" d="M-11.533 175.683h154.476v.5H-11.533zM-11.533 174.613h154.476v.5H-11.533zM-11.533 173.542h154.476v.5H-11.533zM-11.533 172.472h154.476v.5H-11.533zM-11.533 171.401h154.476v.5H-11.533zM-11.533 170.331h154.476v.5H-11.533zM-11.533 169.26h154.476v.5H-11.533zM-11.533 168.19h154.476v.5H-11.533zM-11.533 167.119h154.476v.5H-11.533zM-11.533 166.049h154.476v.5H-11.533zM-11.533 164.978h154.476v.5H-11.533zM-11.533 163.907h154.476v.5H-11.533zM-11.533 162.837h154.476v.5H-11.533zM-11.533 161.766h154.476v.5H-11.533zM-11.533 160.696h154.476v.5H-11.533zM-11.533 159.625h154.476v.5H-11.533zM-11.533 158.555h154.476v.5H-11.533zM-11.533 157.484h154.476v.5H-11.533zM-11.533 156.414h154.476v.5H-11.533zM-11.533 155.344h154.476v.5H-11.533zM-11.533 154.273h154.476v.5H-11.533zM-11.533 153.202h154.476v.5H-11.533zM-11.533 152.132h154.476v.5H-11.533zM-11.533 151.061h154.476v.5H-11.533zM-11.533 149.99h154.476v.5H-11.533zM-11.533 148.92h154.476v.5H-11.533zM-11.532 147.849h154.476v.5H-11.532zM-11.533 146.779h154.476v.5H-11.533zM-11.533 145.709h154.476v.5H-11.533zM-11.533 144.638h154.476v.5H-11.533zM-11.533 143.568h154.476v.5H-11.533zM-11.533 142.497h154.476v.5H-11.533zM-11.533 141.427h154.476v.5H-11.533zM-11.533 140.356h154.476v.5H-11.533zM-11.533 139.285h154.476v.5H-11.533zM-11.533 138.215h154.476v.5H-11.533zM-11.533 137.144h154.476v.5H-11.533zM-11.533 136.074h154.476v.5H-11.533zM-11.533 135.003h154.476v.5H-11.533zM-11.533 133.933h154.476v.5H-11.533zM-11.533 132.862h154.476v.5H-11.533zM-11.533 131.792h154.476v.5H-11.533zM-11.533 130.721h154.476v.5H-11.533zM-11.533 129.651h154.476v.5H-11.533zM-11.533 128.58h154.476v.5H-11.533zM-11.533 127.51h154.476v.5H-11.533zM-11.533 126.439h154.476v.5H-11.533zM-11.533 125.368h154.476v.5H-11.533zM-11.533 124.298h154.476v.5H-11.533zM-11.533 123.227h154.476v.5H-11.533zM-11.533 122.157h154.476v.5H-11.533zM-11.533 121.086h154.476v.5H-11.533zM-11.533 120.016h154.476v.5H-11.533zM-11.533 118.946h154.476v.5H-11.533zM-11.533 117.875h154.476v.5H-11.533zM-11.533 116.804h154.476v.5H-11.533zM-11.533 115.734h154.476v.5H-11.533zM-11.533 114.663h154.476v.5H-11.533zM-11.533 113.593h154.476v.5H-11.533zM-11.533 112.522h154.476v.5H-11.533zM-11.532 111.451h154.476v.5H-11.532zM-11.533 110.381h154.476v.5H-11.533zM-11.533 109.311h154.476v.5H-11.533zM-11.533 108.24h154.476v.5H-11.533zM-11.533 107.17h154.476v.5H-11.533zM-11.533 106.099h154.476v.5H-11.533zM-11.533 105.029h154.476v.5H-11.533zM-11.533 103.958h154.476v.5H-11.533zM-11.533 102.887h154.476v.5H-11.533zM-11.533 101.817h154.476v.5H-11.533zM-11.533 100.746h154.476v.5H-11.533zM-11.533 99.676h154.476v.5H-11.533zM-11.533 98.605h154.476v.5H-11.533zM-11.533 97.535h154.476v.5H-11.533zM-11.533 96.464h154.476v.5H-11.533zM-11.533 95.394h154.476v.5H-11.533zM-11.533 94.323h154.476v.5H-11.533zM-11.533 93.253h154.476v.5H-11.533zM-11.533 92.182h154.476v.5H-11.533zM-11.533 91.112h154.476v.5H-11.533zM-11.533 90.041h154.476v.5H-11.533zM-11.533 88.97h154.476v.5H-11.533zM-11.533 87.9h154.476v.5H-11.533zM-11.533 86.829h154.476v.5H-11.533zM-11.533 85.759h154.476v.5H-11.533zM-11.533 84.688h154.476v.5H-11.533zM-11.533 83.618h154.476v.5H-11.533zM-11.533 82.548h154.476v.5H-11.533zM-11.533 81.477h154.476v.5H-11.533zM-11.533 80.407h154.476v.5H-11.533zM-11.533 79.336h154.476v.5H-11.533zM-11.533 78.265h154.476v.5H-11.533zM-11.533 77.195h154.476v.5H-11.533zM-11.533 76.124h154.476v.5H-11.533zM-11.532 75.053h154.476v.5H-11.532zM-11.533 73.983h154.476v.5H-11.533zM-11.533 72.913h154.476v.5H-11.533zM-11.533 71.842h154.476v.5H-11.533zM-11.533 70.772h154.476v.5H-11.533zM-11.533 69.701h154.476v.5H-11.533zM-11.533 68.631h154.476v.5H-11.533zM-11.533 67.56h154.476v.5H-11.533zM-11.533 66.49h154.476v.5H-11.533zM-11.533 65.419h154.476v.5H-11.533z"/></g><g clip-path="url(#j)"><path fill="#f7f6fa" d="M64.793 15.03h178.049v185.567H64.793z"/><path fill="#ede2ef" d="M64.971 46.121h.5v154.476h-.5zM66.042 46.121h.5v154.476h-.5zM67.112 46.121h.5v154.476h-.5zM68.183 46.121h.5v154.476h-.5zM69.253 46.121h.5v154.476h-.5zM70.324 46.121h.5v154.476h-.5zM71.394 46.121h.5v154.476h-.5zM72.464 46.121h.5v154.476h-.5zM73.535 46.121h.5v154.476h-.5zM74.606 46.121h.5v154.476h-.5zM75.676 46.121h.5v154.476h-.5zM76.747 46.121h.5v154.476h-.5zM77.818 46.121h.5v154.476h-.5zM78.888 46.121h.5v154.476h-.5zM79.958 46.121h.5v154.476h-.5zM81.029 46.121h.5v154.476h-.5zM82.099 46.121h.5v154.476h-.5zM83.17 46.121h.5v154.476h-.5zM84.24 46.121h.5v154.476h-.5zM85.311 46.121h.5v154.476h-.5zM86.381 46.121h.5v154.476h-.5zM87.452 46.121h.5v154.476h-.5zM88.523 46.121h.5v154.476h-.5zM89.593 46.121h.5v154.476h-.5zM90.664 46.121h.5v154.476h-.5zM91.734 46.121h.5v154.476h-.5zM92.805 46.121h.5v154.476h-.5zM93.875 46.121h.5v154.476h-.5zM94.946 46.121h.5v154.476h-.5zM96.016 46.121h.5v154.476h-.5zM97.087 46.121h.5v154.476h-.5zM98.157 46.121h.5v154.476h-.5zM99.228 46.121h.5v154.476h-.5zM100.298 46.121h.5v154.476h-.5zM101.369 46.121h.5v154.476h-.5zM102.44 46.121h.5v154.476h-.5zM103.51 46.121h.5v154.476h-.5zM104.581 46.121h.5v154.476h-.5zM105.651 46.121h.5v154.476h-.5zM106.722 46.121h.5v154.476h-.5zM107.792 46.121h.5v154.476h-.5zM108.862 46.121h.5v154.476h-.5zM109.933 46.121h.5v154.476h-.5zM111.004 46.121h.5v154.476h-.5zM112.074 46.121h.5v154.476h-.5zM113.145 46.121h.5v154.476h-.5zM114.215 46.121h.5v154.476h-.5zM115.286 46.121h.5v154.476h-.5zM116.356 46.121h.5v154.476h-.5zM117.427 46.121h.5v154.476h-.5zM118.497 46.121h.5v154.476h-.5zM119.568 46.121h.5v154.476h-.5zM120.638 46.121h.5v154.476h-.5zM121.709 46.121h.5v154.476h-.5zM122.779 46.121h.5v154.476h-.5zM123.85 46.121h.5v154.476h-.5zM124.921 46.121h.5v154.476h-.5zM125.991 46.121h.5v154.476h-.5zM127.062 46.121h.5v154.476h-.5zM128.132 46.121h.5v154.476h-.5zM129.203 46.121h.5v154.476h-.5zM130.273 46.121h.5v154.476h-.5zM131.344 46.121h.5v154.476h-.5zM132.414 46.121h.5v154.476h-.5zM133.485 46.121h.5v154.476h-.5zM134.555 46.121h.5v154.476h-.5zM135.626 46.121h.5v154.476h-.5zM136.696 46.121h.5v154.476h-.5zM137.767 46.121h.5v154.476h-.5zM138.838 46.121h.5v154.476h-.5zM139.908 46.121h.5v154.476h-.5zM140.979 46.121h.5v154.476h-.5zM142.049 46.121h.5v154.476h-.5zM143.12 46.121h.5v154.476h-.5zM144.19 46.121h.5v154.476h-.5zM145.26 46.121h.5v154.476h-.5zM146.331 46.121h.5v154.476h-.5zM147.401 46.121h.5v154.476h-.5zM148.472 46.121h.5v154.476h-.5zM149.543 46.121h.5v154.476h-.5zM150.613 46.121h.5v154.476h-.5zM151.684 46.121h.5v154.476h-.5zM152.754 46.121h.5v154.476h-.5zM153.825 46.121h.5v154.476h-.5zM154.895 46.121h.5v154.476h-.5zM155.966 46.121h.5v154.476h-.5zM157.036 46.121h.5v154.476h-.5zM158.107 46.121h.5v154.476h-.5zM159.177 46.121h.5v154.476h-.5zM160.248 46.121h.5v154.476h-.5zM161.318 46.121h.5v154.476h-.5zM162.389 46.121h.5v154.476h-.5zM163.46 46.121h.5v154.476h-.5zM164.53 46.121h.5v154.476h-.5zM165.601 46.121h.5v154.476h-.5zM166.671 46.121h.5v154.476h-.5z"/></g></pattern><pattern id="q" data-name="Thick-Grey-Diagonal04" width="36.876" height="21.29" patternTransform="matrix(-2.82592 0 0 2.82592 -490.338 -30.778)" patternUnits="userSpaceOnUse"><path fill="none" d="M0 0h36.876v21.29H0z"/><g fill="#e8e8e8"><path d="M0 0h.75L0 .433V0zM4.848 0L0 2.799v-.866L3.348 0h1.5zM8.945 0L0 5.164v-.866L7.445 0h1.5zM13.042 0L0 7.53v-.866L11.542 0h1.5zM17.139 0L0 9.895v-.866L15.639 0h1.5zM21.237 0L0 12.261v-.866L19.737 0h1.5zM25.334 0L0 14.627v-.866L23.834 0h1.5zM29.432 0L0 16.992v-.866L27.932 0h1.5zM33.529 0L0 19.358v-.866L32.029 0h1.5zM36.876 0v.433L.75 21.29H0v-.433L36.126 0h.75zM36.876 2.799L4.847 21.29h-1.5L36.876 1.933v.866zM36.876 5.164L8.944 21.29H7.445L36.876 4.298v.866zM36.876 7.53L13.042 21.29h-1.5L36.876 6.664v.866zM36.876 9.895L17.139 21.29h-1.5L36.876 9.029v.866zM36.876 12.261l-15.64 9.029h-1.499l17.139-9.895v.866zM36.876 14.627L25.334 21.29h-1.5l13.042-7.529v.866zM36.876 16.992l-7.445 4.298h-1.499l8.944-5.164v.866zM36.876 19.358l-3.348 1.932h-1.499l4.847-2.798v.866zM36.876 21.29h-.75l.75-.433v.433z"/></g></pattern><pattern id="r" data-name="Unnamed Pattern 25" width="166.783" height="175.692" patternTransform="translate(-2363.387 -23657.067) scale(1.33562)" patternUnits="userSpaceOnUse"><path fill="none" d="M0 0h166.783v175.692H0z"/><path fill="#fff" d="M140.923 0L94.782 87.846h72.001L166.769 0h-25.846zM0 0v87.846h82.154V45.231L36.615 0H0z"/><g clip-path="url(#e)"><path fill="#f7f6fa" d="M89.002-4.274h123.21v104.595H89.002z"/><path fill="#ede2ef" d="M124.177-47.869l-.354.354 109.231 109.23.353-.353-109.23-109.231zM123.42-47.112l-.354.353L232.297 62.472l.354-.353L123.42-47.112zM122.663-46.355l-.354.354L231.54 63.229l.354-.354-109.231-109.23zM121.906-45.598l-.354.354 109.231 109.23.353-.354-109.23-109.23zM121.149-44.841l-.354.354 109.231 109.23.353-.354-109.23-109.23zM120.392-44.084l-.354.354L229.269 65.5l.354-.353L120.392-44.084zM119.635-43.327l-.354.354 109.231 109.23.353-.353-109.23-109.231zM118.878-42.571l-.354.354 109.231 109.23.353-.353-109.23-109.231zM118.121-41.814l-.354.354L226.998 67.77l.354-.353L118.121-41.814zM117.364-41.056l-.354.354 109.231 109.23.354-.354-109.231-109.23zM116.607-40.299l-.354.354 109.231 109.23.353-.354-109.23-109.23zM115.85-39.542l-.354.354 109.231 109.23.353-.354-109.23-109.23zM115.093-38.785l-.354.354L223.97 70.799l.354-.353L115.093-38.785zM114.336-38.029l-.354.354 109.231 109.23.353-.353-109.23-109.231zM113.579-37.272l-.354.354 109.231 109.23.353-.353-109.23-109.231zM112.822-36.515l-.354.354 109.231 109.23.354-.353L112.822-36.515zM112.065-35.757l-.354.354 109.231 109.23.354-.354-109.231-109.23zM111.308-35l-.354.354 109.231 109.23.353-.354L111.308-35zM110.551-34.243l-.354.354 109.231 109.23.353-.354-109.23-109.23zM109.794-33.487l-.354.354 109.231 109.23.354-.353L109.794-33.487zM109.037-32.73l-.354.354 109.231 109.23.353-.353L109.037-32.73zM108.28-31.973l-.354.354 109.231 109.23.353-.353L108.28-31.973zM107.523-31.216l-.354.354L216.4 78.368l.354-.353L107.523-31.216zM106.766-30.458l-.354.354 109.231 109.23.354-.354-109.231-109.23zM106.009-29.701l-.354.354 109.231 109.23.353-.354-109.23-109.23zM105.253-28.945l-.354.354L214.13 80.639l.353-.354-109.23-109.23zM104.495-28.188l-.354.354 109.231 109.23.354-.353L104.495-28.188zM103.738-27.431l-.354.354 109.231 109.23.353-.353-109.23-109.231zM102.982-26.674l-.354.354L211.859 82.91l.353-.353-109.23-109.231zM102.224-25.917l-.354.354L211.101 83.668l.354-.354L102.224-25.917zM101.467-25.159l-.354.354 109.231 109.23.354-.354-109.231-109.23zM100.711-24.403l-.354.354 109.231 109.23.353-.354-109.23-109.23zM99.953-23.646l-.354.354L208.83 85.938l.354-.354L99.953-23.646zM99.196-22.889l-.354.354 109.231 109.23.354-.353L99.196-22.889zM98.44-22.132l-.354.354 109.231 109.23.353-.353L98.44-22.132zM97.683-21.375l-.354.354L206.56 88.209l.353-.353L97.683-21.375zM96.925-20.617l-.354.354 109.231 109.23.354-.354L96.925-20.617zM96.169-19.861l-.354.354 109.231 109.23.353-.354-109.23-109.23zM95.412-19.104l-.354.354L204.289 90.48l.353-.354-109.23-109.23zM94.654-18.347l-.354.354 109.231 109.23.354-.354L94.654-18.347zM93.898-17.59l-.354.354 109.231 109.23.354-.353L93.898-17.59zM93.141-16.833l-.354.354 109.231 109.23.353-.353L93.141-16.833zM92.384-16.076l-.354.354 109.231 109.23.353-.353L92.384-16.076zM91.627-15.319l-.354.354 109.231 109.23.354-.354L91.627-15.319zM90.87-14.562l-.354.354 109.231 109.23.353-.354L90.87-14.562zM90.113-13.805l-.354.354L198.99 95.779l.353-.354-109.23-109.23zM89.356-13.048l-.354.354 109.231 109.23.354-.354L89.356-13.048zM88.599-12.291l-.354.354 109.231 109.23.354-.353L88.599-12.291zM87.842-11.534l-.354.354L196.719 98.05l.353-.353L87.842-11.534zM87.085-10.778l-.354.354 109.231 109.23.353-.353L87.085-10.778zM86.328-10.02l-.354.354 109.231 109.23.354-.354L86.328-10.02zM85.571-9.263l-.354.354 109.231 109.23.353-.354L85.571-9.263zM84.814-8.506l-.354.354 109.231 109.23.353-.354L84.814-8.506zM84.057-7.749l-.354.354 109.231 109.23.354-.354L84.057-7.749zM83.3-6.992l-.354.354 109.231 109.23.354-.353L83.3-6.992zM82.543-6.236l-.354.354 109.231 109.23.353-.353L82.543-6.236zM81.786-5.479l-.354.354 109.231 109.23.353-.353L81.786-5.479zM81.029-4.721l-.354.354 109.231 109.23.354-.354L81.029-4.721zM80.272-3.964l-.354.354 109.231 109.23.353-.354L80.272-3.964zM79.515-3.207l-.354.354 109.231 109.23.353-.354L79.515-3.207zM78.758-2.45l-.354.354 109.231 109.23.354-.353L78.758-2.45zM78.001-1.694l-.354.354 109.231 109.23.354-.353L78.001-1.694zM77.244-.937l-.354.354 109.231 109.23.353-.353L77.244-.937zM76.487-.179l-.354.354 109.231 109.23.353-.354L76.487-.179zM75.73.577l-.354.354 109.231 109.23.354-.353L75.73.577zM74.973 1.334l-.354.354 109.231 109.23.353-.353L74.973 1.334zM74.216 2.092l-.354.354 109.231 109.23.353-.354L74.216 2.092zM73.459 2.848l-.354.354 109.231 109.23.354-.353L73.459 2.848zM72.702 3.605l-.354.354 109.231 109.23.354-.353L72.702 3.605zM71.945 4.363l-.354.353 109.231 109.23.353-.354L71.945 4.363zM71.188 5.119l-.354.354 109.231 109.23.354-.354L71.188 5.119zM70.431 5.876l-.354.354 109.231 109.23.354-.353L70.431 5.876zM69.674 6.633l-.354.354 109.231 109.23.353-.353L69.674 6.633zM68.918 7.39l-.354.354 109.231 109.23.353-.354L68.918 7.39zM68.16 8.147l-.354.354 109.231 109.23.354-.353L68.16 8.147zM67.404 8.904l-.355.354 109.232 109.23.352-.353L67.404 8.904zM66.647 9.661l-.354.354 109.231 109.23.353-.354L66.647 9.661zM65.889 10.418l-.354.354 109.231 109.23.354-.354L65.889 10.418zM65.132 11.175l-.354.354 109.231 109.23.354-.353L65.132 11.175zM64.376 11.932l-.354.354 109.231 109.23.353-.353L64.376 11.932zM63.619 12.689l-.354.354 109.231 109.23.353-.354-109.23-109.23zM62.861 13.446l-.354.354 109.231 109.23.354-.353L62.861 13.446zM62.105 14.203l-.354.354 109.231 109.23.353-.353L62.105 14.203zM61.348 14.96l-.354.354 109.231 109.23.353-.354L61.348 14.96zM60.59 15.717l-.354.354 109.231 109.23.355-.354L60.59 15.717zM59.834 16.474l-.354.354 109.231 109.23.354-.353L59.834 16.474zM59.077 17.231l-.354.354 109.231 109.23.353-.354-109.23-109.23zM58.32 17.988l-.354.354 109.231 109.23.353-.354L58.32 17.988zM57.563 18.745l-.354.354 109.231 109.23.354-.353L57.563 18.745zM56.806 19.502l-.354.354 109.231 109.23.353-.353L56.806 19.502zM56.049 20.259l-.354.354 109.231 109.23.353-.354-109.23-109.23zM55.292 21.016l-.354.354L164.169 130.6l.354-.353L55.292 21.016zM54.535 21.773l-.354.354 109.231 109.23.354-.353L54.535 21.773zM53.778 22.53l-.354.354 109.231 109.23.353-.354L53.778 22.53zM53.021 23.287l-.354.354 109.231 109.23.353-.354-109.23-109.23zM52.264 24.044l-.354.354 109.231 109.23.354-.353L52.264 24.044zM51.507 24.801l-.354.353 109.231 109.23.353-.353-109.23-109.23zM50.75 25.558l-.354.354 109.231 109.23.353-.354L50.75 25.558zM49.993 26.315l-.354.354 109.231 109.23.354-.353L49.993 26.315zM49.236 27.072l-.354.353 109.231 109.23.354-.353L49.236 27.072zM48.479 27.829l-.354.354 109.231 109.23.353-.354-109.23-109.23zM47.722 28.586l-.354.354 109.231 109.23.354-.354L47.722 28.586zM46.965 29.343l-.354.353 109.231 109.23.354-.352L46.965 29.343zM46.208 30.099l-.354.354 109.231 109.23.353-.353L46.208 30.099zM45.451 30.857l-.354.354 109.231 109.23.353-.354-109.23-109.23zM44.694 31.614l-.354.353 109.231 109.23.354-.353L44.694 31.614zM43.937 32.37l-.354.354 109.231 109.23.354-.353L43.937 32.37zM43.18 33.128l-.354.354 109.231 109.23.353-.354L43.18 33.128zM42.423 33.884l-.354.354L151.3 143.468l.354-.353L42.423 33.884zM41.666 34.641l-.354.354 109.231 109.23.354-.353L41.666 34.641zM40.909 35.398l-.354.354 109.231 109.23.353-.353L40.909 35.398zM40.153 36.155l-.354.354 109.23 109.23.353-.354L40.153 36.155zM39.395 36.912l-.354.354 109.231 109.23.354-.353L39.395 36.912zM38.638 37.669l-.354.354 109.231 109.23.353-.353L38.638 37.669z"/></g><path fill="#fff" d="M140.923 0H36.615l45.539 45.077v42.769h12.628L140.923 0z"/><g clip-path="url(#f)"><path fill="#f7f6fa" d="M35.185-24.905h113.087V90.753H35.185z"/><path fill="#ede2ef" d="M23.839-.491h154.476v.5H23.839zM23.839.579h154.476v.5H23.839zM23.839 1.65h154.476v.5H23.839zM23.839 2.72h154.476v.5H23.839zM23.839 3.791h154.476v.5H23.839zM23.839 4.862h154.476v.5H23.839zM23.839 5.932h154.476v.5H23.839zM23.839 7.003h154.476v.5H23.839zM23.839 8.073h154.476v.5H23.839zM23.839 9.144h154.476v.5H23.839zM23.839 10.214h154.476v.5H23.839zM23.839 11.284h154.476v.5H23.839zM23.839 12.355h154.476v.5H23.839zM23.839 13.426h154.476v.5H23.839zM23.839 14.496h154.476v.5H23.839zM23.839 15.567h154.476v.5H23.839zM23.839 16.637h154.476v.5H23.839zM23.839 17.708h154.476v.5H23.839zM23.839 18.779h154.476v.5H23.839zM23.839 19.849h154.476v.5H23.839zM23.839 20.919h154.476v.5H23.839zM23.839 21.99h154.476v.5H23.839zM23.839 23.06h154.476v.5H23.839zM23.839 24.131h154.476v.5H23.839zM23.839 25.201h154.476v.5H23.839zM23.839 26.272h154.476v.5H23.839zM23.839 27.343h154.476v.5H23.839zM23.839 28.413h154.476v.5H23.839zM23.839 29.484h154.476v.5H23.839zM23.839 30.554h154.476v.5H23.839zM23.839 31.625h154.476v.5H23.839zM23.839 32.695h154.476v.5H23.839zM23.839 33.766h154.476v.5H23.839zM23.839 34.836h154.476v.5H23.839zM23.839 35.907h154.476v.5H23.839zM23.839 36.977h154.476v.5H23.839zM23.839 38.048h154.476v.5H23.839zM23.839 39.118h154.476v.5H23.839zM23.839 40.189h154.476v.5H23.839zM23.839 41.26h154.476v.5H23.839zM23.839 42.33h154.476v.5H23.839zM23.839 43.401h154.476v.5H23.839zM23.839 44.471h154.476v.5H23.839zM23.839 45.542h154.476v.5H23.839zM23.839 46.612h154.476v.5H23.839zM23.839 47.682h154.476v.5H23.839zM23.839 48.753h154.476v.5H23.839zM23.839 49.823h154.476v.5H23.839zM23.839 50.894h154.476v.5H23.839zM23.839 51.965h154.476v.5H23.839zM23.839 53.035h154.476v.5H23.839zM23.839 54.106h154.476v.5H23.839zM23.839 55.177h154.476v.5H23.839zM23.839 56.247h154.476v.5H23.839zM23.839 57.317h154.476v.5H23.839zM23.839 58.388h154.476v.5H23.839zM23.839 59.458h154.476v.5H23.839zM23.839 60.529h154.476v.5H23.839zM23.839 61.599h154.476v.5H23.839zM23.839 62.67h154.476v.5H23.839zM23.839 63.74h154.476v.5H23.839zM23.839 64.811h154.476v.5H23.839zM23.839 65.882h154.476v.5H23.839zM23.839 66.952h154.476v.5H23.839zM23.839 68.023h154.476v.5H23.839zM23.839 69.093h154.476v.5H23.839zM23.839 70.164h154.476v.5H23.839zM23.839 71.234h154.476v.5H23.839zM23.839 72.305h154.476v.5H23.839zM23.839 73.375h154.476v.5H23.839zM23.839 74.446h154.476v.5H23.839zM23.839 75.516h154.476v.5H23.839zM23.839 76.587h154.476v.5H23.839zM23.839 77.657h154.476v.5H23.839zM23.839 78.728h154.476v.5H23.839zM23.839 79.799h154.476v.5H23.839zM23.839 80.869h154.476v.5H23.839zM23.839 81.94h154.476v.5H23.839zM23.839 83.01h154.476v.5H23.839zM23.839 84.08h154.476v.5H23.839zM23.839 85.151h154.476v.5H23.839zM23.839 86.221h154.476v.5H23.839zM23.839 87.292h154.476v.5H23.839zM23.839 88.363h154.476v.5H23.839zM23.839 89.433h154.476v.5H23.839zM23.839 90.504h154.476v.5H23.839zM23.839 91.574h154.476v.5H23.839zM23.839 92.645h154.476v.5H23.839zM23.839 93.715h154.476v.5H23.839zM23.839 94.786h154.476v.5H23.839zM23.839 95.856h154.476v.5H23.839zM23.839 96.927h154.476v.5H23.839zM23.839 97.997h154.476v.5H23.839zM23.839 99.068h154.476v.5H23.839zM23.839 100.138h154.476v.5H23.839zM23.839 101.209h154.476v.5H23.839zM23.839 102.28h154.476v.5H23.839zM23.839 103.35h154.476v.5H23.839zM23.839 104.421h154.476v.5H23.839zM23.839 105.491h154.476v.5H23.839zM23.839 106.562h154.476v.5H23.839zM23.839 107.632h154.476v.5H23.839zM23.839 108.703h154.476v.5H23.839zM23.839 109.773h154.476v.5H23.839z"/></g><g clip-path="url(#g)"><path fill="#f7f6fa" d="M-.172-32.918h108.723V88.363H-.172z"/><path fill="#ede2ef" d="M97.815-24.905h.5v154.476h-.5zM96.745-24.905h.5v154.476h-.5zM95.674-24.905h.5v154.476h-.5zM94.604-24.905h.5v154.476h-.5zM93.533-24.905h.5v154.476h-.5zM92.463-24.905h.5v154.476h-.5zM91.392-24.904h.5v154.476h-.5zM90.321-24.905h.5v154.476h-.5zM89.251-24.905h.5v154.476h-.5zM88.18-24.905h.5v154.476h-.5zM87.11-24.905h.5v154.476h-.5zM86.039-24.905h.5v154.476h-.5zM84.969-24.905h.5v154.476h-.5zM83.898-24.905h.5v154.476h-.5zM82.828-24.905h.5v154.476h-.5zM81.757-24.905h.5v154.476h-.5zM80.687-24.905h.5v154.476h-.5zM79.616-24.905h.5v154.476h-.5zM78.546-24.905h.5v154.476h-.5zM77.475-24.905h.5v154.476h-.5zM76.404-24.905h.5v154.476h-.5zM75.334-24.905h.5v154.476h-.5zM74.263-24.905h.5v154.476h-.5zM73.193-24.905h.5v154.476h-.5zM72.123-24.905h.5v154.476h-.5zM71.052-24.905h.5v154.476h-.5zM69.982-24.905h.5v154.476h-.5zM68.911-24.905h.5v154.476h-.5zM67.84-24.905h.5v154.476h-.5zM66.77-24.905h.5v154.476h-.5zM65.699-24.905h.5v154.476h-.5zM64.629-24.904h.5v154.476h-.5zM63.558-24.905h.5v154.476h-.5zM62.488-24.905h.5v154.476h-.5zM61.417-24.905h.5v154.476h-.5zM60.347-24.905h.5v154.476h-.5zM59.276-24.905h.5v154.476h-.5zM58.206-24.905h.5v154.476h-.5zM57.135-24.905h.5v154.476h-.5zM56.065-24.905h.5v154.476h-.5zM54.994-24.905h.5v154.476h-.5zM53.923-24.905h.5v154.476h-.5zM52.853-24.905h.5v154.476h-.5zM51.782-24.905h.5v154.476h-.5zM50.712-24.905h.5v154.476h-.5zM49.641-24.905h.5v154.476h-.5zM48.571-24.905h.5v154.476h-.5zM47.5-24.905h.5v154.476h-.5zM46.43-24.905h.5v154.476h-.5zM45.359-24.905h.5v154.476h-.5zM44.289-24.905h.5v154.476h-.5zM43.218-24.905h.5v154.476h-.5zM42.148-24.905h.5v154.476h-.5zM41.077-24.905h.5v154.476h-.5zM40.006-24.905h.5v154.476h-.5zM38.936-24.905h.5v154.476h-.5zM37.865-24.905h.5v154.476h-.5zM36.795-24.905h.5v154.476h-.5zM35.725-24.905h.5v154.476h-.5zM34.654-24.905h.5v154.476h-.5zM33.584-24.905h.5v154.476h-.5zM32.513-24.905h.5v154.476h-.5zM31.443-24.905h.5v154.476h-.5zM30.372-24.905h.5v154.476h-.5zM29.301-24.905h.5v154.476h-.5zM28.231-24.904h.5v154.476h-.5zM27.16-24.905h.5v154.476h-.5zM26.09-24.905h.5v154.476h-.5zM25.019-24.905h.5v154.476h-.5zM23.949-24.905h.5v154.476h-.5zM22.878-24.905h.5v154.476h-.5zM21.808-24.905h.5v154.476h-.5zM20.737-24.905h.5v154.476h-.5zM19.667-24.905h.5v154.476h-.5zM18.596-24.905h.5v154.476h-.5zM17.526-24.905h.5v154.476h-.5zM16.455-24.905h.5v154.476h-.5zM15.384-24.905h.5v154.476h-.5zM14.314-24.905h.5v154.476h-.5zM13.243-24.905h.5v154.476h-.5zM12.173-24.905h.5v154.476h-.5zM11.102-24.905h.5v154.476h-.5zM10.032-24.905h.5v154.476h-.5zM8.962-24.905h.5v154.476h-.5zM7.891-24.905h.5v154.476h-.5zM6.82-24.905h.5v154.476h-.5zM5.75-24.905h.5v154.476h-.5zM4.679-24.905h.5v154.476h-.5zM3.609-24.905h.5v154.476h-.5zM2.538-24.905h.5v154.476h-.5zM1.467-24.905h.5v154.476h-.5zM.397-24.905h.5v154.476h-.5z"/></g><path fill="#fff" d="M25.86 175.692l46.141-87.846H0l.014 87.846H25.86zM166.783 175.692V87.846H84.629v42.615l45.539 45.231h36.615z"/><g clip-path="url(#h)"><path fill="#f7f6fa" d="M-26.635 78.527H78.354v107.814H-26.635z"/><path fill="#ede2ef" d="M-66.271 113.977l-.354.354 109.231 109.23.354-.354-109.231-109.23zM-65.514 113.22l-.354.354 109.231 109.23.353-.353-109.23-109.231zM-64.757 112.463l-.354.354L44.12 222.047l.353-.354-109.23-109.23zM-64 111.706l-.354.354L44.877 221.29l.354-.354L-64 111.706zM-63.243 110.949l-.354.354 109.23 109.23.355-.353-109.231-109.231zM-62.486 110.192l-.354.354 109.231 109.23.353-.353-109.23-109.231zM-61.729 109.435l-.354.354 109.231 109.23.353-.354-109.23-109.23zM-60.972 108.678l-.354.354 109.23 109.23.355-.353-109.231-109.231zM-60.215 107.921l-.354.354 109.231 109.23.353-.353-109.23-109.231zM-59.458 107.164l-.354.354 109.231 109.23.353-.354-109.23-109.23zM-58.701 106.408l-.355.353L50.175 215.992l.355-.355-109.231-109.229zM-57.945 105.65l-.354.354 109.231 109.23.354-.353L-57.945 105.65zM-57.187 104.893l-.354.354L51.69 214.477l.353-.353-109.23-109.231zM-56.431 104.136l-.354.354L52.446 213.72l.354-.353-109.231-109.231zM-55.674 103.379l-.354.354 109.231 109.23.354-.353-109.231-109.231zM-54.916 102.622l-.354.354 109.231 109.23.353-.353-109.23-109.231zM-54.16 101.866l-.354.353 109.231 109.23.354-.353-109.231-109.23zM-53.403 101.109l-.354.354 109.231 109.23.354-.354-109.231-109.23zM-52.646 100.351l-.354.354 109.231 109.23.354-.353-109.231-109.231zM-51.889 99.594l-.354.354 109.231 109.23.354-.352L-51.889 99.594zM-51.132 98.838l-.354.354 109.231 109.23.353-.354-109.23-109.23zM-50.375 98.08l-.354.354 109.231 109.23.354-.353L-50.375 98.08zM-49.618 97.324l-.354.353L59.259 206.908l.353-.353-109.23-109.231zM-48.861 96.567l-.354.354 109.231 109.23.353-.354-109.23-109.23zM-48.104 95.81l-.354.354 109.231 109.23.354-.354L-48.104 95.81zM-47.347 95.052l-.354.354L61.53 204.636l.354-.353L-47.347 95.052zM-46.59 94.296l-.354.354L62.287 203.88l.353-.354-109.23-109.23zM-45.833 93.539l-.354.354 109.231 109.23.354-.354-109.231-109.23zM-45.076 92.782l-.354.353 109.231 109.23.354-.353-109.231-109.23zM-44.319 92.025l-.354.354 109.231 109.23.353-.353-109.23-109.231zM-43.562 91.268l-.354.354 109.231 109.23.353-.354-109.23-109.23zM-42.805 90.511l-.354.354 109.231 109.23.354-.354-109.231-109.23zM-42.048 89.754l-.354.354 109.231 109.23.354-.353L-42.048 89.754zM-41.291 88.997l-.354.354 109.231 109.23.353-.354-109.23-109.23zM-40.534 88.24l-.354.354 109.231 109.23.354-.354L-40.534 88.24zM-39.777 87.483l-.354.354L69.1 197.067l.354-.353L-39.777 87.483zM-39.02 86.726l-.354.354L69.857 196.31l.353-.353L-39.02 86.726zM-38.263 85.969l-.354.354 109.231 109.23.353-.354-109.23-109.23zM-37.506 85.212l-.354.354 109.231 109.23.354-.353L-37.506 85.212zM-36.749 84.455l-.354.354 109.231 109.23.353-.353-109.23-109.231zM-35.992 83.698l-.354.354 109.231 109.23.353-.354-109.23-109.23zM-35.235 82.941l-.354.354 109.231 109.23.354-.354-109.231-109.23zM-34.478 82.184l-.354.354 109.231 109.23.354-.353L-34.478 82.184zM-33.721 81.427l-.354.354 109.231 109.23.353-.353-109.23-109.231zM-32.964 80.67l-.354.354 109.231 109.23.353-.354-109.23-109.23zM-32.207 79.913l-.354.354L76.67 189.497l.354-.353L-32.207 79.913zM-31.45 79.156l-.354.354L77.427 188.74l.353-.353L-31.45 79.156zM-30.693 78.399l-.354.354 109.231 109.23.353-.354-109.23-109.23zM-29.936 77.642l-.354.354 109.231 109.23.354-.354-109.231-109.23zM-29.18 76.885l-.354.354 109.231 109.23.354-.353L-29.18 76.885zM-28.422 76.128l-.354.354 109.231 109.23.353-.353-109.23-109.231zM-27.665 75.371l-.354.354 109.231 109.23.353-.354-109.23-109.23zM-26.909 74.614l-.354.354 109.231 109.23.354-.353L-26.909 74.614zM-26.151 73.857l-.354.354 109.231 109.23.353-.353-109.23-109.231zM-25.394 73.1l-.354.354 109.231 109.23.353-.354L-25.394 73.1zM-24.638 72.343l-.354.354 109.231 109.23.354-.353L-24.638 72.343zM-23.881 71.586l-.354.354L84.996 181.17l.354-.353L-23.881 71.586zM-23.123 70.829l-.354.354 109.231 109.23.353-.354-109.23-109.23zM-22.367 70.073l-.354.353L86.51 179.656l.353-.353-109.23-109.23zM-21.61 69.315l-.354.354 109.231 109.23.354-.353L-21.61 69.315zM-20.852 68.558l-.354.354 109.231 109.23.353-.353-109.23-109.231zM-20.096 67.801l-.354.354 109.231 109.23.353-.354-109.23-109.23zM-19.339 67.045l-.354.354 109.231 109.23.354-.354-109.231-109.23zM-18.582 66.287l-.354.354 109.231 109.23.354-.353L-18.582 66.287zM-17.825 65.531l-.354.353L91.052 175.115l.353-.355-109.23-109.229zM-17.068 64.774l-.354.354 109.231 109.23.354-.354-109.231-109.23zM-16.311 64.016l-.354.354L92.566 173.6l.354-.353L-16.311 64.016zM-15.554 63.259l-.354.354 109.231 109.23.353-.353-109.23-109.231zM-14.797 62.503l-.354.354L94.08 172.087l.353-.354-109.23-109.23zM-14.04 61.745l-.354.354 109.231 109.23.354-.353L-14.04 61.745zM-13.283 60.988l-.354.354 109.231 109.23.353-.353-109.23-109.231zM-12.526 60.232l-.354.354 109.231 109.23.353-.354-109.23-109.23zM-11.769 59.475l-.354.354 109.231 109.23.354-.354-109.231-109.23zM-11.012 58.717l-.354.354 109.231 109.23.354-.352L-11.012 58.717zM-10.255 57.961l-.354.354 109.231 109.23.353-.353-109.23-109.231zM-9.498 57.204l-.354.354 109.231 109.23.353-.354-109.23-109.23zM-8.741 56.446l-.354.354 109.231 109.23.354-.353L-8.741 56.446zM-7.984 55.69l-.354.354 109.231 109.23.353-.353L-7.984 55.69zM-7.227 54.933l-.354.354 109.231 109.23.353-.354-109.23-109.23zM-6.47 54.176l-.354.354 109.231 109.23.354-.354L-6.47 54.176zM-5.713 53.419l-.354.354 109.231 109.23.354-.353L-5.713 53.419zM-4.956 52.662l-.354.354 109.231 109.23.353-.353L-4.956 52.662zM-4.199 51.905l-.354.354 109.231 109.23.353-.354-109.23-109.23zM-3.442 51.148l-.354.354 109.231 109.23.354-.353L-3.442 51.148zM-2.685 50.391l-.354.354 109.231 109.23.353-.353L-2.685 50.391zM-1.928 49.634l-.354.354 109.231 109.23.353-.354-109.23-109.23zM-1.171 48.877l-.354.354 109.231 109.23.354-.354L-1.171 48.877zM-.414 48.12l-.354.354 109.231 109.23.354-.353L-.414 48.12zM.343 47.363l-.354.354 109.231 109.23.353-.354L.343 47.363zM1.1 46.606l-.354.354 109.231 109.23.353-.354L1.1 46.606zM1.857 45.849l-.354.354 109.231 109.23.354-.353L1.857 45.849zM2.614 45.092l-.354.354 109.231 109.23.353-.353L2.614 45.092zM3.371 44.335l-.354.354 109.231 109.23.353-.354L3.371 44.335zM4.128 43.578l-.354.354 109.231 109.23.354-.354L4.128 43.578zM4.884 42.821l-.354.354 109.231 109.23.354-.353L4.884 42.821zM5.642 42.064l-.354.354 109.231 109.23.353-.354L5.642 42.064zM6.399 41.307l-.354.354 109.231 109.23.354-.354L6.399 41.307zM7.155 40.55l-.354.354 109.231 109.23.354-.353L7.155 40.55zM7.913 39.793l-.354.354 109.231 109.23.353-.353L7.913 39.793zM8.67 39.036l-.354.354 109.231 109.23.353-.354L8.67 39.036zM9.426 38.279l-.354.354 109.231 109.23.354-.353L9.426 38.279zM10.183 37.522l-.354.354 109.231 109.23.354-.353L10.183 37.522zM10.941 36.765l-.354.354 109.231 109.23.353-.354-109.23-109.23zM11.697 36.008l-.354.354 109.231 109.23.354-.354L11.697 36.008zM12.454 35.251l-.354.354 109.231 109.23.354-.353L12.454 35.251zM13.212 34.494l-.354.354 109.23 109.23.353-.353L13.212 34.494zM13.968 33.737l-.354.354 109.231 109.23.353-.354-109.23-109.23zM14.725 32.98l-.354.354 109.231 109.23.354-.353L14.725 32.98zM15.483 32.223l-.355.354 109.231 109.23.354-.353L15.483 32.223zM16.239 31.467l-.354.354 109.231 109.23.353-.354-109.23-109.23zM16.996 30.71l-.354.354 109.231 109.23.354-.354L16.996 30.71zM17.753 29.952l-.354.354 109.231 109.23.354-.353L17.753 29.952zM18.51 29.196l-.354.354 109.231 109.23.353-.353L18.51 29.196zM19.267 28.439l-.354.354 109.231 109.23.353-.354-109.23-109.23z"/></g><path fill="#fff" d="M25.86 175.692h104.308l-45.539-45.077V87.846H72.001L25.86 175.692z"/><g clip-path="url(#i)"><path fill="#f7f6fa" d="M-5.166 65.419h148.109V193.19H-5.166z"/><path fill="#ede2ef" d="M-11.533 175.683h154.476v.5H-11.533zM-11.533 174.613h154.476v.5H-11.533zM-11.533 173.542h154.476v.5H-11.533zM-11.533 172.472h154.476v.5H-11.533zM-11.533 171.401h154.476v.5H-11.533zM-11.533 170.331h154.476v.5H-11.533zM-11.533 169.26h154.476v.5H-11.533zM-11.533 168.19h154.476v.5H-11.533zM-11.533 167.119h154.476v.5H-11.533zM-11.533 166.049h154.476v.5H-11.533zM-11.533 164.978h154.476v.5H-11.533zM-11.533 163.907h154.476v.5H-11.533zM-11.533 162.837h154.476v.5H-11.533zM-11.533 161.766h154.476v.5H-11.533zM-11.533 160.696h154.476v.5H-11.533zM-11.533 159.625h154.476v.5H-11.533zM-11.533 158.555h154.476v.5H-11.533zM-11.533 157.484h154.476v.5H-11.533zM-11.533 156.414h154.476v.5H-11.533zM-11.533 155.344h154.476v.5H-11.533zM-11.533 154.273h154.476v.5H-11.533zM-11.533 153.202h154.476v.5H-11.533zM-11.533 152.132h154.476v.5H-11.533zM-11.533 151.061h154.476v.5H-11.533zM-11.533 149.99h154.476v.5H-11.533zM-11.533 148.92h154.476v.5H-11.533zM-11.532 147.849h154.476v.5H-11.532zM-11.533 146.779h154.476v.5H-11.533zM-11.533 145.709h154.476v.5H-11.533zM-11.533 144.638h154.476v.5H-11.533zM-11.533 143.568h154.476v.5H-11.533zM-11.533 142.497h154.476v.5H-11.533zM-11.533 141.427h154.476v.5H-11.533zM-11.533 140.356h154.476v.5H-11.533zM-11.533 139.285h154.476v.5H-11.533zM-11.533 138.215h154.476v.5H-11.533zM-11.533 137.144h154.476v.5H-11.533zM-11.533 136.074h154.476v.5H-11.533zM-11.533 135.003h154.476v.5H-11.533zM-11.533 133.933h154.476v.5H-11.533zM-11.533 132.862h154.476v.5H-11.533zM-11.533 131.792h154.476v.5H-11.533zM-11.533 130.721h154.476v.5H-11.533zM-11.533 129.651h154.476v.5H-11.533zM-11.533 128.58h154.476v.5H-11.533zM-11.533 127.51h154.476v.5H-11.533zM-11.533 126.439h154.476v.5H-11.533zM-11.533 125.368h154.476v.5H-11.533zM-11.533 124.298h154.476v.5H-11.533zM-11.533 123.227h154.476v.5H-11.533zM-11.533 122.157h154.476v.5H-11.533zM-11.533 121.086h154.476v.5H-11.533zM-11.533 120.016h154.476v.5H-11.533zM-11.533 118.946h154.476v.5H-11.533zM-11.533 117.875h154.476v.5H-11.533zM-11.533 116.804h154.476v.5H-11.533zM-11.533 115.734h154.476v.5H-11.533zM-11.533 114.663h154.476v.5H-11.533zM-11.533 113.593h154.476v.5H-11.533zM-11.533 112.522h154.476v.5H-11.533zM-11.532 111.451h154.476v.5H-11.532zM-11.533 110.381h154.476v.5H-11.533zM-11.533 109.311h154.476v.5H-11.533zM-11.533 108.24h154.476v.5H-11.533zM-11.533 107.17h154.476v.5H-11.533zM-11.533 106.099h154.476v.5H-11.533zM-11.533 105.029h154.476v.5H-11.533zM-11.533 103.958h154.476v.5H-11.533zM-11.533 102.887h154.476v.5H-11.533zM-11.533 101.817h154.476v.5H-11.533zM-11.533 100.746h154.476v.5H-11.533zM-11.533 99.676h154.476v.5H-11.533zM-11.533 98.605h154.476v.5H-11.533zM-11.533 97.535h154.476v.5H-11.533zM-11.533 96.464h154.476v.5H-11.533zM-11.533 95.394h154.476v.5H-11.533zM-11.533 94.323h154.476v.5H-11.533zM-11.533 93.253h154.476v.5H-11.533zM-11.533 92.182h154.476v.5H-11.533zM-11.533 91.112h154.476v.5H-11.533zM-11.533 90.041h154.476v.5H-11.533zM-11.533 88.97h154.476v.5H-11.533zM-11.533 87.9h154.476v.5H-11.533zM-11.533 86.829h154.476v.5H-11.533zM-11.533 85.759h154.476v.5H-11.533zM-11.533 84.688h154.476v.5H-11.533zM-11.533 83.618h154.476v.5H-11.533zM-11.533 82.548h154.476v.5H-11.533zM-11.533 81.477h154.476v.5H-11.533zM-11.533 80.407h154.476v.5H-11.533zM-11.533 79.336h154.476v.5H-11.533zM-11.533 78.265h154.476v.5H-11.533zM-11.533 77.195h154.476v.5H-11.533zM-11.533 76.124h154.476v.5H-11.533zM-11.532 75.053h154.476v.5H-11.532zM-11.533 73.983h154.476v.5H-11.533zM-11.533 72.913h154.476v.5H-11.533zM-11.533 71.842h154.476v.5H-11.533zM-11.533 70.772h154.476v.5H-11.533zM-11.533 69.701h154.476v.5H-11.533zM-11.533 68.631h154.476v.5H-11.533zM-11.533 67.56h154.476v.5H-11.533zM-11.533 66.49h154.476v.5H-11.533zM-11.533 65.419h154.476v.5H-11.533z"/></g><g clip-path="url(#j)"><path fill="#f7f6fa" d="M64.793 15.03h178.049v185.567H64.793z"/><path fill="#ede2ef" d="M64.971 46.121h.5v154.476h-.5zM66.042 46.121h.5v154.476h-.5zM67.112 46.121h.5v154.476h-.5zM68.183 46.121h.5v154.476h-.5zM69.253 46.121h.5v154.476h-.5zM70.324 46.121h.5v154.476h-.5zM71.394 46.121h.5v154.476h-.5zM72.464 46.121h.5v154.476h-.5zM73.535 46.121h.5v154.476h-.5zM74.606 46.121h.5v154.476h-.5zM75.676 46.121h.5v154.476h-.5zM76.747 46.121h.5v154.476h-.5zM77.818 46.121h.5v154.476h-.5zM78.888 46.121h.5v154.476h-.5zM79.958 46.121h.5v154.476h-.5zM81.029 46.121h.5v154.476h-.5zM82.099 46.121h.5v154.476h-.5zM83.17 46.121h.5v154.476h-.5zM84.24 46.121h.5v154.476h-.5zM85.311 46.121h.5v154.476h-.5zM86.381 46.121h.5v154.476h-.5zM87.452 46.121h.5v154.476h-.5zM88.523 46.121h.5v154.476h-.5zM89.593 46.121h.5v154.476h-.5zM90.664 46.121h.5v154.476h-.5zM91.734 46.121h.5v154.476h-.5zM92.805 46.121h.5v154.476h-.5zM93.875 46.121h.5v154.476h-.5zM94.946 46.121h.5v154.476h-.5zM96.016 46.121h.5v154.476h-.5zM97.087 46.121h.5v154.476h-.5zM98.157 46.121h.5v154.476h-.5zM99.228 46.121h.5v154.476h-.5zM100.298 46.121h.5v154.476h-.5zM101.369 46.121h.5v154.476h-.5zM102.44 46.121h.5v154.476h-.5zM103.51 46.121h.5v154.476h-.5zM104.581 46.121h.5v154.476h-.5zM105.651 46.121h.5v154.476h-.5zM106.722 46.121h.5v154.476h-.5zM107.792 46.121h.5v154.476h-.5zM108.862 46.121h.5v154.476h-.5zM109.933 46.121h.5v154.476h-.5zM111.004 46.121h.5v154.476h-.5zM112.074 46.121h.5v154.476h-.5zM113.145 46.121h.5v154.476h-.5zM114.215 46.121h.5v154.476h-.5zM115.286 46.121h.5v154.476h-.5zM116.356 46.121h.5v154.476h-.5zM117.427 46.121h.5v154.476h-.5zM118.497 46.121h.5v154.476h-.5zM119.568 46.121h.5v154.476h-.5zM120.638 46.121h.5v154.476h-.5zM121.709 46.121h.5v154.476h-.5zM122.779 46.121h.5v154.476h-.5zM123.85 46.121h.5v154.476h-.5zM124.921 46.121h.5v154.476h-.5zM125.991 46.121h.5v154.476h-.5zM127.062 46.121h.5v154.476h-.5zM128.132 46.121h.5v154.476h-.5zM129.203 46.121h.5v154.476h-.5zM130.273 46.121h.5v154.476h-.5zM131.344 46.121h.5v154.476h-.5zM132.414 46.121h.5v154.476h-.5zM133.485 46.121h.5v154.476h-.5zM134.555 46.121h.5v154.476h-.5zM135.626 46.121h.5v154.476h-.5zM136.696 46.121h.5v154.476h-.5zM137.767 46.121h.5v154.476h-.5zM138.838 46.121h.5v154.476h-.5zM139.908 46.121h.5v154.476h-.5zM140.979 46.121h.5v154.476h-.5zM142.049 46.121h.5v154.476h-.5zM143.12 46.121h.5v154.476h-.5zM144.19 46.121h.5v154.476h-.5zM145.26 46.121h.5v154.476h-.5zM146.331 46.121h.5v154.476h-.5zM147.401 46.121h.5v154.476h-.5zM148.472 46.121h.5v154.476h-.5zM149.543 46.121h.5v154.476h-.5zM150.613 46.121h.5v154.476h-.5zM151.684 46.121h.5v154.476h-.5zM152.754 46.121h.5v154.476h-.5zM153.825 46.121h.5v154.476h-.5zM154.895 46.121h.5v154.476h-.5zM155.966 46.121h.5v154.476h-.5zM157.036 46.121h.5v154.476h-.5zM158.107 46.121h.5v154.476h-.5zM159.177 46.121h.5v154.476h-.5zM160.248 46.121h.5v154.476h-.5zM161.318 46.121h.5v154.476h-.5zM162.389 46.121h.5v154.476h-.5zM163.46 46.121h.5v154.476h-.5zM164.53 46.121h.5v154.476h-.5zM165.601 46.121h.5v154.476h-.5zM166.671 46.121h.5v154.476h-.5z"/></g></pattern><pattern id="s" data-name="New Pattern Swatch 2" width="325.441" height="297.191" patternTransform="matrix(4.97444 .01411 .01411 -4.97444 -12873.938 86353.559)" patternUnits="userSpaceOnUse"><path fill="none" d="M0 0h325.441v297.191H0z"/><g clip-path="url(#a)"><path fill="none" stroke="#ede2ef" stroke-miterlimit="10" stroke-width=".5" d="M325.191 0v297.191"/></g><g clip-path="url(#b)" fill="none" stroke="#ede2ef" stroke-miterlimit="10" stroke-width=".5"><path d="M-.25 0v297.191M1.823 0v297.191M3.896 0v297.191M5.969 0v297.191M8.041 0v297.191M10.114 0v297.191M12.187 0v297.191M14.26 0v297.191M16.333 0v297.191M18.406 0v297.191M20.479 0v297.191M22.552 0v297.191M24.624 0v297.191M26.697 0v297.191M28.77 0v297.191M30.843 0v297.191M32.916 0v297.191M34.989 0v297.191M37.062 0v297.191M39.134 0v297.191M41.207 0v297.191M43.28 0v297.191M45.353 0v297.191M47.426 0v297.191M49.499 0v297.191M51.572 0v297.191M53.645 0v297.191M55.717 0v297.191M57.79 0v297.191M59.863 0v297.191M61.936 0v297.191M64.009 0v297.191M66.082 0v297.191M68.155 0v297.191M70.228 0v297.191M72.3 0v297.191M74.373 0v297.191M76.446 0v297.191M78.519 0v297.191M80.592 0v297.191M82.665 0v297.191M84.738 0v297.191M86.811 0v297.191M88.883 0v297.191M90.956 0v297.191M93.029 0v297.191M95.102 0v297.191M97.175 0v297.191M99.248 0v297.191M101.321 0v297.191M103.394 0v297.191M105.466 0v297.191M107.539 0v297.191M109.612 0v297.191M111.685 0v297.191M113.758 0v297.191M115.831 0v297.191M117.904 0v297.191M119.977 0v297.191M122.049 0v297.191M124.122 0v297.191M126.195 0v297.191M128.268 0v297.191M130.341 0v297.191M132.414 0v297.191M134.487 0v297.191M136.559 0v297.191M138.632 0v297.191M140.705 0v297.191M142.778 0v297.191M144.851 0v297.191M146.924 0v297.191M148.997 0v297.191M151.07 0v297.191M153.142 0v297.191M155.215 0v297.191M157.288 0v297.191M159.361 0v297.191M161.434 0v297.191M163.507 0v297.191M165.58 0v297.191M167.653 0v297.191M169.725 0v297.191M171.798 0v297.191M173.871 0v297.191M175.944 0v297.191M178.017 0v297.191M180.09 0v297.191M182.163 0v297.191M184.236 0v297.191M186.308 0v297.191M188.381 0v297.191M190.454 0v297.191M192.527 0v297.191M194.6 0v297.191M196.673 0v297.191M198.746 0v297.191M200.819 0v297.191M202.891 0v297.191M204.964 0v297.191M207.037 0v297.191M209.11 0v297.191M211.183 0v297.191M213.256 0v297.191M215.329 0v297.191M217.401 0v297.191M219.474 0v297.191M221.547 0v297.191M223.62 0v297.191M225.693 0v297.191M227.766 0v297.191M229.839 0v297.191M231.912 0v297.191M233.984 0v297.191M236.057 0v297.191M238.13 0v297.191M240.203 0v297.191M242.276 0v297.191M244.349 0v297.191M246.422 0v297.191M248.495 0v297.191M250.567 0v297.191M252.64 0v297.191M254.713 0v297.191M256.786 0v297.191M258.859 0v297.191M260.932 0v297.191M263.005 0v297.191M265.078 0v297.191M267.15 0v297.191M269.223 0v297.191M271.296 0v297.191M273.369 0v297.191M275.442 0v297.191M277.515 0v297.191M279.588 0v297.191M281.661 0v297.191M283.733 0v297.191M285.806 0v297.191M287.879 0v297.191M289.952 0v297.191M292.025 0v297.191M294.098 0v297.191M296.171 0v297.191M298.244 0v297.191M300.316 0v297.191M302.389 0v297.191M304.462 0v297.191M306.535 0v297.191M308.608 0v297.191M310.681 0v297.191M312.754 0v297.191M314.827 0v297.191M316.899 0v297.191M318.972 0v297.191M321.045 0v297.191M323.118 0v297.191M325.191 0v297.191"/></g></pattern></defs><path fill="url(#k)" d="M1572.788 454.025V894.69L786.394 440.665V0l786.394 454.025z"/><path fill="url(#l)" d="M0 454.025V894.69l786.394-454.025V0L0 454.025z"/><path fill="url(#k)" d="M165.324 505.534v400.4l621.07-358.575v-400.4l-621.07 358.575z"/><path d="M786.394 355.594l-368.18 212.569v315.365l368.18 212.57 368.18-212.57V568.163z" fill="none" stroke="#fff" stroke-linecap="round" stroke-linejoin="round"/><path d="M996.71 742.683c.224 3.136.369 6.251.354 9.323-.08 28.99-10.31 49.381-26.816 58.974L786.394 917.822v346.687l621.07-358.575v-400.4z" fill="url(#k)"/><path d="M988.526 791.35a48.055 48.055 0 0 1-18.278 19.63L786.394 917.82v430.894l786.394-454.025V454.025z" fill="url(#l)"/><path d="M721.317 955.639c.092-.054.18-.114.27-.168-16.74 9.891-40.003 8.593-65.692-6.24-50.765-29.31-91.808-100.363-91.644-158.727q.015-5.413.504-10.417L0 454.025V894.69l786.394 454.025V917.822z" fill="url(#k)"/><path d="M721.317 955.639c.092-.054.18-.114.27-.168-16.74 9.891-40.003 8.593-65.692-6.24-50.765-29.31-91.808-100.363-91.644-158.727a97.44 97.44 0 0 1 3.344-25.97l7.248-10.942.001-.004 10.029-5.827-419.55-242.227v400.4l621.071 358.575V917.822z" fill="url(#m)"/><path d="M721.317 955.639c.092-.054.18-.114.27-.168-16.74 9.891-40.003 8.593-65.692-6.24-50.765-29.31-91.808-100.363-91.644-158.727a97.44 97.44 0 0 1 3.344-25.97l7.248-10.942.001-.004 14.025-8.15-6.213-3.587 7.249-10.95 14.054-8.166-6.246-3.606 1.842-2.773-310.062-179.014v357.316l496.901 286.886V917.822zM989.918 706.723c.1.32.202.64.295.96 1.018 3.452 1.956 6.907 2.76 10.357.088.359.141.717.225 1.076a168.442 168.442 0 0 1 1.807 9.25c.18 1.052.325 2.093.477 3.145.37 2.494.664 4.98.904 7.45.095 1.015.202 2.03.278 3.04.252 3.367.416 6.71.4 10.005-.08 28.99-10.31 49.381-26.816 58.974L786.394 917.822v263.722l496.901-286.886V537.342z" fill="url(#l)"/><path d="M786.394 250.455v352.29l.623-.362.035.02 66.841-38.844 51.528 29.749c2.913 1.678 5.788 3.535 8.625 5.479.4.267.8.53 1.193.805q4.044 2.831 7.962 5.997c.484.39.96.774 1.44 1.167q3.89 3.203 7.653 6.688c.4.374.79.747 1.183 1.125a184.67 184.67 0 0 1 7.633 7.618l.301.336a199.734 199.734 0 0 1 4.18 4.595c.876.998 1.719 2.035 2.577 3.061.553.645 1.102 1.289 1.643 1.944q3.409 4.142 6.638 8.48c.386.519.748 1.053 1.13 1.575q2.75 3.78 5.349 7.706c.491.732.983 1.465 1.464 2.204q2.962 4.587 5.723 9.311c.286.5.556 1.003.839 1.502a226.748 226.748 0 0 1 4.552 8.404c.412.805.828 1.606 1.232 2.41 1.544 3.096 3.047 6.211 4.434 9.36.069.154.126.314.199.466.255.595.48 1.19.74 1.785q1.813 4.237 3.431 8.521c.408 1.075.797 2.154 1.182 3.237q1.367 3.804 2.555 7.619c.312.995.644 1.983.934 2.981 1.018 3.451 1.956 6.906 2.76 10.356.088.359.141.717.225 1.076.685 3.039 1.269 6.063 1.777 9.08l288.32 166.462V537.342z" fill="url(#l)"/><path d="M786.394 146.959v400.4l47.844 27.622 19.655-11.422 51.528 29.749c2.913 1.678 5.788 3.535 8.625 5.479.4.267.8.53 1.193.805q4.044 2.831 7.962 5.997c.484.39.96.774 1.44 1.167q3.89 3.203 7.653 6.688c.4.374.79.747 1.183 1.125a184.67 184.67 0 0 1 7.633 7.618l.301.336a199.734 199.734 0 0 1 4.18 4.595c.876.998 1.719 2.035 2.577 3.061.553.645 1.102 1.289 1.643 1.944q3.409 4.142 6.638 8.48c.386.519.748 1.053 1.13 1.575q2.4 3.299 4.676 6.714l445.21 257.042v-400.4z" fill="url(#n)"/><path d="M996.664 741c-.076-1.01-.183-2.024-.278-3.038-.24-2.47-.534-4.957-.904-7.45-.152-1.053-.297-2.094-.477-3.146a168.463 168.463 0 0 0-1.807-9.25c-.084-.359-.137-.717-.225-1.076-.804-3.45-1.743-6.905-2.76-10.356-.29-.999-.622-1.986-.934-2.982q-1.19-3.814-2.555-7.618a163.28 163.28 0 0 0-1.182-3.237q-1.613-4.284-3.432-8.521c-.259-.596-.484-1.19-.74-1.785-.072-.152-.13-.313-.198-.465-1.387-3.15-2.89-6.265-4.434-9.361-.405-.805-.82-1.605-1.232-2.41a226.74 226.74 0 0 0-4.552-8.404c-.283-.5-.553-1.002-.84-1.502q-2.75-4.736-5.722-9.311c-.48-.74-.973-1.472-1.464-2.204q-2.597-3.924-5.35-7.706c-.381-.522-.744-1.056-1.129-1.575q-3.225-4.347-6.638-8.48c-.541-.655-1.09-1.3-1.644-1.944-.857-1.026-1.7-2.063-2.577-3.062a199.698 199.698 0 0 0-4.179-4.594l-.301-.336a184.664 184.664 0 0 0-7.633-7.618c-.394-.378-.782-.751-1.183-1.125q-3.763-3.494-7.652-6.688c-.48-.393-.957-.778-1.441-1.167q-3.924-3.157-7.962-5.997c-.392-.275-.793-.538-1.193-.805-2.837-1.944-5.712-3.801-8.625-5.48l-51.528-29.748-66.841 38.844-.035-.02-87.663 50.94.037.022-94.423 54.872-.006-.004-7.248 10.916 6.245 3.606-14.053 8.166h-.001l-7.249 10.95 6.213 3.588-14.025 8.149-.001.004-7.248 10.942a97.46 97.46 0 0 0-3.344 25.97c-.164 58.364 40.879 129.418 91.644 158.728 25.689 14.832 48.953 16.13 65.693 6.24-.091.053-.179.113-.27.167l248.93-144.66c16.506-9.592 26.736-29.984 26.816-58.973.016-3.295-.148-6.638-.4-10.006z" fill="#fff"/><path d="M996.664 742c-.076-1.01-.183-2.024-.278-3.038-.24-2.47-.534-4.957-.904-7.45-.152-1.053-.297-2.094-.477-3.146a168.463 168.463 0 0 0-1.807-9.25c-.084-.359-.137-.717-.225-1.076-.804-3.45-1.743-6.905-2.76-10.356-.29-.999-.622-1.986-.934-2.982q-1.19-3.814-2.555-7.618a163.28 163.28 0 0 0-1.182-3.237q-1.613-4.284-3.432-8.521c-.259-.596-.484-1.19-.74-1.785-.072-.152-.13-.313-.198-.465-1.387-3.15-2.89-6.265-4.434-9.361-.405-.805-.82-1.605-1.232-2.41a226.74 226.74 0 0 0-4.552-8.404c-.283-.5-.553-1.002-.84-1.502q-2.75-4.736-5.722-9.311c-.48-.74-.973-1.472-1.464-2.204q-2.597-3.924-5.35-7.706c-.381-.522-.744-1.056-1.129-1.575q-3.225-4.347-6.638-8.48c-.541-.655-1.09-1.3-1.644-1.944-.857-1.026-1.7-2.063-2.577-3.062a199.698 199.698 0 0 0-4.179-4.594l-.301-.336a184.664 184.664 0 0 0-7.633-7.618c-.394-.378-.782-.751-1.183-1.125q-3.763-3.494-7.652-6.688c-.48-.393-.957-.778-1.441-1.167q-3.924-3.157-7.962-5.997c-.392-.275-.793-.538-1.193-.805-2.837-1.944-5.712-3.801-8.625-5.48l-51.528-29.748-66.841 38.844-.035-.02-87.663 50.94.037.022-94.423 54.872-.006-.004-7.248 10.916 6.245 3.606-14.053 8.166h-.001l-7.249 10.95 6.213 3.588-14.025 8.149-.001.004-7.248 10.942a97.46 97.46 0 0 0-3.344 25.97c-.164 58.364 40.879 129.418 91.644 158.728 25.689 14.832 48.953 16.13 65.693 6.24-.091.053-.179.113-.27.167l248.93-144.66c16.506-9.592 26.736-29.984 26.816-58.973.016-3.295-.148-6.638-.4-10.006z" fill="#0066f5"/><path d="M996.664 742c-.076-1.01-.183-2.024-.278-3.038-.24-2.471-.534-4.957-.904-7.45-.152-1.053-.297-2.094-.477-3.146a168.685 168.685 0 0 0-1.807-9.25c-.084-.359-.137-.717-.225-1.076-.804-3.45-1.742-6.905-2.76-10.356-.29-.999-.622-1.986-.934-2.981q-1.19-3.815-2.555-7.619a162.8 162.8 0 0 0-1.182-3.237q-1.613-4.284-3.432-8.522c-.259-.594-.484-1.19-.74-1.784-.072-.153-.13-.313-.198-.465-1.388-3.15-2.89-6.265-4.434-9.361-.404-.805-.82-1.605-1.232-2.41a226.43 226.43 0 0 0-4.552-8.404c-.282-.499-.553-1.002-.84-1.502q-2.75-4.735-5.722-9.311c-.48-.74-.973-1.472-1.465-2.204q-2.596-3.923-5.35-7.706c-.38-.522-.743-1.056-1.128-1.574q-3.225-4.347-6.638-8.48c-.542-.656-1.09-1.3-1.643-1.945-.858-1.026-1.701-2.063-2.578-3.062a201.018 201.018 0 0 0-4.179-4.594l-.301-.336a184.489 184.489 0 0 0-7.634-7.618c-.392-.378-.781-.751-1.182-1.125q-3.763-3.495-7.652-6.688c-.48-.393-.957-.778-1.441-1.167q-3.924-3.156-7.962-5.997c-.392-.275-.793-.538-1.193-.805-2.837-1.944-5.712-3.801-8.625-5.479l-51.528-29.748-248.927 144.658 12.026 6.944-27.087 15.74 12.026 6.946-27.087 15.74 12.091 6.982 7.4 4.274-13.062 7.587a80.898 80.898 0 0 0-3.874 25.662c-.008 2.821.133 5.688.343 8.575.061.87.157 1.742.24 2.612q.303 3.174.77 6.379c.134.903.26 1.807.412 2.71q.652 3.924 1.537 7.851c.076.34.13.672.206 1.015.69 2.951 1.49 5.91 2.368 8.872.251.85.53 1.697.797 2.548q1.023 3.265 2.184 6.527c.336.934.668 1.865 1.022 2.799q1.367 3.626 2.906 7.21c.228.541.438 1.09.675 1.628.064.141.114.286.179.427a187.56 187.56 0 0 0 3.778 7.977c.347.694.706 1.384 1.064 2.074a190.371 190.371 0 0 0 3.867 7.157c.255.442.495.896.755 1.346 1.563 2.7 3.202 5.35 4.895 7.961.408.64.832 1.266 1.255 1.903q2.225 3.34 4.571 6.585c.332.45.649.915.98 1.365q2.763 3.723 5.69 7.263c.46.565.933 1.114 1.399 1.667.74.88 1.468 1.78 2.223 2.634a158.488 158.488 0 0 0 3.55 3.905c.099.107.194.213.29.316a154.256 154.256 0 0 0 6.52 6.517c.342.328.686.663 1.036.984q3.215 2.996 6.547 5.723.624.509 1.24 1.006c2.245 1.8 4.514 3.523 6.82 5.14.34.237.687.458 1.03.698 2.437 1.662 4.896 3.248 7.39 4.69 21.901 12.643 41.732 13.818 56.053 5.494l33.333-19.373c-4.076 16.536-12.457 28.65-24.006 35.36l248.93-144.658c16.506-9.593 26.737-29.985 26.817-58.974.015-3.295-.15-6.638-.4-10.005" fill="url(#o)"/><path d="M929.792 780.854c-.076-1.01-.183-2.02-.282-3.035-.237-2.47-.53-4.949-.9-7.446-.153-1.056-.301-2.101-.477-3.161a167.213 167.213 0 0 0-1.8-9.205c-.087-.373-.144-.747-.236-1.125a182.392 182.392 0 0 0-2.76-10.356c-.298-.995-.622-1.978-.93-2.97q-1.196-3.809-2.556-7.618a187.06 187.06 0 0 0-1.189-3.256q-1.602-4.256-3.413-8.469c-.259-.614-.495-1.224-.762-1.834-.065-.16-.126-.316-.195-.476-1.391-3.142-2.886-6.25-4.43-9.346-.4-.804-.82-1.609-1.236-2.413q-2.173-4.227-4.522-8.362c-.297-.519-.575-1.045-.873-1.56a226.078 226.078 0 0 0-5.712-9.292c-.484-.747-.98-1.48-1.472-2.219q-2.59-3.906-5.334-7.683c-.381-.53-.755-1.075-1.144-1.601q-3.22-4.335-6.63-8.469c-.546-.66-1.099-1.304-1.648-1.956-.865-1.018-1.708-2.07-2.58-3.065a208.123 208.123 0 0 0-4.168-4.576c-.107-.114-.21-.232-.313-.347-2.482-2.642-5.03-5.159-7.622-7.614-.397-.374-.793-.76-1.194-1.133q-3.757-3.494-7.648-6.688c-.48-.392-.957-.777-1.441-1.162a150.908 150.908 0 0 0-7.958-6.002c-.397-.275-.793-.534-1.197-.805-2.84-1.944-5.708-3.801-8.621-5.479l-51.532-29.748-87.663 50.94 51.532 29.753c2.913 1.681 5.78 3.53 8.62 5.475.397.275.802.534 1.198.812a148.872 148.872 0 0 1 7.958 5.998c.484.385.96.774 1.44 1.163q3.884 3.197 7.65 6.684c.4.374.797.763 1.193 1.136 2.585 2.452 5.14 4.976 7.618 7.615.115.114.214.24.328.358 2.303 2.463 4.545 5.03 6.745 7.641.545.645 1.094 1.281 1.632 1.937q3.409 4.135 6.638 8.484c.39.518.755 1.056 1.137 1.582q2.75 3.78 5.345 7.699c.492.735.984 1.468 1.46 2.207q2.97 4.587 5.724 9.307c.29.508.564 1.019.854 1.53q2.362 4.146 4.541 8.392c.416.8.831 1.598 1.228 2.402a218.801 218.801 0 0 1 4.629 9.83c.267.598.492 1.2.751 1.795q1.813 4.233 3.428 8.515c.408 1.075.797 2.154 1.182 3.233q1.361 3.81 2.558 7.638c.313.987.637 1.97.93 2.958a180.387 180.387 0 0 1 2.761 10.368c.088.37.145.724.233 1.09a171.329 171.329 0 0 1 1.803 9.235c.176 1.052.325 2.1.477 3.153q.55 3.747.9 7.45c.1 1.011.206 2.03.282 3.032.248 3.37.412 6.715.4 10.013-.042 14.489-2.62 26.828-7.252 36.752-4.633 9.918-11.32 17.418-19.572 22.21l87.663-50.944c16.503-9.59 26.744-29.984 26.824-58.963.012-3.294-.152-6.642-.4-10.009" fill="url(#p)"/><path fill="url(#k)" d="M786.394 780.732v315.365l368.18-212.569V568.163l-368.18 212.569z"/><path d="M564.251 790.504a97.44 97.44 0 0 1 3.344-25.97l7.248-10.942.001-.004 14.025-8.15-6.213-3.587 7.249-10.95 14.054-8.166-6.246-3.606 7.249-10.916.006.004 94.423-54.872-.037-.021 87.04-50.58v-247.15l-368.18 212.569v315.365l146.302-84.467q-.272-4.317-.264-8.557z" fill="url(#q)"/><path d="M721.317 955.639c.092-.054.18-.114.27-.168-16.74 9.891-40.003 8.593-65.692-6.24-50.765-29.31-91.808-100.363-91.644-158.727a97.44 97.44 0 0 1 3.344-25.97l7.248-10.942.001-.004 14.025-8.15-6.213-3.587 7.249-10.95 14.054-8.166-6.246-3.606 7.249-10.916.006.004 27.823-16.169-214.577-123.885v315.365l368.18 212.57V917.821zM786.394 355.594v247.15l.623-.361.035.02 66.841-38.844 51.528 29.749c2.913 1.678 5.788 3.535 8.625 5.479.4.267.8.53 1.193.805q4.044 2.831 7.962 5.997c.484.39.96.774 1.44 1.167q3.89 3.203 7.653 6.688c.4.374.79.747 1.183 1.125a184.67 184.67 0 0 1 7.633 7.618l.301.336a199.734 199.734 0 0 1 4.18 4.595c.876.998 1.719 2.035 2.577 3.061.553.645 1.102 1.289 1.643 1.944q3.409 4.142 6.638 8.48c.386.519.748 1.053 1.13 1.575q2.75 3.78 5.349 7.706c.491.732.983 1.465 1.464 2.204q2.962 4.587 5.723 9.311c.286.5.556 1.003.839 1.502a226.748 226.748 0 0 1 4.552 8.404c.412.805.828 1.606 1.232 2.41 1.544 3.096 3.047 6.211 4.434 9.36.069.154.126.314.199.466.255.595.48 1.19.74 1.785q1.813 4.237 3.431 8.521c.408 1.075.797 2.154 1.182 3.237q1.367 3.804 2.555 7.619c.312.995.644 1.983.934 2.981 1.018 3.451 1.956 6.906 2.76 10.356.088.359.141.717.225 1.076a168.442 168.442 0 0 1 1.807 9.25c.18 1.052.325 2.093.477 3.145.37 2.494.664 4.98.904 7.45.095 1.015.202 2.03.278 3.04.252 3.367.416 6.71.4 10.005-.04 14.357-2.571 26.602-7.12 36.474l164.63 95.049V568.163z" fill="url(#q)"/><path d="M656.494 737.97l-51.532-29.757-7.249 10.917 11.355 6.554 47.384 27.358c43.528 25.135 78.68 86.05 78.538 136.03-.144 50.025-35.525 70.218-79.053 45.084-43.532-25.131-78.683-86.047-78.535-136.065a80.79 80.79 0 0 1 3.867-25.657l15.06 8.69c-3.054 6.87-4.754 15.301-4.784 25.17-.115 41.03 28.734 90.994 64.442 111.61 35.704 20.614 64.74 4.065 64.853-36.965.119-41.031-28.726-91.026-64.434-111.64l-45.034-25.995-21.467-12.404-7.249 10.95 14.116 8.153 20.529 11.85 39.059 22.554c28.445 16.422 51.455 56.248 51.364 88.96-.092 32.68-23.259 45.884-51.7 29.462-28.466-16.438-51.45-56.28-51.36-88.964.027-10.07 2.262-18.294 6.14-24.383l17.054 9.849c-5.608 4.278-9.017 12.056-9.047 22.671-.07 23.728 16.612 52.615 37.26 64.538 20.646 11.923 37.439 2.349 37.507-21.372.065-23.693-16.617-52.618-37.264-64.54l-35.44-20.461-17.292-9.982-16.651-9.613-12.087-6.981-7.249 10.943a97.462 97.462 0 0 0-3.344 25.97c-.164 58.364 40.879 129.418 91.644 158.728s92.078 5.8 92.238-52.565c.168-58.334-40.874-129.392-91.64-158.698zm-.222 77.764c13.384 7.732 24.201 26.461 24.16 41.843-.043 15.412-10.936 21.615-24.32 13.886-13.383-7.72-24.2-26.461-24.154-41.87.045-15.377 10.931-21.584 24.315-13.86z" fill="url(#r)"/><path fill="url(#s)" d="M604.962 707.213l.006.004 94.423-54.872-.037-.021 87.04-50.579v-351.29L289.493 537.342v357.316l309.753-178.837 5.716-8.608z"/></svg>