<svg width="120" height="120" viewBox="0 0 120 120" fill="none" xmlns="http://www.w3.org/2000/svg" svg-inline="" role="presentation" focusable="false" tabindex="-1"><path d="M60 120c33.137 0 60-26.863 60-60S93.137 0 60 0 0 26.863 0 60s26.863 60 60 60z" fill="#CBF0FA"></path><path d="M83.889 23.87l.135 46.551-40.525 23.404-.135-46.567L83.89 23.869z" fill="#0067F5"></path><path d="M43.5 93.825l-8.41-5.314-.136-46.567 8.41 5.314.136 46.567z" fill="#003781"></path><path d="M43.364 47.258l-8.41-5.314 41.524-23.389 7.41 5.314-40.524 23.389zM71.744 48.468v3.202L51.48 63.364v-3.201l20.263-11.694zM67.49 56.69l.015 3.187-15.993 9.244-.015-3.201 15.993-9.23zM75.998 40.246v3.202l-24.531 14.16v-3.202l24.53-14.16z" fill="#fff"></path></svg>