<svg width="120" height="120" viewBox="0 0 120 120" fill="none" xmlns="http://www.w3.org/2000/svg" svg-inline="" role="presentation" focusable="false" tabindex="-1"><path d="M60 120c33.137 0 60-26.863 60-60S93.137 0 60 0 0 26.863 0 60s26.863 60 60 60z" fill="#CBF0FA"></path><path d="M83.969 27.594L44.125 50.578l.137 45.781L84.13 73.36l-.161-45.766zM60.749 73.29l-10.45-.88v-3.82l10.34-12.87 1.93 2.71-7.49 9.31 7.56.64-1.89 4.91zm6.08-3.22v-4.4l12.45-7.19v4.4l-12.45 7.19z" fill="#0067F5"></path><path d="M83.97 27.6l-8.24-4.78L35.9 45.8l.13 45.76 8.24 4.8-.12-45.77L83.97 27.6z" fill="#003781"></path><path d="M62.57 58.42l-1.93-2.7-10.35 12.87.01 3.82 10.44.88 1.9-4.91-7.56-.64 7.49-9.32zm4.25 7.25l.01 4.4 12.45-7.19-.01-4.4-12.45 7.19z" fill="#fff"></path></svg>