<svg width="120" height="120" viewBox="0 0 120 120" fill="none" xmlns="http://www.w3.org/2000/svg" svg-inline="" role="presentation" focusable="false" tabindex="-1"><path d="M60 120c33.137 0 60-26.863 60-60S93.137 0 60 0 0 26.863 0 60s26.863 60 60 60z" fill="#CBF0FA"></path><path d="M46.08 54.95l1.087.305.803.184a40.964 40.964 0 01-4.464-1.346c.858.304 1.706.608 2.575.858zm9.211 1.738l1.488.13 1.64.088h1.825c-1.792 0-3.584-.109-5.355-.294l.402.076zm6.376.25h1.4c.728 0 1.456-.087 2.173-.14.38 0 .771 0 1.151-.099h.13a53.004 53.004 0 01-5.43.305l.576-.066zm-12.48-1.194l1.347.271c.565.098 1.086.206 1.705.293l1.434.207h.412a53.142 53.142 0 01-5.18-.89l.282.119zm20.886.401l1.206-.217 1.086-.239c-1.617.367-3.252.65-4.898.847.88-.14 1.748-.239 2.606-.39zm2.998-.63c.424-.097.847-.228 1.26-.336a67.947 67.947 0 001.673-.478l.923-.315.739-.283a43.195 43.195 0 01-4.692 1.434l.097-.021zM42.16 53.594c.162 0 .315.13.467.195h.087a35.647 35.647 0 01-4.9-2.313 35.64 35.64 0 004.346 2.118zm38.916-17.215c-1.053-.579-3.65-1.94-4.768-2.382-2.91 6.843-7.527 11.342-17.932 10.712-.337-5.593.565-9.949 2.509-13.261h-.913c-1.65 0-3.258.097-4.92.271l-.836.12c-1.217.151-2.4.369-3.574.608-.999.206-1.966.456-2.921.727-.956.272-1.858.51-2.737.837-.38.13-.75.271-1.087.423a30.517 30.517 0 00-4.084 1.945c-.39.228-.749.467-1.086.706-.336.238-.717.456-1.086.695-.37.239-.554.434-.825.651-.272.218-.609.478-.88.728-.272.25-.315.315-.478.467-.438.421-.852.867-1.238 1.336l-.478.587c-.25.336-.467.684-.684 1.02a8.443 8.443 0 00-.391.652 18.376 18.376 0 007.298 7.017c11.416 6.593 29.924 6.582 41.274 0a18.226 18.226 0 007.136-6.865 18.357 18.357 0 00-7.299-6.994zm9.83 8.2l.282-.478c-.087.152-.195.315-.282.478zM89.7 38.333v-.587c-.032.196 0 .391 0 .587zm-5.05 12.37c-.413.261-.804.544-1.25.805.435-.272.837-.544 1.25-.804zm-5.16 2.716c.315-.13.62-.25.924-.39 1.039-.459 2.054-.97 3.04-1.532a34.377 34.377 0 01-4.507 2.172l.543-.25zm-48.822-8.135c-.174-.25-.304-.5-.456-.739.174.261.293.522.456.739z" fill="#fff"></path><path d="M85.7 57.15l-.18.15c-.29.25-.6.5-.91.75-.31.25-.54.44-.83.65-.29.21-.7.48-1.06.71-.36.23-.49.35-.77.51l-.36.22c-.909.518-1.844.988-2.8 1.41-.28.13-.56.24-.84.36-.76.32-1.54.62-2.33.89l-.53.2-.33.09c-.5.16-1 .3-1.53.44s-.77.22-1.17.31c-.4.09-1.09.24-1.64.35-.32.07-.63.15-1 .21h-.17c-1.11.2-2.24.35-3.38.47h-.25c-.26 0-.54 0-.8.06-.67 0-1.34.1-2 .13h-1.76l-23 13.27L39.52 87c0 3.11 2.08 6.22 6.2 8.6 8.22 4.74 21.5 4.74 29.68 0 4.08-2.37 6.11-5.48 6.09-8.59L86.76 56c-.25.27-.48.55-.76.81-.11.12-.19.24-.3.34z" fill="#0066F3"></path><path d="M79.46 37a16.901 16.901 0 016.72 6.45 9.64 9.64 0 001.22-4.65V37.98c0-.09 0-.45-.06-.68-.06-.23-.13-.53-.2-.8s-.1-.45-.17-.68a8.025 8.025 0 00-.34-.8c-.1-.22-.17-.45-.28-.66-.11-.21-.32-.53-.48-.8-.16-.27-.24-.43-.39-.63-.15-.2-.41-.52-.62-.78-.21-.26-.31-.41-.49-.61s-.52-.51-.78-.76-.37-.39-.58-.57c-.21-.18-.67-.54-1-.8-.33-.26-.38-.31-.59-.46a21.824 21.824 0 00-1.85-1.19c-.38-.21-1.525-.84-1.915-1.05-.114 2.88-.501 5.897-1.579 8.57.995.413 2.447 1.188 3.384 1.72z" fill="#003781"></path><path d="M90.16 39.68c0 .31-.348.01-.458.32 0 .23.238 1.06.178 1.29-.06.23-.16.63-.27.94-.08.22-.18.44-.27.65-.09.21-.28.65-.45 1l-.09.16-.26.44c-.23.36-.46.72-.73 1.08l-.38.47c-.444.553-.921 1.077-1.43 1.57l-.08.08c-.4.39-.83.76-1.29 1.13l-.56.44c-.42.32-.87.62-1.33.93-.38.24-.73.49-1.13.73-.909.518-1.844.988-2.8 1.41-.28.13-.56.24-.85.36l-.5.19c-.38.16-.76.3-1.15.44l-.68.26-.85.29c-.51.16-1 .3-1.54.44s-.77.22-1.16.31h-.11l-.52.11-1 .22-1.11.23c-.79.14-1.59.23-2.38.33-.3 0-.58.09-.88.12h-.12c-.35 0-.71.06-1.06.09-.67.05-1.34.1-2 .13h-4.26l-1.51-.08-1.37-.12h-.37l-.74-.08h-.38l-1.32-.19c-.53-.08-1-.18-1.57-.27l-1.24-.25-.26-.07c-.29-.06-.56-.13-.84-.21l-.74-.17-1-.28c-.8-.23-1.58-.51-2.35-.79l-.75-.25h-.08c-.14-.06-.28-.13-.43-.18a32.816 32.816 0 01-4-1.92c-.73-.42-1.41-.86-2.05-1.31L37 49.2c-.42-.33-.86-.65-1.24-1-.21-.18-.38-.37-.57-.56-.19-.19-.65-.6-.93-.91-.28-.31-.29-.37-.44-.55a11.692 11.692 0 01-.79-1c-.15-.22-.26-.44-.4-.66-.14-.22-.39-.6-.54-.91a6.511 6.511 0 01-.31-.72c-.13-.3-.28-.59-.38-.89-.1-.3-.13-.52-.19-.77a8.698 8.698 0 01-.22-.88c0-.26-.05-.52-.07-.79-.02-.27-.07-.57-.07-.86v9.22A11.94 11.94 0 0034.31 56l3.78 22.41 23-13.27h1.79c.68 0 1.35-.08 2-.13.26 0 .54 0 .8-.06h.25c1.14-.12 2.27-.27 3.38-.47h.17c.32-.06.63-.14 1-.21.55-.11 1.1-.22 1.64-.35.54-.13.78-.21 1.17-.31.39-.1 1-.28 1.53-.44l.33-.09.53-.2c.79-.27 1.57-.57 2.33-.89.28-.12.56-.23.84-.36a30.492 30.492 0 002.8-1.41l.36-.22c.28-.16.51-.34.77-.51.26-.17.73-.46 1.06-.71.33-.25.56-.43.83-.65.27-.22.62-.5.91-.75l.18-.15c.11-.1.19-.22.3-.33.28-.26.51-.54.76-.81s.35-.36.5-.54c.15-.18.2-.2.28-.3l.2-.3c.26-.34.48-.69.7-1 .09-.14.21-.28.29-.43l.11-.23c.16-.3.3-.61.43-.92.13-.31.18-.36.25-.54.07-.18 0-.13.06-.19.1-.29.17-.59.25-.89.08-.3.11-.51.11-.75v-.16c.06-.32.08-.63.11-1s.06-.4.07-.6v-9.48c.05.37 0 .64-.02.92z" fill="#003781"></path><path d="M31 40.41c.058.297.132.591.22.882.06.25.11.51.19.771s.25.592.38.893c.09.246.193.487.31.722.15.31.361.611.541.912.18.3.26.451.42.682.245.348.51.683.79 1.003.15.18.271.37.441.551.17.18.61.612.93.912.32.301.36.381.571.562.38.33.82.652 1.24 1.002l.541.422c.64.45 1.32.892 2.051 1.313a32.815 32.815 0 004.513 2.136l.75.25c1.35.48 2.727.881 4.123 1.203.28.08.55.15.84.21 1.551.352 3.152.623 4.773.823l.74.08c1.631.17 3.282.26 4.933.271h.79a48.756 48.756 0 005.004-.28c.3 0 .58-.081.88-.121a44.187 44.187 0 004.513-.782l.52-.11c1.471-.358 2.921-.8 4.343-1.324.39-.14.77-.28 1.15-.441a31.654 31.654 0 004.153-2.005c.41-.24.77-.502 1.15-.742.38-.24.91-.612 1.331-.933l.56-.44c.46-.372.89-.743 1.291-1.134l.05-.04c.483-.467.937-.962 1.36-1.484l.391-.491c.27-.361.5-.722.73-1.083.08-.15.18-.3.26-.441l.11-.19a9.2 9.2 0 00.451-1.003c.14-.361.2-.451.28-.682.08-.23.19-.632.27-.942.08-.311.13-.482.17-.722.04-.24.08-.622.11-.933.4-4.712-2.471-9.514-8.685-13.104a29.951 29.951 0 00-3.081-1.454c0 .712-.08 1.364-.12 2.005.39.211.83.361 1.21.572.65.401 1.278.836 1.881 1.303.21.15.39.311.59.462.2.15.701.531 1.001.802.3.27.38.38.58.571.2.19.54.502.781.762.24.26.32.411.49.612.17.2.44.511.62.782.18.27.26.42.39.632.131.21.341.53.481.802.14.27.18.44.28.661.128.261.242.529.34.802.07.231.11.452.17.682.06.23.15.542.2.802.05.261 0 .462.06.682.006.093.006.187 0 .28v.542a9.68 9.68 0 01-1.22 4.652 16.804 16.804 0 01-6.574 6.337c-10.446 6.086-27.496 6.096-38.022 0a16.946 16.946 0 01-6.724-6.477 9.673 9.673 0 01-1.13-5.424c.015-.276.046-.55.09-.822 0-.24.11-.472.18-.712.058-.268.132-.533.22-.792.08-.22.18-.451.28-.672.11-.281.237-.556.38-.822.11-.2.24-.411.37-.622.191-.318.398-.626.621-.922.14-.19.29-.371.44-.562.35-.41.73-.822 1.14-1.223.151-.15.281-.29.441-.431.25-.22.53-.441.8-.652.27-.21.39-.33.611-.491l.17-.13c.29-.21.61-.421.93-.622.32-.2.671-.461 1.001-.682a28.595 28.595 0 013.892-1.814c.34-.14.69-.271 1.001-.392.81-.3 1.661-.53 2.521-.771.861-.241 1.771-.482 2.682-.672 1.09-.22 2.181-.431 3.302-.562l.77-.11a45.301 45.301 0 014.533-.25h.72c1.491 0 3.002.09 4.463.24l.67.08a43.67 43.67 0 014.323.742l.77.19c.8.201 1.551.462 2.322.712a34.19 34.19 0 014.432-.33c-11.596-4.893-27.866-4.332-38.262 1.724-5.763 3.349-8.625 7.75-8.625 12.152 0 .29.05.581.07.862.02.28.06.532.06.792z" fill="#0066F3"></path><path d="M70.965 24.486l-.774-.19a43.968 43.968 0 00-4.34-.744l-.674-.08a48.179 48.179 0 00-4.481-.242h-.724c-1.52.008-3.04.091-4.551.251l-.774.11c-1.125.131-2.22.342-3.316.563-.914.191-1.808.422-2.693.674-.884.25-1.718.472-2.532.773-.351.12-.703.252-1.004.392a28.73 28.73 0 00-3.758 1.779 8.302 8.302 0 00-1.005.683c-.291.23-.643.412-.934.623l-.171.13c-.221.161-.412.322-.613.493-.201.17-.553.432-.804.653-.16.14-.291.281-.442.432-.428.396-.834.816-1.216 1.256-.15.19-.301.372-.442.563-.224.297-.431.605-.623.924-.13.21-.261.422-.372.623a7.544 7.544 0 00-.382.824c-.1.22-.2.452-.28.673-.09.26-.163.525-.222.794-.07.24-.13.472-.18.713a7.938 7.938 0 00-.091.824 9.675 9.675 0 001.135 5.436c.11-.201.241-.402.362-.603.12-.2.402-.633.633-.944l.442-.543c.357-.437.74-.853 1.145-1.246.151-.14.282-.291.443-.432.16-.14.542-.452.813-.673.272-.221.493-.402.764-.603.271-.201.633-.432 1.005-.643.372-.211.663-.442 1.005-.653a28.226 28.226 0 013.767-1.789c.342-.14.684-.271 1.005-.392.814-.301 1.678-.532 2.532-.773a39.32 39.32 0 012.703-.673 43.597 43.597 0 013.306-.563l.773-.11a45.532 45.532 0 014.552-.252h.844c-1.798 3.014-2.632 7.094-2.32 12.268L78.43 24.828h-.663c-1.49.014-2.976.124-4.451.331-.774-.21-1.528-.472-2.352-.673z" fill="#003781"></path><path d="M76.48 35.58a25.072 25.072 0 001.8-8.39c0-.67.12-1.32.12-2v-.34L58.58 44.66c9.58.58 15.22-2.78 17.9-9.08z" fill="#0066F3"></path></svg>