<svg width="120" height="120" viewBox="0 0 120 120" fill="none" xmlns="http://www.w3.org/2000/svg" svg-inline="" role="presentation" focusable="false" tabindex="-1"><path d="M60 120c33.137 0 60-26.863 60-60S93.137 0 60 0 0 26.863 0 60s26.863 60 60 60z" fill="#CBF0FA"></path><path d="M37.07 67.59L23.7 75.36l36.42 21.02L96.3 75.36l-13.37-7.72L60.12 80.9 37.07 67.59z" fill="#003781"></path><path d="M82.93 52.15L60.12 65.41 37.07 52.1 23.7 59.87l13.37 7.72L60.12 80.9l22.81-13.26 13.37-7.77-13.37-7.72z" fill="#fff"></path><path d="M60.12 65.41l22.81-13.26 13.37-7.77-36.42-21.02L23.7 44.39l13.37 7.71 23.05 13.31z" fill="#0067F5"></path></svg>