<svg width="120" height="120" viewBox="0 0 120 120" fill="none" xmlns="http://www.w3.org/2000/svg" svg-inline="" role="presentation" focusable="false" tabindex="-1"><path d="M60 120c33.137 0 60-26.863 60-60S93.137 0 60 0 0 26.863 0 60s26.863 60 60 60z" fill="#CBF0FA"></path><path d="M68.12 49.65c10.61-6.13 19.24-1.21 19.27 11l.06 18.68L49 101.51V82.82c-.07-12.19 8.5-27.04 19.12-33.17z" fill="#0067F5"></path><path d="M72 47.86a.29.29 0 00.1 0c.48-.16.94-.28 1.4-.39l.79-.17c.35-.06.68-.11 1-.15l.58-.06h1.51c.477.024.952.084 1.42.18l.34.07c.36.09.71.19 1.06.31l.32.11c.434.17.855.37 1.26.6L64.43 38.23l-.1-.06a8.004 8.004 0 00-1-.48l-.19-.06a3.01 3.01 0 00-.32-.12l-.5-.17a5.062 5.062 0 00-.56-.13l-.34-.08h-.18a10.825 10.825 0 00-1.13-.13h-1.27a3.163 3.163 0 01-.32 0l-.58.06-.53.06c-.16 0-.33.07-.48.1-.15.03-.53.1-.79.17s-.28 0-.42.09c-.33.08-.66.19-1 .3h-.09c-.39.13-.79.28-1.19.45l-.47.21-.46.21c-.58.28-1.16.57-1.76.92-.6.35-1.23.75-1.83 1.16-.2.13-.39.28-.58.42-.41.3-.81.59-1.21.91l-.66.55c-.36.3-.72.62-1.08.94-.36.32-.44.4-.65.61l-.41.38-.41.43c-.43.45-.86.9-1.28 1.37-.13.15-.28.28-.41.43l-.32.4-.75.91-.49.59-.37.51-.54.73c-.12.17-.25.33-.36.5-.11.17-.39.58-.59.87l-.37.55-.16.24a65.82 65.82 0 00-1 1.62l-.06.11-.19.34c-.22.38-.44.77-.65 1.17-.1.18-.19.37-.28.55l-.29.58c-.09.17-.18.33-.26.5-.22.45-.42.91-.62 1.36-.04.078-.077.158-.11.24v.07c-.25.57-.48 1.15-.71 1.72l-.11.32c-.08.21-.15.42-.23.64-.08.22-.21.57-.31.86-.1.29-.13.45-.2.67-.07.22-.17.53-.25.8-.08.27-.1.32-.14.48-.04.16-.15.59-.22.88-.07.29-.17.66-.24 1a3.39 3.39 0 00-.08.34c-.06.23-.08.47-.13.7-.09.52-.19 1-.26 1.54 0 .14-.05.28-.07.42 0 .32-.07.64-.1 1s-.05.45-.06.68c-.06.71-.09 1.42-.09 2.12l.05 18.69L49 101.51V82.82c0-.7 0-1.41.08-2.12 0-.23.05-.46.07-.68 0-.46.1-.92.17-1.39.07-.47.16-1 .26-1.53.07-.35.13-.7.2-1 .07-.3.16-.65.25-1s.23-.91.36-1.37l.24-.79c.16-.52.33-1 .52-1.54l.22-.63c.27-.71.55-1.41.85-2.11.04-.078.078-.158.11-.24.28-.62.57-1.25.88-1.86.1-.2.19-.39.29-.58.3-.58.61-1.16.94-1.73.06-.11.12-.22.19-.33.38-.67.79-1.32 1.2-2l.38-.56c.31-.46.62-.92 1-1.37l.53-.72c.28-.38.58-.74.87-1.11.29-.37.49-.61.75-.91l.73-.83c.42-.46.84-.92 1.28-1.36.27-.27.54-.55.81-.81l.65-.61c.36-.33.72-.64 1.09-1 .22-.18.43-.37.66-.54.39-.32.8-.62 1.2-.91.2-.14.39-.29.59-.42.6-.42 1.21-.81 1.83-1.17.59-.34 1.18-.64 1.76-.91l.46-.21c.47-.2 1.03-.43 1.58-.62z" fill="#003781"></path><path d="M74.14 33.65a13.6 13.6 0 00-20.39-11.77 21.761 21.761 0 00-10.86 18.8V57a2.19 2.19 0 001.29 1.79 6.81 6.81 0 006.17 0A2.18 2.18 0 0051.61 57V40.68a13 13 0 016.5-11.25 4.88 4.88 0 017.32 4.22V44.2a2.191 2.191 0 001.28 1.8 6.86 6.86 0 006.18 0 2.152 2.152 0 001.25-1.79V33.65zm-3.87 26.66l3.54 3.83 5.96-1.39-3.75 7.85.16 7.04-5.86 1.02-5.85 5.75.13-7.22-3.78-3.5 5.93-5.47 3.52-7.91z" fill="#fff"></path></svg>