<svg width="120" height="120" viewBox="0 0 120 120" fill="none" xmlns="http://www.w3.org/2000/svg" svg-inline="" role="presentation" focusable="false" tabindex="-1"><path d="M60 120c33.137 0 60-26.863 60-60S93.137 0 60 0 0 26.863 0 60s26.863 60 60 60z" fill="#CBF0FA"></path><path d="M58.88 63.01l35.78-20.79-.09 33.34-35.79 20.8.1-33.35z" fill="#0067F5"></path><path d="M79.64 65.42c2.71-1.57 4.93-.31 4.94 2.81v13.15l-9.84 5.69V73.92a10.82 10.82 0 014.9-8.5zM42.13 48.19l8.97-5.21L67.86 57.8l-8.97 5.21-16.76-14.82zM60.04 37.79l8.97-5.21 16.76 14.81-8.97 5.21-16.76-14.81z" fill="#fff"></path><path fill-rule="evenodd" clip-rule="evenodd" d="M61.2 22.86l16.77 4.51-.314.193.314-.183 16.75 14.81-8.97 5.21-16.58-14.66-9.13 5.05v-.01l-.792.472.812-.472 16.75 14.81-8.97 5.22-16.69-14.767-9.01 5.147-16.77-4.52 8.97-5.21 8.95-5.2h.01l8.95-5.2 8.95-5.2zm-2.32 40.15L42.14 48.19l-16.77-4.52-.09 33.34 33.5 19.35.1-33.35z" fill="#003781"></path><path d="M94.72 42.22v1c0 5.69-4 12.62-8.93 15.48-4.93 2.86-9 .56-9-5.14v-1l17.93-10.34z" fill="#fff"></path><path d="M76.8 52.56v1c0 5.7-4 12.63-8.93 15.48-4.93 2.85-9 .56-9-5.14v-1L76.8 52.56z" fill="#fff"></path></svg>