<svg width="120" height="120" viewBox="0 0 120 120" fill="none" xmlns="http://www.w3.org/2000/svg" svg-inline="" role="presentation" focusable="false" tabindex="-1"><path d="M60 120c33.137 0 60-26.863 60-60S93.137 0 60 0 0 26.863 0 60s26.863 60 60 60z" fill="#CBF0FA"></path><path d="M93.45 35.17l-28.57-16.6L26.5 40.73l28.58 16.6.12 44.1 38.38-22.16-.13-44.1zM85.14 63.3A20.77 20.77 0 0183 70.69l2 1.13-1.37 2.36-1.94-1.1a21.311 21.311 0 01-5.37 5.85v3L74.37 83v-2.88a7.48 7.48 0 01-5.67.77L67 83.75 65.66 83l1.63-2.81A7.001 7.001 0 0164.85 75l-2.24 1.3v-2.22l2.24-1.29a21 21 0 012.41-7.94l-1.64-.93L67 61.56l1.66.95a20.5 20.5 0 015.66-5.77v-2.89l1.93-1.12v3a6.93 6.93 0 015.39-.36L83.55 52l1.37.78-2 3.39a7.21 7.21 0 012.16 4.92L88 59.43v2.23l-2.86 1.64z" fill="#0067F5"></path><path d="M26.5 40.73l.13 44.1 28.57 16.6-.12-44.1-28.58-16.6z" fill="#003781"></path><path d="M85.13 61.08A7.21 7.21 0 0083 56.16l2-3.39-1.45-.77-1.93 3.34a6.93 6.93 0 00-5.39.36v-3l-1.93 1.12v2.89a20.5 20.5 0 00-5.66 5.77L67 61.56l-1.37 2.36 1.64.93a21 21 0 00-2.41 7.94l-2.26 1.29v2.23L64.85 75a7 7 0 002.44 5.15L65.66 83l1.38.78 1.65-2.86a7.48 7.48 0 005.67-.77V83l1.94-1.11v-3a21.311 21.311 0 005.37-5.85l1.94 1.1L85 71.82l-2-1.13a20.77 20.77 0 002.13-7.39L88 61.66v-2.23l-2.87 1.65z" fill="#fff"></path></svg>